<svg width="37" height="43" viewBox="0 0 37 43" fill="none" xmlns="http://www.w3.org/2000/svg">
<path d="M22.3182 31.5451C18.4069 28.5029 13.4814 23.5774 9.42517 16.6239C11.743 16.479 14.0609 15.6098 15.6544 14.1612C13.916 2.28215 4.49973 0.833496 4.49973 0.833496C2.03701 2.86162 0.298622 6.773 0.73322 10.1049C0.73322 10.1049 2.61648 32.2694 27.0988 41.8305V41.6857C30.2859 42.6997 34.487 41.6857 36.9497 39.6575C35.2113 27.7785 25.795 26.3299 25.795 26.3299C24.2015 27.4888 22.8977 29.3721 22.3182 31.5451Z" fill="white"/>
<path d="M23.7671 11.9883C23.7671 11.9883 29.9963 14.0164 29.272 19.811" stroke="white" stroke-miterlimit="10" stroke-linecap="round" stroke-linejoin="round"/>
<path d="M23.3325 5.46924C23.3325 5.46924 36.0807 9.67035 34.4872 21.5494" stroke="white" stroke-miterlimit="10" stroke-linecap="round" stroke-linejoin="round"/>
</svg>
