<svg width="29" height="17" fill="none" xmlns="http://www.w3.org/2000/svg"><path fill-rule="evenodd" clip-rule="evenodd" d="M11.196 3.831c.045 1.043.106 3.125-.372 3.893C10.166 8.78 8.856 6.81 8.52 6.29a30.55 30.55 0 01-1.589-2.729 29.936 29.936 0 01-.693-1.482c-.278-.627-.307-.975-.965-1.21-.399-.141-1.6-.061-2.115-.06C2.445.81 1.721.805 1.01.82c-.745.015-1.238.272-.9 1.064.38.883.945 2.052 1.392 2.926a53.82 53.82 0 002.337 4.157c1.61 2.577 3.51 5.173 6.496 6.464 1.022.443 2.285.794 3.563.78.541-.004 1.65.07 2.084-.084.703-.25.617-.669.679-1.462.047-.601.176-1.281.466-1.71.81-1.193 1.905.249 2.507.89.704.747 1.271 1.589 2.237 2.081.687.35.941.349 1.794.334l2.147-.03c.667-.007 1.41.049 1.994-.162.584-.21.83-.702.496-1.364a7.063 7.063 0 00-.87-1.301c-.311-.367-.675-.803-1.033-1.142l-.543-.545c-.295-.308-.775-.72-1.102-1.044-.662-.655-1.282-1.113-.744-2.12.235-.44.608-.911.898-1.278.968-1.23 2.977-3.791 3.438-5.2.25-.767.11-1.14-.674-1.245-.265-.035-3.941.012-4.301.014-.814.007-1.3-.146-1.637.531-.12.242-.212.518-.319.773l-.322.732c-.577 1.33-2.53 4.763-3.561 5.08-.617.189-.864-.696-.914-1.224-.079-.848.04-3.262.069-4.253.018-.627.042-1.409-.318-1.821-.596-.683-2.623-.583-3.737-.577-.63.004-1.4.038-1.982.185-.452.114-1.25.523-1.19.95.076.04.331.078.445.11.39.106.764.34.943.672.274.511.321 1.173.35 1.83z" fill="#fff"/></svg>