<svg width="29" height="21" fill="none" xmlns="http://www.w3.org/2000/svg"><path fill-rule="evenodd" clip-rule="evenodd" d="M18.326 10.716c-.026.027-2.3 1.238-2.536 1.346l-.862.485-1.7.888c-.156.08-1.62.888-1.725.915V5.978l.157.107c.13.027.392.189.523.243.889.511 7.084 3.796 7.136 3.876l-.993.512zM0 8.536v3.795c.027.054.053 1.185.053 1.373.104 1.642.209 4.2 1.255 5.546.418.565 1.124.996 1.96 1.212.758.188 1.7.269 2.51.296 2.117.134 4.627.188 6.797.215.209 0 1.255-.027 1.385.027h1.386c.13-.054.915-.027 1.098-.027a175.58 175.58 0 007.555-.242c1.595-.108 2.431-.27 3.372-1.13.392-.405.628-.755.863-1.4.209-.512.392-1.24.47-1.832.157-1.373.262-2.853.288-4.28.026-2.208.026-6.623-.523-8.642-.34-1.185-.81-2.073-1.882-2.638-.575-.323-1.046-.431-1.778-.485-.68-.08-1.385-.108-2.091-.135A193.762 193.762 0 009.595.055c-1.412.054-2.876.08-4.288.188-1.516.108-2.535.135-3.503.97-.418.376-.68.673-.967 1.319a8.5 8.5 0 00-.497 1.75C.21 4.928.157 5.708.131 6.355.105 6.73.08 7.08.053 7.43c0 .189-.026.997-.053 1.104z" fill="#fff"/></svg>