<svg width="25" height="24" fill="none" xmlns="http://www.w3.org/2000/svg"><path fill-rule="evenodd" clip-rule="evenodd" d="M12.15 16a3.782 3.782 0 01-3.782-3.773 3.781 3.781 0 017.562 0 3.782 3.782 0 01-3.78 3.774z" fill="#fff"/><path fill-rule="evenodd" clip-rule="evenodd" d="M24.06 7.33c0-3.968-3.223-7.184-7.2-7.184H7.358c-3.977 0-7.2 3.216-7.2 7.185v9.484c0 3.968 3.223 7.185 7.2 7.185h9.502c3.977 0 7.2-3.217 7.2-7.185V7.33zm-5.663-2.792a1.403 1.403 0 100 2.804 1.403 1.403 0 100-2.804zM12.15 6.336c-3.256 0-5.904 2.642-5.904 5.891 0 3.248 2.648 5.89 5.904 5.89 3.255 0 5.902-2.642 5.902-5.89 0-3.249-2.647-5.891-5.902-5.891z" fill="#fff"/></svg>