<svg height="32" width="32" xmlns="http://www.w3.org/2000/svg"><g fill="#263238"><circle cx="7.5" cy="4.5" r=".5"/><circle cx="5.5" cy="4.5" r=".5"/><circle cx="3.5" cy="4.5" r=".5"/><path d="M30.5 7h-29a.5.5 0 010-1h29a.5.5 0 010 1z"/></g><path d="M1.5 22a.5.5 0 01-.5-.5v-18C1 2.673 1.673 2 2.5 2h27c.827 0 1.5.673 1.5 1.5v9a.5.5 0 01-1 0v-9a.5.5 0 00-.5-.5h-27a.5.5 0 00-.5.5v18a.5.5 0 01-.5.5zM22 31H10.5a.5.5 0 010-1h1c.827 0 1.5-.673 1.5-1.5v-1a.5.5 0 011 0v1c0 .563-.187 1.082-.501 1.5h5.002A2.489 2.489 0 0118 28.5v-3a.5.5 0 011 0v3c0 .827.673 1.5 1.5 1.5H22a.5.5 0 010 1z" fill="#263238"/><path d="M18.5 26h-16c-.827 0-1.5-.673-1.5-1.5v-3a.5.5 0 01.5-.5h14a.5.5 0 010 1H2v2.5a.5.5 0 00.5.5h16a.5.5 0 010 1zm0-12h-1a.5.5 0 010-1h1a.5.5 0 010 1zm9-4h-10a.5.5 0 010-1h10a.5.5 0 010 1zm0 2h-10a.5.5 0 010-1h10a.5.5 0 010 1zm-20 2h-3a.5.5 0 010-1h3a.5.5 0 010 1zm7-4h-10a.5.5 0 010-1h10a.5.5 0 010 1zm0 2h-10a.5.5 0 010-1h10a.5.5 0 010 1z" fill="#263238"/><g fill="#263238"><path d="M24 27c-3.86 0-7-3.141-7-7s3.14-7 7-7c1.352 0 2.663.386 3.792 1.115a.5.5 0 11-.543.839A5.975 5.975 0 0024 14c-3.309 0-6 2.691-6 6s2.691 6 6 6a6.006 6.006 0 005.701-7.877.5.5 0 01.95-.313c.231.706.349 1.442.349 2.19 0 3.859-3.14 7-7 7z"/><path d="M23.5 22.699h-.012a.503.503 0 01-.373-.18l-2.5-3a.503.503 0 01.064-.705.503.503 0 01.705.064l2.133 2.561 6.215-6.865a.5.5 0 01.736.676l-6.6 7.287a.495.495 0 01-.368.162z"/></g></svg>