<svg width="30" height="30" fill="none" xmlns="http://www.w3.org/2000/svg"><g clip-path="url(#clip0)" fill="#fff"><path d="M8.186 18.597a4.34 4.34 0 011.463 2.496h4.472V14.83a3.522 3.522 0 01-2.637-3.405h1.758c0 .97.789 1.758 1.758 1.758a1.76 1.76 0 001.758-1.758h1.758a3.522 3.522 0 01-2.637 3.405v6.263h4.473a4.4 4.4 0 011.477-2.509 10.535 10.535 0 003.718-8.038c0-9.454-11.53-14.098-18.097-7.352a10.533 10.533 0 00.736 15.403zM15 30a3.52 3.52 0 003.516-3.516h-7.032A3.52 3.52 0 0015 30zm-5.273-7.149h10.547v1.875H9.727v-1.875z"/></g><defs><clipPath id="clip0"><path fill="#fff" d="M0 0h30v30H0z"/></clipPath></defs></svg>