<svg width="28" height="28" fill="none" xmlns="http://www.w3.org/2000/svg"><path d="M10.72 1.202C10.472.828 10.309.58 10.309 0H8.668c0 1.074.379 1.647.683 2.107.247.374.41.621.41 1.202 0 .58-.163.827-.41 1.201-.304.46-.683 1.033-.683 2.107h1.64c0-.58.164-.828.412-1.202.304-.46.682-1.033.682-2.106 0-1.074-.378-1.647-.682-2.107zm-3.282 0C7.191.828 7.028.58 7.028 0H5.386c0 1.074.378 1.647.683 2.107.247.374.41.621.41 1.202 0 .58-.163.827-.41 1.201-.305.46-.683 1.033-.683 2.107h1.64c0-.58.164-.828.411-1.202.304-.46.683-1.033.683-2.106 0-1.074-.379-1.647-.683-2.107zm6.562 0C13.754.828 13.59.58 13.59 0h-1.64c0 1.074.378 1.647.682 2.107.248.374.411.621.411 1.202 0 .58-.163.827-.41 1.201-.305.46-.684 1.033-.684 2.107h1.64c0-.58.164-.828.412-1.202.304-.46.683-1.033.683-2.106 0-1.074-.38-1.647-.683-2.107zm3.282 0c-.247-.374-.41-.621-.41-1.202H15.23c0 1.074.38 1.647.683 2.107.248.374.411.621.411 1.202 0 .58-.163.827-.41 1.201-.305.46-.684 1.033-.684 2.107h1.641c0-.58.164-.828.411-1.202.304-.46.683-1.033.683-2.106 0-1.074-.379-1.647-.683-2.107zm3.281 0c-.247-.374-.41-.621-.41-1.202h-1.641c0 1.074.378 1.647.683 2.107.247.374.41.621.41 1.202 0 .58-.163.827-.41 1.201-.305.46-.683 1.033-.683 2.107h1.64c0-.58.164-.828.411-1.202.304-.46.683-1.033.683-2.106 0-1.074-.379-1.647-.683-2.107zm-4.047 7.056c-1.208 0-2.188.98-2.188 2.187v15.367a2.188 2.188 0 004.375 0V10.445c0-1.208-.98-2.187-2.187-2.187zm-12.414 0c-1.209 0-2.188.98-2.188 2.187v.82H0v1.641h1.914v12.906a2.188 2.188 0 004.375 0V10.445c0-1.208-.98-2.187-2.187-2.187zm6.398 0c-1.208 0-2.188.98-2.188 2.187v15.367a2.188 2.188 0 004.376 0V10.445c0-1.208-.98-2.187-2.188-2.187zm15.86 1.039v1.969h-1.641v-.82a2.188 2.188 0 00-4.375 0v15.367a2.187 2.187 0 104.375 0V12.905H28v-3.61h-1.64z" fill="#319F1C"/></svg>