<svg width="31" height="31" fill="none" xmlns="http://www.w3.org/2000/svg"><g clip-path="url(#clip0)" fill="#fff"><path d="M21.6 13.822a.551.551 0 00.427-.53v-2.376a.544.544 0 00-.16-.385l-7.07-7.07a.544.544 0 00-.769 0l-7.07 7.07a.544.544 0 00-.16.385v7.575c0 .3.244.544.545.544H8.43c.3 0 .544-.243.544-.544v-5.438c0-.601.487-1.088 1.088-1.088h3.263c.6 0 1.088.487 1.088 1.088v5.438c0 .3.243.544.544.544h.945a.544.544 0 00.517-.385 7.36 7.36 0 015.181-4.828z"/><path d="M9.518 26.377a1.908 1.908 0 012.303-1.862 1.94 1.94 0 011.504 1.917v1.305c0 .3.244.544.544.544h1.088c.3 0 .544-.244.544-.544v-1.212a4.18 4.18 0 00-3.708-4.21 4.084 4.084 0 00-4.45 3.998c.002 1-.747 1.844-1.74 1.961a1.904 1.904 0 01-2.067-1.897v-6.526c0-1.051.852-1.904 1.903-1.904h.272v-2.175H5.44a4.079 4.079 0 00-4.08 4.078v6.384a4.175 4.175 0 003.542 4.188 4.084 4.084 0 004.616-4.046zm3.263-7.342c.3 0 .544-.243.544-.544v-5.438h-3.263v5.438c0 .3.244.544.544.544h2.175zM7.343 1.632c-.3 0-.544.243-.544.543v3.901L8.43 4.444V2.175c0-.3-.243-.543-.543-.543h-.544zm6.301-.863L3.92 10.493a.544.544 0 00.77.77l8.954-8.955a1.088 1.088 0 011.538 0l8.955 8.954a.544.544 0 00.769-.769L15.182.77a1.088 1.088 0 00-1.538 0zm9.742 13.915a6.254 6.254 0 106.255 6.255 6.261 6.261 0 00-6.255-6.255zm0 10.877a2.995 2.995 0 01-2.991-2.99c0-1.12 1.334-4.358 2.032-5.677a1.088 1.088 0 011.919 0c.697 1.32 2.031 4.556 2.031 5.676a2.994 2.994 0 01-2.99 2.991zM12.649 31h3.528a.544.544 0 00.467-.821l-.322-.544a.544.544 0 00-.468-.267h-2.882a.544.544 0 00-.468.267l-.322.544a.544.544 0 00.467.821z"/><path d="M21.483 22.57a1.903 1.903 0 103.807 0c0-.806-1.189-3.812-1.904-5.166-.714 1.354-1.903 4.36-1.903 5.166z"/></g><defs><clipPath id="clip0"><path fill="#fff" d="M0 0h31v31H0z"/></clipPath></defs></svg>