<svg width="27" height="27" fill="none" xmlns="http://www.w3.org/2000/svg"><g clip-path="url(#clip0)" fill="#fff"><path d="M21.41 8.543V.691C20.702.261 19.894 0 19.037 0c-.857 0-1.665.26-2.373.691v7.852c.708-.43 1.516-.691 2.373-.691.857 0 1.665.26 2.373.691zm-9.492-6.961h3.164v7.963h-3.164V1.582zm0 9.545h3.164v6.328h-3.164v-6.328zm-1.582-2.584V.691C9.628.261 8.82 0 7.963 0 7.106 0 6.298.26 5.59.691v7.852c.708-.43 1.516-.691 2.373-.691.857 0 1.665.26 2.373.691zm1.582 10.494h3.164V27h-3.164v-7.963zM.844 1.582h3.164v7.963H.844V1.582zm22.148 0h3.164v7.963h-3.164V1.582zm0 17.455h3.164V27h-3.164v-7.963zm-22.148 0h3.164V27H.844v-7.963zm7.119 6.27c.954 0 1.8.438 2.373 1.186V18.53a2.952 2.952 0 00-2.373-1.186c-.955 0-1.8.438-2.373 1.186v7.963a2.952 2.952 0 012.373-1.186zm11.074 0c.955 0 1.8.438 2.373 1.186V18.53a2.952 2.952 0 00-2.373-1.186c-.954 0-1.8.438-2.373 1.186v7.963a2.952 2.952 0 012.373-1.186zm3.955-14.18h3.164v6.328h-3.164v-6.328zm-22.148 0h3.164v6.328H.844v-6.328zm9.492 5.326V10.62a2.952 2.952 0 00-2.373-1.186c-.955 0-1.8.438-2.373 1.186v5.833c.708-.43 1.516-.691 2.373-.691.857 0 1.665.26 2.373.691zm11.074 0V10.62a2.953 2.953 0 00-2.373-1.186c-.954 0-1.8.438-2.373 1.186v5.833c.708-.43 1.516-.691 2.373-.691.857 0 1.665.26 2.373.691z"/></g><defs><clipPath id="clip0"><path fill="#fff" d="M0 0h27v27H0z"/></clipPath></defs></svg>