<svg width="26" height="26" fill="none" xmlns="http://www.w3.org/2000/svg"><g clip-path="url(#clip0)" fill="#fff"><path d="M13.001 3.555l13 7.506V7.506L13.001 0 8.518 2.588V0h-5.02v5.487L.001 7.506v3.555l13-7.506zm2.509 10.207h3.722v1.973h-3.721v-1.973zm-8.741 0h3.722v7.218H6.769v-7.218z"/><path d="M2.04 11.643v9.337h3.206v-8.742h6.768v8.742h11.948v-9.337L13.001 5.315 2.039 11.643zm11.947.595h6.769v5.02h-6.769v-5.02zM0 22.503h26V26H0v-3.497z"/></g><defs><clipPath id="clip0"><path fill="#fff" d="M0 0h26v26H0z"/></clipPath></defs></svg>