<svg width="30" height="30" fill="none" xmlns="http://www.w3.org/2000/svg"><path d="M27.115 6.204L25.247.6a.879.879 0 00-.833-.6H5.586a.879.879 0 00-.834.601L2.869 6.249a.88.88 0 00.834 1.157h1.945v15.188H4.644a.879.879 0 000 1.758h1.004v4.77c0 .485.393.878.879.878h16.945a.879.879 0 00.879-.879v-4.77h1.004a.879.879 0 000-1.757h-1.004V7.406h1.947a.879.879 0 00.817-1.202zm-4.522 16.39H7.406V7.406h6.715v3.89h-1.946a.879.879 0 00-.879.88v5.648a.88.88 0 00.88.879h5.648a.879.879 0 00.879-.879v-5.648a.879.879 0 00-.88-.88h-1.945v-3.89h6.715v15.188z" fill="#319F1C"/></svg>