<svg width="30" height="30" fill="none" xmlns="http://www.w3.org/2000/svg"><g clip-path="url(#clip0)" fill="#319F1C"><path d="M30 13.189h-3.7v10.66H30v-10.66zm-26.298 0H0v10.66h3.702v-10.66zm15.33-1.05V9.208h-8.063v2.93a7.56 7.56 0 00-2.272 2.224H5.46v8.313h3.237A7.568 7.568 0 0015 26.068a7.568 7.568 0 006.303-3.393h3.238v-8.313h-3.238a7.56 7.56 0 00-2.271-2.223zM8.33 3.932v1.757h4.032V7.45h5.276V5.69h4.033V3.931H8.329z"/></g><defs><clipPath id="clip0"><path fill="#fff" d="M0 0h30v30H0z"/></clipPath></defs></svg>