<svg width="61" height="60" viewBox="0 0 61 60" fill="none" xmlns="http://www.w3.org/2000/svg">
<g clip-path="url(#clip0)">
<path d="M36.225 30C36.225 33.1714 33.6195 35.7422 30.4052 35.7422C27.191 35.7422 24.5854 33.1714 24.5854 30C24.5854 26.8286 27.191 24.2578 30.4052 24.2578C33.6195 24.2578 36.225 26.8286 36.225 30Z" fill="#016646"/>
<path d="M44.0155 19.8403C43.7358 19.0923 43.2894 18.4153 42.7095 17.8596C42.1463 17.2874 41.4605 16.847 40.702 16.571C40.0868 16.3352 39.1626 16.0546 37.4604 15.9781C35.619 15.8953 35.0669 15.8774 30.4051 15.8774C25.7429 15.8774 25.1908 15.8948 23.3498 15.9777C21.6476 16.0546 20.7229 16.3352 20.1082 16.571C19.3496 16.847 18.6634 17.2874 18.1007 17.8596C17.5207 18.4153 17.0744 19.0919 16.7942 19.8403C16.5553 20.4473 16.2709 21.3596 16.1934 23.0392C16.1094 24.8556 16.0913 25.4003 16.0913 30.0004C16.0913 34.6 16.1094 35.1447 16.1934 36.9616C16.2709 38.6411 16.5553 39.553 16.7942 40.16C17.0744 40.9084 17.5203 41.585 18.1002 42.1407C18.6634 42.7129 19.3492 43.1533 20.1077 43.4293C20.7229 43.6655 21.6476 43.9461 23.3498 44.0226C25.1908 44.1054 25.7424 44.1228 30.4046 44.1228C35.0673 44.1228 35.6194 44.1054 37.4599 44.0226C39.1621 43.9461 40.0868 43.6655 40.702 43.4293C42.2247 42.8498 43.4282 41.6624 44.0155 40.16C44.2544 39.553 44.5388 38.6411 44.6168 36.9616C44.7008 35.1447 44.7184 34.6 44.7184 30.0004C44.7184 25.4003 44.7008 24.8556 44.6168 23.0392C44.5393 21.3596 44.2549 20.4473 44.0155 19.8403ZM30.4051 38.8457C25.4533 38.8457 21.4393 34.8856 21.4393 29.9999C21.4393 25.1142 25.4533 21.1541 30.4051 21.1541C35.3564 21.1541 39.3704 25.1142 39.3704 29.9999C39.3704 34.8856 35.3564 38.8457 30.4051 38.8457ZM39.7249 22.8716C38.5678 22.8716 37.6297 21.946 37.6297 20.8044C37.6297 19.6627 38.5678 18.7371 39.7249 18.7371C40.882 18.7371 41.8201 19.6627 41.8201 20.8044C41.8196 21.946 40.882 22.8716 39.7249 22.8716Z" fill="#016646"/>
<path d="M30.4054 0C13.6155 0 0 13.434 0 30C0 46.566 13.6155 60 30.4054 60C47.1953 60 60.8108 46.566 60.8108 30C60.8108 13.434 47.1953 0 30.4054 0ZM47.7594 37.1022C47.675 38.936 47.3795 40.188 46.948 41.2839C46.041 43.5979 44.187 45.4271 41.8418 46.322C40.7315 46.7477 39.4622 47.0389 37.604 47.1227C35.7422 47.2064 35.1474 47.2266 30.4059 47.2266C25.6638 47.2266 25.0695 47.2064 23.2072 47.1227C21.3491 47.0389 20.0797 46.7477 18.9695 46.322C17.8041 45.8894 16.749 45.2115 15.8768 44.3349C14.9888 43.4747 14.3017 42.4333 13.8633 41.2839C13.4318 40.1884 13.1363 38.936 13.0518 37.1027C12.966 35.2652 12.9461 34.6783 12.9461 30C12.9461 25.3217 12.966 24.7348 13.0514 22.8978C13.1358 21.064 13.4309 19.812 13.8624 18.7161C14.3008 17.5667 14.9884 16.5253 15.8768 15.6651C16.7486 14.7885 17.8041 14.1106 18.969 13.678C20.0797 13.2523 21.3486 12.9611 23.2072 12.8773C25.0691 12.7936 25.6638 12.7734 30.4054 12.7734C35.147 12.7734 35.7418 12.7936 37.6036 12.8778C39.4622 12.9611 40.7311 13.2523 41.8418 13.6775C43.0067 14.1101 44.0622 14.7885 44.9345 15.6651C45.8225 16.5257 46.51 17.5667 46.948 18.7161C47.3799 19.812 47.675 21.064 47.7599 22.8978C47.8448 24.7348 47.8648 25.3217 47.8648 30C47.8648 34.6783 47.8448 35.2652 47.7594 37.1022Z" fill="#016646"/>
</g>
<defs>
<clipPath id="clip0">
<rect width="60.8108" height="60" rx="30" fill="white"/>
</clipPath>
</defs>
</svg>
