<svg width="61" height="60" viewBox="0 0 61 60" fill="none" xmlns="http://www.w3.org/2000/svg">
<g clip-path="url(#clip0)">
<path d="M26.4092 35.6202L36.1678 29.9998L26.4092 24.3794V35.6202Z" fill="#016646"/>
<path d="M30.146 0C13.58 0 0.145996 13.434 0.145996 30C0.145996 46.566 13.58 60 30.146 60C46.712 60 60.146 46.566 60.146 30C60.146 13.434 46.712 0 30.146 0ZM48.8914 30.0307C48.8914 30.0307 48.8914 36.1148 48.1196 39.0486C47.687 40.6544 46.4209 41.9206 44.815 42.3528C41.8812 43.125 30.146 43.125 30.146 43.125C30.146 43.125 18.4414 43.125 15.477 42.3221C13.8711 41.89 12.6049 40.6233 12.1724 39.0175C11.4001 36.1148 11.4001 30 11.4001 30C11.4001 30 11.4001 23.9163 12.1724 20.9825C12.6045 19.3767 13.9018 18.0794 15.477 17.6472C18.4108 16.875 30.146 16.875 30.146 16.875C30.146 16.875 41.8812 16.875 44.815 17.6779C46.4209 18.11 47.687 19.3767 48.1196 20.9825C48.9225 23.9163 48.8914 30.0307 48.8914 30.0307Z" fill="#016646"/>
</g>
<defs>
<clipPath id="clip0">
<rect x="0.145996" width="60" height="60" rx="30" fill="white"/>
</clipPath>
</defs>
</svg>
