<svg width="61" height="60" viewBox="0 0 61 60" fill="none" xmlns="http://www.w3.org/2000/svg">
<g clip-path="url(#clip0)">
<path d="M26.4089 35.6202L36.1675 29.9998L26.4089 24.3794V35.6202Z" fill="black"/>
<path d="M30.1458 0C13.5797 0 0.145752 13.434 0.145752 30C0.145752 46.566 13.5797 60 30.1458 60C46.7118 60 60.1458 46.566 60.1458 30C60.1458 13.434 46.7118 0 30.1458 0ZM48.8912 30.0307C48.8912 30.0307 48.8912 36.1148 48.1194 39.0486C47.6868 40.6544 46.4206 41.9206 44.8148 42.3528C41.881 43.125 30.1458 43.125 30.1458 43.125C30.1458 43.125 18.4412 43.125 15.4767 42.3221C13.8709 41.89 12.6047 40.6233 12.1721 39.0175C11.3999 36.1148 11.3999 30 11.3999 30C11.3999 30 11.3999 23.9163 12.1721 20.9825C12.6042 19.3767 13.9016 18.0794 15.4767 17.6472C18.4105 16.875 30.1458 16.875 30.1458 16.875C30.1458 16.875 41.881 16.875 44.8148 17.6779C46.4206 18.11 47.6868 19.3767 48.1194 20.9825C48.9223 23.9163 48.8912 30.0307 48.8912 30.0307Z" fill="black"/>
</g>
<defs>
<clipPath id="clip0">
<rect x="0.145752" width="60" height="60" rx="30" fill="white"/>
</clipPath>
</defs>
</svg>
