<svg width="50" height="50" fill="none" xmlns="http://www.w3.org/2000/svg"><g clip-path="url(#clip0)"><path d="M36.284 27.74l1.786-1.716a.641.641 0 00.018-.906l-1.413-1.452-2.678 2.606 1.382 1.45a.64.64 0 00.905.018z" fill="#000"/><path d="M36.324 25.991l1.343-1.306-.992-1.02-2.678 2.607 1.382 1.45a.64.64 0 00.906.018l.6-.578-.571-.599a.407.407 0 01.01-.572zM14.816.867a.64.64 0 00-.905-.018l-1.785 1.716a.641.641 0 00-.018.906l14.181 14.762 2.723-2.59L14.816.867z" fill="#000"/><path d="M14.06 3.47a.641.641 0 01.02-.905l1.23-1.184-.494-.514a.64.64 0 00-.905-.018l-1.785 1.716a.641.641 0 00-.018.906l14.181 14.762 1.021-.97L14.06 3.47z" fill="#000"/><path d="M36.525 22.55l1.166-1.12a.381.381 0 00.011-.54l-5.811-6.056a.38.38 0 00-.539-.01l-1.166 1.12 6.34 6.606z" fill="#FD6D05"/><path d="M32.714 15.693l-.823-.858a.38.38 0 00-.539-.012l-1.166 1.121 1.087 1.133 1.44-1.385zm-9.278 17.054h6.682a13.723 13.723 0 012.795-6.726l-6.38-6.65a13.728 13.728 0 01-8.513 2.565.57.57 0 00-.588.62 13.766 13.766 0 006.004 10.191z" fill="#FD6D05"/><path d="M17.526 23.347c3.819.085 7.155-.935 10.025-2.914l-1.019-1.062a13.728 13.728 0 01-8.512 2.565.57.57 0 00-.587.62c.023.265.054.528.093.79z" fill="#FD6D05"/><path d="M17.432 22.557a13.777 13.777 0 006.004 10.19h6.682l.013-.089.005-.039c-.259.074-4.082-.321-7.115-3.482a11.652 11.652 0 01-3.212-7.06.482.482 0 01.023-.195 13.84 13.84 0 01-1.812.054.571.571 0 00-.588.62z" fill="#FD6D05"/><path d="M19.977 23.255c-.075-.39-.133-.784-.168-1.179a.482.482 0 01.023-.194c-.602.057-1.215.076-1.813.054a.571.571 0 00-.587.62v.004c.02.216.05.481.094.787.204.003 1.153.052 2.45-.092zm6.163-5.209l2.702-2.596a.66.66 0 01.932.018l7.057 7.354a.66.66 0 01-.019.932l-2.702 2.597a.66.66 0 01-.932-.019l-7.057-7.354a.66.66 0 01.019-.932z" fill="#FD6D05"/><path d="M28.065 18.978a.66.66 0 01.018-.932l2.167-2.082-.476-.496a.66.66 0 00-.933-.018l-2.702 2.596a.66.66 0 00-.019.932l7.057 7.354a.66.66 0 00.933.019l.535-.515-6.58-6.858z" fill="#FD6D05"/><path d="M38.749 32.723H11.447c-3.406 0-6.167 3.69-6.167 8.24 0 4.552 2.761 8.242 6.167 8.242H38.75c3.406 0 6.167-3.69 6.167-8.241 0-4.552-2.761-8.241-6.167-8.241z" fill="#FC0"/><path d="M38.748 47.252h-27.3c-3.159 0-5.76-3.174-6.123-7.265-.436 4.94 2.448 9.218 6.123 9.218H38.75c3.405 0 6.166-3.69 6.166-8.241 0-.33-.016-.656-.044-.977-.362 4.091-2.964 7.265-6.123 7.265z" fill="#000"/><path d="M11.447 49.206c3.406 0 6.168-3.69 6.168-8.242 0-4.551-2.762-8.241-6.168-8.241s-6.167 3.69-6.167 8.241c0 4.552 2.761 8.242 6.167 8.242z" fill="#FC0"/><path d="M11.447 49.205c1.519 0 2.91-.736 3.984-1.953h-3.984c-3.159 0-5.761-3.174-6.123-7.265-.278 3.144.785 5.935 2.433 7.581 1.029 1.028 2.306 1.637 3.69 1.637z" fill="#000"/><path d="M10.816 46.41c2.02 0 3.658-2.438 3.658-5.446 0-3.007-1.638-5.445-3.658-5.445s-3.658 2.438-3.658 5.445c0 3.008 1.638 5.446 3.658 5.446z" fill="#FC0"/><path d="M10.355 43.218c.836 0 1.514-1.01 1.514-2.254s-.678-2.253-1.514-2.253-1.514 1.01-1.514 2.253c0 1.245.678 2.254 1.514 2.254z" fill="#FC0"/><path d="M7.59 36.767c-2.602 3.874-.715 10.438 3.195 10.438 2.516 0 4.39-2.84 4.39-6.178 0-5.752-4.95-8.182-7.585-4.26zm3.195 8.972c-1.586 0-2.926-2.158-2.926-4.712 0-2.555 1.34-4.714 2.926-4.714s2.926 2.159 2.926 4.713c0 2.555-1.34 4.713-2.926 4.713z" fill="#000"/><path d="M10.324 38.04c-1.26 0-2.246 1.312-2.246 2.986 0 1.675.986 2.986 2.246 2.986s2.246-1.311 2.246-2.986c0-1.674-.986-2.986-2.246-2.986zm0 4.507c-.319 0-.781-.592-.781-1.52 0-.93.462-1.522.78-1.522.32 0 .782.593.782 1.521 0 .929-.463 1.521-.781 1.521zm28.49-5.697a.732.732 0 100-1.464H34.88a.732.732 0 100 1.465h3.933zm-11.944 0h4.363a.732.732 0 100-1.464H26.87a.732.732 0 000 1.465zm-4.485-1.465h-2.002a.732.732 0 100 1.465h2.002a.732.732 0 100-1.465zm17.867 3.265H29.317a.732.732 0 100 1.465h10.935a.732.732 0 100-1.465zm-18.635 0a.732.732 0 100 1.465h4.02a.732.732 0 100-1.465h-4.02zm19.265 3.997a.732.732 0 00-.733-.732h-6.215a.732.732 0 100 1.464h6.215a.732.732 0 00.733-.732zm-19.265.733h8.522a.732.732 0 100-1.465h-8.522a.732.732 0 100 1.464zm13.475 1.799a.732.732 0 100 1.465h3.722a.732.732 0 000-1.465h-3.722zm-7.998 0h-6.71a.732.732 0 100 1.465h6.71a.732.732 0 000-1.465zm3.551 1.465h.71a.732.732 0 000-1.465h-.71a.732.732 0 100 1.465z" fill="#000"/><path d="M44.865 42.011a.732.732 0 00-.838.61c-.54 3.426-2.774 5.914-5.31 5.914h-9.421a.732.732 0 100 1.465h9.422c1.63 0 3.211-.748 4.45-2.106 1.178-1.292 1.997-3.084 2.306-5.045a.733.733 0 00-.609-.837zm-18.987 6.524h-10.67c4.149-3.554 4.13-11.48 0-15.018h23.51c2.535 0 4.768 2.488 5.31 5.914a.732.732 0 101.446-.228c-.31-1.961-1.129-3.753-2.307-5.045-1.238-1.358-2.818-2.105-4.45-2.105h-7.772a13 13 0 012.058-4.915c.26.134.55.185.86.136l.956.997a1.372 1.372 0 001.941.039l1.785-1.715a1.374 1.374 0 00.04-1.94l-.936-.975c.085-.346.036-.72-.149-1.036l.666-.64c.444-.426.459-1.13.032-1.574l-5.811-6.051a1.114 1.114 0 00-1.574-.032l-.641.615a1.382 1.382 0 00-1.21-.327L15.315.422a1.372 1.372 0 00-1.941-.04l-1.785 1.715a1.372 1.372 0 00-.04 1.941L25.22 18.275a1.38 1.38 0 00.176 1.003 13.094 13.094 0 01-6.994 1.98c-.376-.003-.79-.083-1.24.274-.447.352-.528.776-.473 1.31a14.486 14.486 0 004.615 9.21h-9.888c-.354 0-.702.035-1.045.1C4.753 33.245 2.538 42.3 6.592 47.455 7.885 49.098 9.591 50 11.416 50h14.462a.732.732 0 000-1.465zm9.934-21.346l-.722-.751 1.652-1.587.722.752-1.652 1.586zm-4.238-11.542l5.324 5.544-.383.369-5.325-5.544.384-.37zm-2.332.455l6.955 7.242-2.556 2.453-6.955-7.242 2.556-2.453zM12.669 3.09l1.652-1.587 13.437 13.992-1.652 1.587L12.669 3.09zm13.733 17.284l5.521 5.75a14.461 14.461 0 00-2.435 5.758c-4.258-.685-8.25-4.324-8.924-9.313a14.55 14.55 0 005.838-2.195zm-8.254 2.346c.238.005.682.002.958-.01a12.417 12.417 0 006.497 9.343h-1.97a13.02 13.02 0 01-5.485-9.333zm-6.732 25.815c-2.81 0-5.128-2.96-5.407-6.742-.327-4.44 2.203-8.276 5.407-8.276 2.996 0 5.434 3.369 5.434 7.51 0 4.14-2.438 7.508-5.434 7.508z" fill="#000"/></g><defs><clipPath id="clip0"><path fill="#fff" d="M0 0h50v50H0z"/></clipPath></defs></svg>