<svg width="50" height="50" fill="none" xmlns="http://www.w3.org/2000/svg"><circle cx="25" cy="25" r="25" fill="#fff"/><path d="M23.688 32.813a.938.938 0 00-1.5.75v.857a41.079 41.079 0 01-2.23-.178c-6.093-.627-8.083-2.112-8.083-2.554 0-.136.411-.772 2.41-1.437a.935.935 0 00.721-.914c0-.616-.647-1.08-1.235-.89-2.502.818-3.771 1.908-3.771 3.24 0 3.083 6.83 4.118 9.76 4.42.775.086 1.589.148 2.427.193v1.013c0 .774.888 1.208 1.5.75l2.5-1.876a.939.939 0 000-1.5l-2.5-1.874zm12.535-4.367a.937.937 0 10-.582 1.784c2.028.66 2.484 1.29 2.484 1.459 0 .553-2.571 2.097-8.935 2.629a.938.938 0 00.156 1.868C32.55 35.916 40 34.943 40 31.688c0-1.334-1.271-2.425-3.777-3.242zM25 12l8.75 3.75L25 19.5l-8.75-3.75L25 12zm1.25 9.684v7.28l7.5-3.214v-7.28l-7.5 3.214zm-2.5 0l-7.5-3.214v7.28l7.5 3.214v-7.28z" fill="#319F1C"/></svg>