<svg width="25" height="27" fill="none" xmlns="http://www.w3.org/2000/svg"><path fill-rule="evenodd" clip-rule="evenodd" d="M4.546 20.204c.476.255 1.856.79 1.923 1.039l.02 4.97c.502-.053 1.206-1.111 1.507-1.446 3.752-4.228 2.117-2.566 7.135-3.095 1.314-.141 2.52-.295 3.806-.677 1.447-.429 2.9-1.166 3.678-2.245 2.285-3.189 2.17-8.642 1.42-12.468-.455-2.338-1.748-3.96-3.946-4.958C17.584.18 12.753-.243 9.678.186c-2.928.408-6.238 1.42-7.665 4.2C.747 6.872.58 11.656 1.11 14.777c.389 2.285 1.434 4.335 3.437 5.427zm4.435-6.016C7.407 12.5 5.86 10.155 5.015 7.877c-.623-1.682.228-3.23 2.057-3.672.663-.16 1.052.175 1.42.55.328.335.663.723.945 1.119.281.388.59.837.804 1.252.91 1.756-.456 1.695-.972 2.533-.71 1.159 1.186 3.29 1.916 3.906.516.429 1.997 1.48 2.807 1.22.456-.155.684-.724 1.046-1.026.998-.837 2.103.174 2.834.67.422.295.743.55 1.152.871.409.328.797.703.75 1.286-.087 1.052-1.829 2.995-3.45 2.513-.824-.248-2.037-.891-2.76-1.327-1.79-1.058-3.263-2.184-4.583-3.584zm4-7.651c-.389-.134-.355-.663 0-.764.476-.14 1.722.275 2.077.442 1.139.556 2.083 1.467 2.499 2.687.127.382.502 1.976-.027 2.124-.523.14-.51-.329-.55-.704-.1-.931-.468-2.057-1.185-2.686-1.025-.918-2.359-.938-2.814-1.1zm.402 1.762c-.174-.12-.14-.422-.02-.563.301-.342 1.514-.134 2.264.945.369.522.864 1.91-.187 1.762-.422-.543-.067-1.253-1.005-1.796-.322-.187-.905-.24-1.052-.348zm-1.2-3.725c-.12-.181-.013-.483.201-.583.248-.134 1.434.047 1.722.114 2.339.516 4.248 2.25 5.112 4.495.174.45.79 2.908.195 3.122-.69.248-.577-.77-.644-1.212-.1-.597-.2-1.005-.368-1.561-.817-2.767-2.874-3.705-5.454-4.167-.234-.047-.623 0-.763-.208z" fill="#319F1C"/></svg>