<svg width="25" height="25" fill="none" xmlns="http://www.w3.org/2000/svg"><path fill-rule="evenodd" clip-rule="evenodd" d="M12.484 22.792a10.28 10.28 0 01-5.186-1.407 1.144 1.144 0 00-.55-.147c-.1 0-.193.014-.287.04l-3.417.938 1.192-2.62c.161-.361.121-.77-.113-1.091a10.263 10.263 0 01-1.943-6.017c0-5.681 4.622-10.304 10.304-10.304 5.681 0 10.304 4.623 10.304 10.304 0 5.682-4.623 10.304-10.304 10.304zm0-22.792C5.604 0 .002 5.601.002 12.488c0 2.419.684 4.744 1.99 6.767L.096 23.429a1.092 1.092 0 001.286 1.5l5.22-1.433a12.514 12.514 0 005.882 1.474c6.887 0 12.488-5.601 12.488-12.482C24.972 5.601 19.371 0 12.484 0z" fill="#319F1C"/><path fill-rule="evenodd" clip-rule="evenodd" d="M17.288 14.357c-.523-.314-1.206-.663-1.822-.408-.47.187-.77.931-1.079 1.306-.16.194-.348.228-.59.127-1.768-.703-3.128-1.889-4.107-3.524-.167-.247-.14-.448.06-.683.296-.348.67-.744.751-1.213.08-.469-.14-1.018-.335-1.44-.248-.53-.53-1.293-1.058-1.595-.496-.274-1.14-.12-1.582.235-.757.616-1.118 1.581-1.105 2.54 0 .267.034.535.094.803.154.63.449 1.22.777 1.776.248.422.516.83.804 1.226.951 1.293 2.13 2.412 3.497 3.249.684.415 1.42.784 2.178 1.032.857.288 1.614.576 2.539.402.965-.181 1.916-.777 2.305-1.709.113-.274.167-.583.1-.877-.127-.597-.945-.958-1.427-1.246z" fill="#319F1C"/></svg>