<svg width="28" height="24" fill="none" xmlns="http://www.w3.org/2000/svg"><path fill-rule="evenodd" clip-rule="evenodd" d="M5.385 8.64l-1.217.465-.4.152c-.417.137-.826.329-1.242.481-.529.184-1.554.553-1.554 1.233 0 .521.537.617.913.73l5.294 1.625c.93.28.68.352 1.17.064.88-.536 1.737-1.121 2.618-1.65l2.299-1.441c.232-.144.424-.28.665-.425l8.193-5.158c.216-.128.457-.312.72-.296.642.032.153.529-.087.72-.329.265-.641.585-.953.858l-2.411 2.21-.016.016-1.858 1.706c-.36.369-1.057.913-1.434 1.298l-.232.224-1.45 1.313c-.352.353-.873.761-1.185 1.082l-.24.224-.705.649c-.513.52-.785.464-.777 1.081 0 .36-.176 2.098-.208 2.515-.072.865-.096 1.682-.184 2.547-.033.272-.065.528-.065.849.721-.024 1.314-.641 1.794-1.114.153-.16.305-.328.473-.472l.128-.112.993-.97.016-.015c.249-.225.593-.625.825-.785l.89.657c.52.424 1.601 1.177 2.186 1.617l3.027 2.25c.232.161.769.377 1.138.377.256 0 .448-.12.6-.24.152-.128.256-.312.344-.497.233-.464.802-3.427.922-4.044.024-.12.064-.24.08-.337l2.25-10.588c.168-.672.257-1.377.44-2.074l.145-.657c.12-.672.537-2.234.537-2.755 0-.697-.353-1.433-1.122-1.433-.56 0-1.938.656-2.547.88l-.408.145-1.241.48-.401.152-7.344 2.836-.4.16-1.635.633c-.272.12-.552.192-.817.304L7.828 7.688l-.4.16c-.665.288-1.354.528-2.043.793z" fill="#319F1C"/></svg>