<svg width="74" height="74" fill="none" xmlns="http://www.w3.org/2000/svg"><circle cx="37" cy="37" r="32" fill="#E4E4E4"/><g filter="url(#filter0_d)"><circle cx="37" cy="37" r="25" fill="#fff"/><circle cx="37" cy="37" r="24.25" stroke="#319F1C" stroke-width="1.5"/></g><circle cx="53" cy="55" r="5" fill="#319F1C"/><path d="M46.475 41.709l-2.796-2.797c-1-.999-2.697-.6-3.097.7-.3.898-1.299 1.398-2.198 1.198-1.997-.5-4.694-3.097-5.194-5.194-.3-.9.3-1.898 1.199-2.198 1.298-.4 1.698-2.098.699-3.097l-2.797-2.797c-.799-.699-1.998-.699-2.697 0l-1.898 1.898c-1.898 1.998.2 7.292 4.895 11.987 4.695 4.695 9.989 6.893 11.987 4.895l1.897-1.898c.7-.8.7-1.998 0-2.697z" fill="#319F1C"/><defs><filter id="filter0_d" x="0" y="0" width="74" height="74" filterUnits="userSpaceOnUse" color-interpolation-filters="sRGB"><feFlood flood-opacity="0" result="BackgroundImageFix"/><feColorMatrix in="SourceAlpha" values="0 0 0 0 0 0 0 0 0 0 0 0 0 0 0 0 0 0 127 0"/><feOffset/><feGaussianBlur stdDeviation="6"/><feColorMatrix values="0 0 0 0 0.192157 0 0 0 0 0.623529 0 0 0 0 0.109804 0 0 0 1 0"/><feBlend in2="BackgroundImageFix" result="effect1_dropShadow"/><feBlend in="SourceGraphic" in2="effect1_dropShadow" result="shape"/></filter></defs></svg>