<svg width="64" height="64" xmlns="http://www.w3.org/2000/svg"><path fill="none" d="M-1-1h582v402H-1z"/><circle r="32" fill="#e97148" cy="32" cx="32"/><path fill="#fff" d="M48 50.5c-.64 0-1.28-.244-1.768-.732l-12-12a2.498 2.498 0 010-3.535 2.498 2.498 0 013.535 0l12 12A2.498 2.498 0 0148 50.5z"/><circle transform="rotate(-45.001 28.386 28.387)" fill="#e97148" cy="28.386" cx="28.386" r="10.567"/><path fill="#fff" d="M28.386 17.819c2.704 0 5.409 1.032 7.472 3.095 4.127 4.127 4.127 10.817 0 14.944-2.063 2.063-4.768 3.095-7.472 3.095s-5.409-1.032-7.472-3.095c-4.127-4.127-4.127-10.817 0-14.944a10.535 10.535 0 017.472-3.095m0-4a14.468 14.468 0 00-10.3 4.267c-5.68 5.68-5.68 14.921 0 20.601 2.751 2.751 6.409 4.267 10.3 4.267s7.549-1.515 10.3-4.267c5.68-5.68 5.68-14.921 0-20.601a14.468 14.468 0 00-10.3-4.267z"/></svg>