<svg width="64" height="64" xmlns="http://www.w3.org/2000/svg"><path fill="none" d="M-1-1h582v402H-1z"/><circle r="32" fill="#e97148" cy="31.817" cx="32"/><path opacity=".2" fill="#231F20" d="M28.962 25.343c-.417-4.794-5.418-7.146-5.63-7.242a1.063 1.063 0 00-.635-.085c-5.774.958-6.642 4.318-6.677 4.458-.048.196-.039.399.022.589 6.886 21.366 21.198 25.327 25.903 26.63.362.1.661.181.888.255a1.088 1.088 0 00.788-.046c.144-.065 3.544-1.667 4.375-6.891.037-.227 0-.463-.105-.668-.074-.144-1.853-3.528-6.784-4.724a1.066 1.066 0 00-.964.229c-1.556 1.329-3.705 2.745-4.632 2.891-6.217-3.04-9.688-8.872-9.819-9.978-.076-.622 1.348-2.806 2.987-4.582.207-.225.312-.53.283-.836z"/><path fill="#FFF" d="M28.962 23.343c-.417-4.794-5.418-7.146-5.63-7.242a1.063 1.063 0 00-.635-.085c-5.774.958-6.642 4.318-6.677 4.458-.048.196-.039.399.022.589 6.886 21.366 21.198 25.327 25.903 26.63.362.1.661.181.888.255a1.088 1.088 0 00.788-.046c.144-.065 3.544-1.667 4.375-6.891.037-.227 0-.463-.105-.668-.074-.144-1.853-3.528-6.784-4.724a1.066 1.066 0 00-.964.229c-1.556 1.329-3.705 2.745-4.632 2.891-6.217-3.04-9.688-8.872-9.819-9.978-.076-.622 1.348-2.806 2.987-4.582.207-.225.312-.53.283-.836z"/></svg>