<svg width="36" height="39" fill="none" xmlns="http://www.w3.org/2000/svg"><path d="M4.747 25.037a3.787 3.787 0 012.158-3.675c-.253-.226-.493-.46-.719-.703A.839.839 0 005 20.612l-1.852 1.711a.84.84 0 00-.047 1.188 14.88 14.88 0 001.647 1.526zm31.22 12.119l-1.653-3.903.153-.094a.84.84 0 00.276-1.155l-4.024-6.558c.8-.587 1.532-1.233 2.18-1.935a.84.84 0 00-.046-1.187L31 20.612a.841.841 0 00-1.187.047 11.04 11.04 0 01-1.3 1.193l-4.977-8.112a6.516 6.516 0 001.018-3.503c0-2.49-1.395-4.66-3.445-5.77a2.589 2.589 0 00.798-1.87A2.6 2.6 0 0019.31 0h-2.622a2.6 2.6 0 00-2.597 2.597c0 .734.307 1.397.798 1.87a6.561 6.561 0 00-3.446 5.77c0 1.287.375 2.489 1.02 3.503l-4.479 7.298a3.789 3.789 0 014.197 2.801L16.6 16.64a6.556 6.556 0 002.8 0l4.628 7.543c-1.848.602-3.898.928-6.028.928-2.017 0-3.963-.293-5.733-.836a3.784 3.784 0 01-1.882 3.794c2.35.807 4.941 1.244 7.615 1.244 2.924 0 5.75-.521 8.269-1.478l4.176 6.806a.84.84 0 001.156.277l.239-.147 2.752 3.233a.42.42 0 00.54.086l.668-.412a.42.42 0 00.167-.522zM18 14.271a4.039 4.039 0 01-4.034-4.034 4.04 4.04 0 012.773-3.832v2.403a1.26 1.26 0 002.522 0V6.405a4.04 4.04 0 012.773 3.832A4.039 4.039 0 0118 14.27zM4.94 26l-3.683 6.003a.84.84 0 00.276 1.156l.153.094-1.653 3.903a.42.42 0 00.167.522l.667.411a.419.419 0 00.54-.085l2.753-3.233.239.146a.841.841 0 001.156-.276l3.784-6.168A3.788 3.788 0 014.94 26z" fill="#319F1C"/><path d="M8.49 26.798a2.017 2.017 0 100-4.034 2.017 2.017 0 000 4.034z" fill="#319F1C"/></svg>