<svg width="36" height="44" fill="none" xmlns="http://www.w3.org/2000/svg"><path d="M12.756 34.435h2.661l-.235-.94c-.078-.312-.39-.625-.782-.625h-1.096c-1.252 0-2.426-.627-3.208-1.644l-2.427-3.365-2.973 1.252 6.73 4.852c.313.313.86.47 1.33.47zM24.26 10.174H10.175a2.28 2.28 0 00-2.191 1.565h18.47a2.28 2.28 0 00-2.192-1.565zm0-1.565c.784 0 1.566.234 2.192.704-.626-3.287-2.895-6.104-6.104-7.2v4.93h-1.565V.783C18.783.313 18.47 0 18 0h-1.565c-.47 0-.783.313-.783.783v6.26h-1.565v-4.93c-3.209 1.096-5.557 3.835-6.104 7.2.626-.47 1.408-.704 2.191-.704h14.087zM21.052 32.87h-1.096c-.39 0-.704.234-.782.626l-.157.939h2.661c.47 0 1.018-.157 1.409-.47l5.087-3.756v-1.957l-1.409-.548-2.504 3.522c-.704 1.017-1.878 1.644-3.209 1.644zm11.818-6.574c0-.313-.627-.783-1.566-.783-.939 0-1.565.47-1.565.783v7.2l3.13-4.383v-2.817zM9.391 18.47v.47a5.404 5.404 0 002.818 4.773l2.348 1.252c1.643.861 3.6.861 5.243 0l2.348-1.252c1.722-.94 2.817-2.817 2.817-4.774v-.47l1.409-.86c.078-.079.157-.157.157-.313v-2.192c0-.156-.157-.313-.392-.313-.078 0-.156 0-.156.079l-.94 1.095v-2.66H9.392v2.66l-1.017-1.017c-.157-.157-.391-.079-.47 0-.078.078-.078.156-.078.156v2.192c0 .078.078.234.157.313l1.408.86zM32.87 40.696v-3.679l-2.426 3.679h2.426z" fill="#319F1C"/><path d="M34.435 29.66v.08h-.078L24.26 43.825H36V27.47l-1.566 2.192zm0 12.6H27.47l6.965-10.408v10.409zm-6.261-10.095l-4.226 3.052c-.704.47-1.487.783-2.27.783H18v7.826h4.304l5.87-8.139v-3.522zM7.043 42.26h5.479v1.566H7.043v-1.565zm0-3.13h5.479v1.566H7.043V39.13zm12.992-7.826h1.096a2.2 2.2 0 001.878-1.017l2.27-3.13-3.522-1.33-1.174.625a6.872 6.872 0 01-6.73 0l-1.175-.626-3.443 1.409 2.191 3.052c.47.626 1.174 1.017 1.878 1.017H14.4c1.096 0 2.035.705 2.27 1.8l.547 2.035.548-2.035c.235-1.095 1.174-1.8 2.27-1.8z" fill="#319F1C"/><path d="M10.487 35.217L3.13 29.896A7.103 7.103 0 000 35.766v8.06h5.478v-6.26h1.33l-.547-2.192 1.487-.391.626 2.504h5.713v6.26h2.348V36h-3.678c-.861 0-1.644-.235-2.27-.783z" fill="#319F1C"/></svg>