<svg width="36" height="36" fill="none" xmlns="http://www.w3.org/2000/svg"><path d="M27.908 0H8.092A3.467 3.467 0 004.63 3.463v29.074A3.467 3.467 0 008.092 36h19.816a3.467 3.467 0 003.463-3.463V3.463A3.467 3.467 0 0027.908 0zM9.376 5.983c0-.582.472-1.054 1.054-1.054h15.14c.582 0 1.054.472 1.054 1.054v2.083c0 .582-.472 1.055-1.054 1.055H10.43a1.055 1.055 0 01-1.054-1.055V5.983zm3.55 23.683c0 .582-.472 1.055-1.054 1.055H10.43a1.055 1.055 0 01-1.054-1.055v-1c0-.582.472-1.054 1.054-1.054h1.442c.582 0 1.055.472 1.055 1.055v.999zm0-6.242c0 .583-.472 1.055-1.054 1.055H10.43a1.055 1.055 0 01-1.054-1.055v-.999c0-.582.472-1.055 1.054-1.055h1.442c.582 0 1.055.473 1.055 1.055v1zm6.936 6.242c0 .582-.472 1.055-1.055 1.055h-1.441a1.055 1.055 0 01-1.055-1.055v-1c0-.582.472-1.054 1.055-1.054h1.441c.583 0 1.055.472 1.055 1.055v.999zm0-6.242c0 .583-.472 1.055-1.055 1.055h-1.441a1.055 1.055 0 01-1.055-1.055v-.999c0-.582.472-1.055 1.055-1.055h1.441c.583 0 1.055.473 1.055 1.055v1zm0-6.241c0 .582-.472 1.054-1.055 1.054H10.43a1.055 1.055 0 01-1.054-1.054v-1c0-.582.472-1.054 1.054-1.054h8.377c.583 0 1.055.472 1.055 1.054v1zm6.935 12.483c0 .582-.472 1.055-1.055 1.055h-1.441a1.055 1.055 0 01-1.055-1.055v-1c0-.582.473-1.054 1.055-1.054h1.441c.583 0 1.055.472 1.055 1.055v.999zm0-6.242c0 .583-.472 1.055-1.055 1.055h-1.441a1.055 1.055 0 01-1.055-1.055v-.999c0-.582.473-1.055 1.055-1.055h1.441c.583 0 1.055.473 1.055 1.055v1zm0-6.241c0 .582-.472 1.054-1.055 1.054h-1.441a1.055 1.055 0 01-1.055-1.054v-1c0-.582.473-1.054 1.055-1.054h1.441c.583 0 1.055.472 1.055 1.054v1z" fill="#319F1C"/></svg>