<svg width="36" height="36" fill="none" xmlns="http://www.w3.org/2000/svg"><g clip-path="url(#clip0)"><path d="M35.472 21.87L29.67 6.435l-.003-.009-.002-.002a5.274 5.274 0 00-4.914-3.402 5.277 5.277 0 00-4.916 3.404 5.24 5.24 0 00-.334 1.847v6.75h-3v-6.75a5.256 5.256 0 00-5.25-5.25 5.277 5.277 0 00-4.916 3.403c0 .003 0 .006-.003.01L.528 21.864l-.001.001A8.238 8.238 0 000 24.773c0 4.55 3.702 8.25 8.25 8.25s8.25-3.7 8.25-8.25v-.75h3v.75c0 4.55 3.702 8.25 8.25 8.25s8.25-3.7 8.25-8.25a8.18 8.18 0 00-.528-2.904zM8.25 30.022a5.256 5.256 0 01-4.915-7.098 5.276 5.276 0 014.915-3.402 5.256 5.256 0 015.25 5.25 5.256 5.256 0 01-5.25 5.25zm19.5 0a5.256 5.256 0 01-5.25-5.25 5.256 5.256 0 015.25-5.25 5.276 5.276 0 014.915 3.402 5.256 5.256 0 01-4.915 7.098z" fill="#319F1C"/></g><defs><clipPath id="clip0"><path fill="#fff" d="M0 0h36v36H0z"/></clipPath></defs></svg>