<svg width="81" height="90" viewBox="0 0 81 90" fill="none" xmlns="http://www.w3.org/2000/svg">
<path d="M52.4455 73.8191C51.2659 73.8191 50.5623 72.5045 51.2166 71.523L51.2167 71.5228C53.7577 67.7146 55.0989 63.2524 55.0989 58.6273C55.0989 52.4144 52.6826 46.5651 48.2971 42.1697C43.9115 37.7744 38.0759 35.3518 31.8733 35.3518C27.2569 35.3518 22.8053 36.6965 19.0052 39.2436C18.0294 39.8969 16.7194 39.1976 16.7194 38.0232V33.0458C16.7194 30.9595 15.0281 29.2682 12.9418 29.2682C11.261 29.2682 10.519 27.1514 11.8318 26.102L41.6354 2.27843C42.3656 1.69474 43.4028 1.69474 44.133 2.27844L73.9363 26.1019C75.2492 27.1513 74.5071 29.2682 72.8263 29.2682C70.74 29.2682 69.0486 30.9595 69.0486 33.0459V71.8192C69.0486 72.9237 68.1532 73.8191 67.0486 73.8191H52.4455Z" stroke="white" stroke-opacity="0.3" stroke-width="2"/>
<path d="M37.3984 56.2187L38.2532 55.8367L37.3984 56.2187C36.8086 54.8991 35.8455 53.8014 34.6092 53.0417C33.4578 52.3344 33.0987 50.8277 33.8061 49.677C34.5134 48.5261 36.0193 48.1669 37.1703 48.8738L37.1705 48.8739C39.2472 50.1502 40.8718 52.0008 41.8647 54.2228L41.8648 54.2229C42.4156 55.4561 41.8629 56.9026 40.6296 57.4539L40.6294 57.4539C39.3964 58.0049 37.9497 57.4521 37.3984 56.2187ZM17.4225 77.606L17.4225 77.6059C15.5021 76.2048 13.8087 74.5142 12.4 72.5833L12.4 72.5832C12.2437 72.3689 11.9251 72.3399 11.7294 72.5354C11.7294 72.5355 11.7294 72.5355 11.7293 72.5355L2.19367 82.0712L2.19333 82.0715C-0.359978 84.6224 1.46976 89.0001 5.06351 89.0001C6.10586 89.0001 7.14389 88.6039 7.93515 87.8127L17.4709 78.2769C17.6661 78.0817 17.6378 77.763 17.4225 77.606ZM48.8594 59.1252C48.8594 49.2123 40.794 41.147 30.8811 41.147C20.9683 41.147 12.9029 49.2123 12.9029 59.1252C12.9029 69.0381 20.9683 77.1034 30.8811 77.1034C40.794 77.1034 48.8594 69.0381 48.8594 59.1252Z" stroke="white" stroke-opacity="0.3" stroke-width="2"/>
</svg>
