<svg width="79" height="90" viewBox="0 0 79 90" fill="none" xmlns="http://www.w3.org/2000/svg">
<path d="M54.7339 27C54.7339 27.5293 54.8984 28.0209 55.1792 28.4255L54.0905 28.0845C54.0905 28.0844 54.0904 28.0844 54.0903 28.0844C53.8806 28.0186 53.7414 27.8306 53.7414 27.6069V27C53.7414 26.7228 53.9673 26.5 54.2376 26.5C54.5079 26.5 54.7339 26.7228 54.7339 27ZM57.5228 29.483C58.7653 29.3378 59.7263 28.2794 59.7263 27C59.7263 24.8655 58.5078 23.0146 56.7338 22.1033C56.7221 20.735 55.6114 19.625 54.2376 19.625C52.8639 19.625 51.7531 20.735 51.7415 22.1033C49.9675 23.0146 48.749 24.8655 48.749 27V27.6071C48.749 29.3858 49.5893 31.0012 50.9525 32.017C49.71 32.1622 48.749 33.2206 48.749 34.5C48.749 36.4017 49.7168 38.0776 51.1804 39.0646V39.375C51.1804 40.7533 52.2956 41.875 53.6766 41.875C54.9637 41.875 56.02 40.9005 56.1576 39.6521C58.2406 38.8706 59.7263 36.8571 59.7263 34.5V33.8929C59.7263 32.1142 58.8859 30.4988 57.5228 29.483ZM53.7414 34.5C53.7414 33.9706 53.5769 33.4791 53.296 33.0745L54.3848 33.4155C54.5946 33.4813 54.7339 33.6693 54.7339 33.8931V34.5C54.7339 34.7772 54.5079 35 54.2376 35C53.9673 35 53.7414 34.7772 53.7414 34.5ZM59.0067 7.54585L59.0066 7.54584C44.4899 4.51145 30.6075 15.6936 30.6075 30.75C30.6075 45.8106 44.4944 56.9871 59.0065 53.954C59.3033 53.892 59.5965 54.121 59.5965 54.4436V79.5C59.5965 84.1669 63.3657 87.9682 68.0195 87.9998C68.3424 88.002 68.5551 88.2372 68.5721 88.4571C68.5954 88.7575 68.3627 89 68.0776 89H10.4735C5.24379 89 1 84.7491 1 79.5V6C1 3.23621 3.23419 1 5.98484 1H54.6117C57.3623 1 59.5965 3.23621 59.5965 6V7.05619C59.5965 7.37902 59.3032 7.60785 59.0067 7.54585ZM35.5999 30.75C35.5999 20.4436 43.9635 12.0625 54.2376 12.0625C64.5118 12.0625 72.8754 20.4436 72.8754 30.75C72.8754 41.0563 64.5118 49.4375 54.2376 49.4375C43.9635 49.4375 35.5999 41.0563 35.5999 30.75ZM27.3058 20.9375H14.5881C13.2071 20.9375 12.0918 22.0592 12.0918 23.4375C12.0918 24.8158 13.2071 25.9375 14.5881 25.9375H27.3058C28.6868 25.9375 29.8021 24.8158 29.8021 23.4375C29.8021 22.0592 28.6868 20.9375 27.3058 20.9375ZM27.3058 37.8125H14.5881C13.2071 37.8125 12.0918 38.9342 12.0918 40.3125C12.0918 41.6908 13.2071 42.8125 14.5881 42.8125H27.3058C28.6868 42.8125 29.8021 41.6908 29.8021 40.3125C29.8021 38.9342 28.6868 37.8125 27.3058 37.8125ZM14.5881 75.4375H46.0085C47.3894 75.4375 48.5047 74.3158 48.5047 72.9375C48.5047 71.5592 47.3894 70.4375 46.0085 70.4375H14.5881C13.2071 70.4375 12.0918 71.5592 12.0918 72.9375C12.0918 74.3158 13.2071 75.4375 14.5881 75.4375ZM14.5881 59.6875H46.0085C47.3894 59.6875 48.5047 58.5658 48.5047 57.1875C48.5047 55.8092 47.3894 54.6875 46.0085 54.6875H14.5881C13.2071 54.6875 12.0918 55.8092 12.0918 57.1875C12.0918 58.5658 13.2071 59.6875 14.5881 59.6875ZM77.5454 77.2476C77.5503 80.8425 74.6446 83.7519 71.07 83.7519C67.4975 83.7519 64.5946 80.8491 64.5946 77.2575C64.5946 71.2193 64.5927 66.7882 64.5913 63.5335C64.5895 59.318 64.5886 57.0759 64.5936 55.8713C64.5948 55.595 64.8177 55.375 65.0899 55.375H72.5662C75.1339 55.375 77.2523 57.324 77.5212 59.8305L77.5454 77.2476Z" stroke="white" stroke-opacity="0.3" stroke-width="2"/>
</svg>
