<svg width="79" height="90" viewBox="0 0 79 90" fill="none" xmlns="http://www.w3.org/2000/svg">
<path d="M42.4706 34.8572V35.6941V40.2089C42.4706 41.5156 42.733 42.5256 43.1807 43.2652L43.1808 43.2654C43.7902 44.2728 44.7573 44.8177 45.8504 44.8177C46.9315 44.8177 48.1121 44.2975 49.3641 43.05L64.3298 28.1382C67.2234 25.2549 67.2234 20.5628 64.3298 17.6795L49.3641 2.76777L49.364 2.7676C48.1122 1.51976 46.9317 1 45.8504 1C45.0302 1 44.2111 1.32307 43.5876 2.0189C42.9638 2.71516 42.4706 3.86131 42.4706 5.60887V9.70916V10.652L41.5293 10.7074C20.7579 11.9297 3.56682 27.8137 1.01232 48.5999L1.01228 48.6003C0.921877 49.3336 1.34018 50.0393 2.03534 50.3134C2.03535 50.3134 2.03536 50.3134 2.03537 50.3134L1.66858 51.2437C1.98486 51.3684 2.31421 51.4287 2.63943 51.4287C3.46313 51.4287 4.26209 51.0443 4.77089 50.3517L42.4706 34.8572ZM42.4706 34.8572L41.6467 34.7097C39.4069 34.309 37.1409 34.1063 34.8864 34.1063C22.7227 34.1063 11.1652 39.9571 3.96494 49.7597L42.4706 34.8572Z" stroke="white" stroke-opacity="0.3" stroke-width="2"/>
<path d="M76.7135 39.6867L76.7141 39.687C77.4098 39.9611 77.8282 40.6667 77.7377 41.4007L77.7377 41.401C75.1832 62.1865 57.9928 78.0704 37.2208 79.2927L36.2795 79.3481V80.291V84.3912C36.2795 86.1387 35.7861 87.2848 35.1622 87.9811C34.5386 88.677 33.7194 89.0001 32.8997 89.0001C31.8184 89.0001 30.6378 88.4803 29.3852 87.2323L14.4204 72.3214C11.5266 69.4374 11.5267 64.7451 14.4197 61.8619L29.3852 46.951L29.3852 46.951C30.638 45.7028 31.8186 45.1825 32.8997 45.1825C33.7194 45.1825 34.5386 45.5056 35.1622 46.2015C35.7861 46.8978 36.2795 48.0439 36.2795 49.7914V54.3061V55.1431L37.1034 55.2905C39.3431 55.6913 41.6092 55.8939 43.8637 55.8939C56.0273 55.8939 67.5848 50.0432 74.7843 40.2414C75.2254 39.6411 76.0182 39.4122 76.7135 39.6867Z" stroke="white" stroke-opacity="0.3" stroke-width="2"/>
</svg>
