<svg width="75" height="86" viewBox="0 0 75 86" fill="none" xmlns="http://www.w3.org/2000/svg">
<path d="M6.2495 68.876H11.25C14.8793 68.876 17.75 71.6784 17.75 75.0208V79.8319L6.2495 68.876Z" stroke="white" stroke-opacity="0.3" stroke-width="2"/>
<path d="M37.5 58.1585H38.5V57.1585V50.0137V49.0137H37.5H15H14V50.0137V57.1585V58.1585H15H37.5ZM60 43.8689H61V42.8689V35.7241V34.7241H60H15H14V35.7241V42.8689V43.8689H15H60ZM60 29.5793H61V28.5793V21.4344V20.4344H60H15H14V21.4344V28.5793V29.5793H15H60ZM7.5 1H67.5C71.1363 1 74 3.79609 74 7.14482V78.593C74 81.9417 71.1363 84.7378 67.5 84.7378H23.5V75.0206C23.5 68.5041 17.9693 63.3033 11.25 63.3033H1V7.14482C1 3.79609 3.86367 1 7.5 1Z" stroke="white" stroke-opacity="0.3" stroke-width="2"/>
</svg>
