<svg width="90" height="90" viewBox="0 0 90 90" fill="none" xmlns="http://www.w3.org/2000/svg">
<path d="M89 45C89 69.3005 69.3005 89 45 89C20.6995 89 1 69.3005 1 45C1 20.6995 20.6995 1 45 1C69.3005 1 89 20.6995 89 45Z" stroke="#4D947D" stroke-width="2"/>
<path d="M20.0021 19.5883L20.0021 19.5883C19.7294 19.8553 19.4106 19.9567 19.1956 20.0025C19.0004 20.044 18.7995 20.0566 18.6785 20.0642C18.67 20.0648 18.6618 20.0653 18.6541 20.0658C18.585 20.0702 18.536 20.0739 18.5003 20.0772C12.6987 26.2435 9.02077 34.4241 8.64033 43.4425C8.66226 43.4789 8.69509 43.5291 8.74721 43.6068L8.75948 43.6251C8.82431 43.7215 8.92533 43.8718 9.00663 44.0302C9.09166 44.1959 9.20934 44.4698 9.20719 44.8051L20.0021 19.5883ZM20.0021 19.5883C20.2703 19.3257 20.3769 19.0061 20.427 18.8185M20.0021 19.5883L20.427 18.8185M70.4276 72.3932C70.5938 72.2388 70.6041 71.9285 70.6144 71.6181C70.6245 71.3134 70.6346 71.0087 70.7922 70.8516M70.4276 72.3932L72.2492 70.5821C72.1088 70.7316 71.8131 70.7259 71.5174 70.7202C71.2263 70.7146 70.9351 70.709 70.7922 70.8516M70.4276 72.3932C63.9612 78.3985 55.3728 82.1488 45.9272 82.3792L70.4276 72.3932ZM70.7922 70.8516L70.0861 70.1435M70.7922 70.8516L70.0859 70.1436C70.086 70.1435 70.086 70.1435 70.0861 70.1435M70.0861 70.1435C70.399 69.8313 70.7863 69.7609 70.9819 69.7372C71.1805 69.7131 71.3889 69.7174 71.5182 69.72L71.5434 69.7205C71.6013 69.7216 71.6471 69.7222 71.6839 69.7223M70.0861 70.1435L71.6839 69.7223M71.6839 69.7223C77.3966 63.5622 81.0066 55.431 81.3667 46.4776C81.3388 46.4473 81.3015 46.4082 81.2511 46.3562L81.2337 46.3383C81.1419 46.2437 80.9947 46.0921 80.8744 45.9265C80.751 45.7565 80.5533 45.4372 80.5533 45.0138C80.5533 44.9688 80.5561 44.9306 80.5589 44.9025C80.5617 44.8739 80.5652 44.8495 80.5681 44.8314C80.5695 44.8227 80.5708 44.8146 80.5721 44.8074C80.5725 44.8051 80.5729 44.803 80.5732 44.8009C80.6035 44.413 80.8021 44.1301 80.9114 43.9915C81.0327 43.8376 81.1801 43.6973 81.2697 43.612L81.2868 43.5958C81.3187 43.5653 81.3451 43.5399 81.3669 43.5186C81.0085 34.5822 77.4122 26.4645 71.719 20.308C71.6627 20.3104 71.5916 20.3147 71.4994 20.321L71.4715 20.323C71.3171 20.3336 71.0882 20.3494 70.8753 20.3366C70.6971 20.3259 70.2374 20.2872 69.8844 19.935L71.6839 69.7223ZM9.19227 45.0566C9.19149 45.4064 9.05844 45.6801 8.95759 45.8468C8.86588 45.9984 8.7537 46.1349 8.69039 46.2119C8.68592 46.2174 8.68169 46.2225 8.67773 46.2273C8.659 46.2502 8.64355 46.2691 8.6302 46.2857C8.94733 55.3498 12.595 63.5818 18.3875 69.7943C18.437 69.8037 18.5081 69.8136 18.6223 69.8277L18.6482 69.8309C18.7802 69.847 18.9837 69.8719 19.1779 69.9218C19.3844 69.9749 19.6987 70.0833 19.9646 70.3458C20.281 70.6583 20.3374 71.0476 20.3541 71.2195C20.3716 71.4 20.3628 71.5877 20.3577 71.696L20.3567 71.7178C20.3561 71.7295 20.3556 71.7405 20.3552 71.7509C26.4965 77.4129 34.5813 80.9912 43.4803 81.3588C43.5039 81.3408 43.536 81.3154 43.5809 81.279L43.5983 81.2649C43.6855 81.1942 43.8368 81.0714 44.0078 80.9721C44.2036 80.8583 44.4873 80.7362 44.8414 80.7362C45.2304 80.7362 45.5288 80.9238 45.6489 81.003C45.7879 81.0947 45.9223 81.2066 46.0084 81.2784L46.0244 81.2917C46.0649 81.3254 46.0974 81.3521 46.1238 81.3735L9.19227 45.0566ZM9.19227 45.0566C9.19226 45.0567 9.19225 45.0568 9.19224 45.0568C9.19222 45.0568 9.19227 45.0554 9.19227 45.0535C9.19227 45.0545 9.19227 45.0555 9.19227 45.0566ZM20.427 18.8185C20.4765 18.6329 20.5044 18.436 20.5229 18.3059M20.427 18.8185L20.5229 18.3059M20.5229 18.3059C20.5241 18.2973 20.5253 18.289 20.5264 18.281M20.5229 18.3059L20.5264 18.281M20.5264 18.281C20.5418 18.1728 20.5528 18.102 20.5628 18.0511M20.5264 18.281L20.5628 18.0511M20.5628 18.0511C26.7447 12.4389 34.8554 8.92081 43.7676 8.62239C43.8043 8.62117 43.8721 8.63058 44.1057 8.6938C44.118 8.69712 44.1311 8.70071 44.1449 8.70449C44.332 8.7557 44.6569 8.84461 45.0021 8.84461C45.3457 8.84461 45.6677 8.75236 45.8468 8.70104C45.8602 8.69722 45.8727 8.69363 45.8844 8.69032C45.9894 8.66061 46.0552 8.64281 46.1129 8.63122C46.1392 8.62595 46.1578 8.62327 46.1706 8.62195C46.1832 8.62066 46.1883 8.62087 46.1876 8.62085C55.1555 8.90913 63.3143 12.4573 69.5168 18.1198C69.5132 18.1635 69.5079 18.2182 69.5006 18.2877C69.4997 18.2968 69.4987 18.3063 69.4977 18.3161C69.4822 18.4634 69.4574 18.6981 69.4688 18.9226C69.4801 19.1471 69.534 19.5852 69.8843 19.9349L20.5628 18.0511ZM8.60808 43.3827C8.60821 43.3827 8.6093 43.385 8.61098 43.3894C8.6088 43.3848 8.60796 43.3826 8.60808 43.3827ZM71.8876 20.3116C71.887 20.3121 71.8778 20.3114 71.8622 20.3081C71.8805 20.3095 71.8883 20.3111 71.8876 20.3116ZM81.4648 43.416C81.464 43.4169 81.4633 43.4179 81.4625 43.4189C81.4702 43.4072 81.4725 43.406 81.4648 43.416ZM71.8141 69.7175C71.8134 69.7176 71.8128 69.7177 71.8121 69.7177C71.8264 69.7146 71.8287 69.7156 71.8141 69.7175ZM18.3207 69.7781C18.3209 69.7781 18.3229 69.7787 18.3265 69.7801C18.3224 69.7789 18.3206 69.7781 18.3207 69.7781ZM69.5226 17.9742C69.5226 17.9742 69.5227 17.9743 69.5227 17.9744C69.5206 17.9607 69.5217 17.9591 69.5226 17.9742ZM20.5795 17.9817C20.5816 17.9747 20.5829 17.9716 20.583 17.9718C20.5831 17.972 20.582 17.9755 20.5795 17.9817Z" stroke="#4D947D" stroke-width="2"/>
<path d="M45 46.7165C44.0522 46.7165 43.2837 45.948 43.2837 45.0001V24.7185C43.2837 23.7707 44.0522 23.0022 45 23.0022C45.9479 23.0022 46.7164 23.7707 46.7164 24.7185V45.0001C46.7164 45.948 45.9479 46.7165 45 46.7165Z" stroke="#4D947D" stroke-width="2"/>
<path d="M59.8491 46.7166H44.9998C44.052 46.7166 43.2834 45.9481 43.2834 45.0003C43.2834 44.0524 44.052 43.2839 44.9998 43.2839H59.8491C60.7969 43.2839 61.5654 44.0525 61.5654 45.0003C61.5654 45.9481 60.7969 46.7166 59.8491 46.7166Z" stroke="#4D947D" stroke-width="2"/>
<path d="M13.491 45.3571H8.60794C8.60649 45.2378 8.60571 45.1187 8.60571 44.9996C8.60571 44.8805 8.6065 44.7614 8.60797 44.6421H13.491C13.6892 44.6421 13.8491 44.8025 13.8491 44.9996C13.8491 45.1967 13.6893 45.3571 13.491 45.3571Z" fill="#4D947D" stroke="#4D947D" stroke-width="2"/>
<path d="M19.5343 70.9727C19.3637 70.8055 19.1948 70.6366 19.0276 70.466L22.4663 67.0273C22.4663 67.0272 22.4664 67.0272 22.4665 67.0271C22.6064 66.8876 22.8329 66.8874 22.9732 67.0271C23.1131 67.1673 23.1129 67.3939 22.9732 67.5338C22.9732 67.5339 22.9731 67.5339 22.9731 67.5339L19.5343 70.9727Z" fill="#4D947D" stroke="#4D947D" stroke-width="2"/>
<path d="M44.6418 76.509C44.6418 76.3111 44.8021 76.1509 44.9999 76.1509C45.1978 76.1509 45.358 76.3111 45.358 76.509V81.392C45.2385 81.3935 45.1192 81.3943 44.9999 81.3943C44.8806 81.3943 44.7613 81.3935 44.6418 81.392V76.509Z" fill="#4D947D" stroke="#4D947D" stroke-width="2"/>
<path d="M67.5336 67.0272C67.5336 67.0272 67.5336 67.0273 67.5337 67.0273L70.9723 70.466C70.8051 70.6366 70.6362 70.8055 70.4656 70.9727L67.027 67.5341C66.8868 67.3938 66.8869 67.1669 67.0268 67.027L66.3196 66.32L67.0264 67.0274C67.1666 66.8874 67.3934 66.8874 67.5334 67.0271C67.5335 67.0271 67.5335 67.0272 67.5336 67.0272Z" fill="#4D947D" stroke="#4D947D" stroke-width="2"/>
<path d="M76.509 44.6421H81.3921C81.3935 44.7613 81.3943 44.8805 81.3943 44.9996C81.3943 45.1187 81.3935 45.2378 81.392 45.3571H76.509C76.3108 45.3571 76.1509 45.1966 76.1509 44.9996C76.1509 44.8025 76.3107 44.6421 76.509 44.6421Z" fill="#4D947D" stroke="#4D947D" stroke-width="2"/>
<path d="M67.0267 22.4667C67.0268 22.4667 67.0268 22.4666 67.0268 22.4666L70.4656 19.0278C70.6362 19.1951 70.8051 19.364 70.9723 19.5345L67.5337 22.9732C67.4633 23.0435 67.3731 23.0783 67.2801 23.0783C67.1872 23.0783 67.0971 23.0436 67.0267 22.9734C66.8868 22.8332 66.887 22.6066 67.0267 22.4667Z" fill="#4D947D" stroke="#4D947D" stroke-width="2"/>
<path d="M44.6418 13.4913V8.60822C44.7613 8.60675 44.8806 8.60596 44.9999 8.60596C45.1192 8.60596 45.2386 8.60673 45.358 8.60819V13.4913C45.358 13.6891 45.1977 13.8494 44.9999 13.8494C44.8021 13.8494 44.6418 13.6891 44.6418 13.4913Z" fill="#4D947D" stroke="#4D947D" stroke-width="2"/>
<path d="M22.7198 23.0783C22.6269 23.0783 22.5366 23.0435 22.4662 22.9732L19.0276 19.5345C19.1948 19.364 19.3637 19.1951 19.5343 19.0278L22.973 22.4665C23.1132 22.6068 23.113 22.8336 22.9731 22.9735L23.6803 23.6805L22.9734 22.9732C22.9031 23.0435 22.8128 23.0783 22.7198 23.0783Z" fill="#4D947D" stroke="#4D947D" stroke-width="2"/>
</svg>
