<svg width="81" height="90" viewBox="0 0 81 90" fill="none" xmlns="http://www.w3.org/2000/svg">
<path d="M39.1872 86.6869C33.6644 86.6869 29.1873 82.2098 29.1873 76.6869V41.0622C29.1873 35.5393 33.6644 31.0623 39.1872 31.0623H62.6246C62.9007 31.0623 63.1246 30.8384 63.1246 30.5623V14.9999C63.1246 11.4101 60.2144 8.49993 56.6246 8.49993H50.8122C50.5361 8.49993 50.3122 8.72384 50.3122 8.99992V14.6249C50.3122 18.4908 47.1782 21.6248 43.3122 21.6248H20.8124C16.9464 21.6248 13.8124 18.4908 13.8124 14.6249V8.99992C13.8124 8.72384 13.5885 8.49993 13.3124 8.49993H7.49995C3.9102 8.49993 1 11.4101 1 14.9999V82.4994C1 86.0891 3.9102 88.9993 7.49995 88.9993L7.81287 88.9994C9.81346 88.9995 21.0366 89.0003 32.2518 88.9999C38.3963 88.9997 44.5384 88.9992 49.1598 88.9981C51.4705 88.9975 53.401 88.9968 54.7614 88.9959C55.4417 88.9954 55.9793 88.9949 56.3505 88.9944C56.6115 88.994 56.7737 88.9935 56.8503 88.9934C56.8875 88.9933 56.9045 88.9933 56.903 88.9935M39.1872 86.6869L56.9027 88.9935C56.9028 88.9935 56.9029 88.9935 56.903 88.9935M39.1872 86.6869H56.8091C57.2332 86.6869 57.4928 86.837 57.658 87.0178M39.1872 86.6869L57.658 87.0178M56.903 88.9935C57.326 88.9757 57.5684 88.8159 57.7152 88.6368M56.903 88.9935L57.7152 88.6368M57.658 87.0178C57.8388 87.2156 57.9546 87.506 57.9648 87.8275M57.658 87.0178L57.9648 87.8275M57.9648 87.8275C57.9749 88.1493 57.8775 88.4386 57.7152 88.6368M57.9648 87.8275L57.7152 88.6368M37.6247 7.49993V8.49993H38.6247H44.8122C45.0883 8.49993 45.3122 8.72384 45.3122 8.99992V14.6249C45.3122 15.7295 44.4169 16.6249 43.3122 16.6249H20.8124C19.7077 16.6249 18.8124 15.7295 18.8124 14.6249V8.99992C18.8124 8.72384 19.0363 8.49993 19.3124 8.49993H25.4998H26.4998V7.49993V6.56244C26.4998 3.45146 29.0687 0.92785 32.1964 1.00158L32.22 0.00185982L32.1964 1.00158C35.2118 1.0726 37.6247 3.61999 37.6247 6.68544V7.49993ZM35.6248 8.49993H36.6248V7.49993V6.56244C36.6248 4.04517 34.5796 1.99996 32.0623 1.99996C29.545 1.99996 27.4998 4.04517 27.4998 6.56244V7.49993V8.49993H28.4998H35.6248ZM22.7676 52.0174L22.7678 52.0173C23.7439 51.0409 23.7439 49.4584 22.7678 48.482L22.7674 48.4816C21.791 47.5058 20.2087 47.5058 19.2323 48.4816L19.2321 48.4819L15.6562 52.0579L14.8927 51.2944L14.8925 51.2941C13.9161 50.3183 12.3338 50.3183 11.3574 51.2941L11.357 51.2944C10.3809 52.2709 10.3809 53.8534 11.357 54.8298L11.3571 54.8299L13.8884 57.3611L13.8886 57.3614C14.8649 58.3371 16.447 58.3374 17.4237 57.3614L17.4239 57.3611L22.7676 52.0174ZM12.0642 54.1228C11.4785 53.5369 11.4785 52.5874 12.0642 52.0014C12.6502 51.4159 13.5997 51.4159 14.1856 52.0014L12.0642 54.1228ZM22.7677 32.7051L22.7678 32.7049C23.7439 31.7285 23.7439 30.146 22.7678 29.1696L22.7674 29.1693C21.791 28.1935 20.2087 28.1935 19.2323 29.1693L19.2321 29.1695L15.6562 32.7455L14.8927 31.982L14.8925 31.9817C13.9161 31.006 12.3338 31.006 11.3574 31.9817L11.357 31.9821C10.3809 32.9585 10.3809 34.541 11.357 35.5174L11.3571 35.5175L13.8884 38.0488L13.8886 38.049C14.8649 39.0247 16.447 39.025 17.4237 38.049L17.4239 38.0488L22.7677 32.7051ZM17.9999 79.5619C21.0333 79.5619 23.4999 77.0954 23.4999 74.062V70.687C23.4999 67.6535 21.0333 65.187 17.9999 65.187H14.6249C11.5914 65.187 9.12493 67.6535 9.12493 70.687V74.062C9.12493 77.0954 11.5914 79.5619 14.6249 79.5619H17.9999ZM66.9371 36.0622H74.812C77.5734 36.0622 79.812 38.3008 79.812 41.0622V76.6869C79.812 79.4483 77.5734 81.6869 74.812 81.6869H39.1872C36.4259 81.6869 34.1873 79.4483 34.1873 76.6869V41.0622C34.1873 38.3008 36.4259 36.0622 39.1872 36.0622H47.2497C47.5258 36.0622 47.7497 36.2861 47.7497 36.5622V47.1463C47.7497 50.1839 50.2121 52.6463 53.2497 52.6463H60.9371C63.9747 52.6463 66.4371 50.1839 66.4371 47.1463V36.5622C66.4371 36.2861 66.661 36.0622 66.9371 36.0622ZM42.5622 73.7495H47.6247C49.0053 73.7495 50.1247 72.6301 50.1247 71.2495C50.1247 69.8688 49.0054 68.7495 47.6247 68.7495H42.5622C41.1816 68.7495 40.0622 69.8688 40.0622 71.2495C40.0622 72.6301 41.1816 73.7495 42.5622 73.7495ZM52.7497 47.1463V36.5622C52.7497 36.2861 52.9736 36.0622 53.2497 36.0622H60.9371C61.2132 36.0622 61.4371 36.2861 61.4371 36.5622V47.1463C61.4371 47.4224 61.2132 47.6463 60.9371 47.6463H53.2497C52.9735 47.6463 52.7497 47.4225 52.7497 47.1463Z" stroke="white" stroke-opacity="0.3" stroke-width="2"/>
</svg>
