<svg height="32" width="32" xmlns="http://www.w3.org/2000/svg"><g fill="#263238"><circle cx="7.5" cy="4.5" r=".5"/><circle cx="5.5" cy="4.5" r=".5"/><circle cx="3.5" cy="4.5" r=".5"/><path d="M30.5 7h-2a.5.5 0 010-1h2a.5.5 0 010 1zm-17 0h-12a.5.5 0 010-1h12a.5.5 0 010 1z"/><path d="M6.5 28h-4c-.827 0-1.5-.673-1.5-1.5v-23C1 2.673 1.673 2 2.5 2h11a.5.5 0 010 1h-11a.5.5 0 00-.5.5v23a.5.5 0 00.5.5h4a.5.5 0 010 1z"/><path d="M29.5 28h-24a.5.5 0 010-1h24a.5.5 0 00.5-.5v-23a.5.5 0 00-.5-.5h-1a.5.5 0 010-1h1c.827 0 1.5.673 1.5 1.5v23c0 .827-.673 1.5-1.5 1.5z"/></g><path d="M6.5 16h-3a.5.5 0 010-1h3a.5.5 0 010 1zm6-6h-9a.5.5 0 010-1h9a.5.5 0 010 1zm0 2h-9a.5.5 0 010-1h9a.5.5 0 010 1zm0 2h-9a.5.5 0 010-1h9a.5.5 0 010 1zm14 9a.494.494 0 01-.316-.113L21 18.646l-5.184 4.24A.498.498 0 0115 22.5v-17a.5.5 0 011 0v15.945l4.684-3.832a.501.501 0 01.633 0L26 21.445V2.5a.5.5 0 00-.5-.5h-9a.5.5 0 00-.5.5v.499a.5.5 0 01-1 0V2.5c0-.827.673-1.5 1.5-1.5h9c.827 0 1.5.673 1.5 1.5v20a.5.5 0 01-.5.5z" fill="#263238"/></svg>