<svg xmlns="http://www.w3.org/2000/svg" viewBox="0 0 512.001 512.001"><path d="M497.001 482h-106v-91h106a15 15 0 0012.158-23.786L439.633 271h26.368a15.001 15.001 0 0012.481-23.32L414.028 151h21.973a15 15 0 0012.036-23.952l-90-121a15.003 15.003 0 00-24.072 0l-77.964 104.819L178.037 6.048a15.001 15.001 0 00-24.072 0l-90 121A15 15 0 0076.001 151h21.973L33.52 247.68A15.001 15.001 0 0046.001 271h26.368L2.843 367.214A15 15 0 0015.001 391h106v91h-106c-8.284 0-15 6.716-15 15s6.716 15 15 15h482c8.284 0 15-6.716 15-15s-6.716-15-15-15zM277.974 151l-21.973 32.959L234.028 151h43.946zM44.347 361l69.525-96.214A15 15 0 00101.715 241H74.029l64.454-96.68A15.001 15.001 0 00126.002 121h-20.149l60.148-80.866L226.15 121h-20.149a15 15 0 00-12.481 23.32l49.921 74.881.087.13L257.973 241h-27.686a15.001 15.001 0 00-12.206 23.718L286.854 361H44.347zm136.654 121h-30v-91h30v91zm120 0h-90v-91h90v91zm-41.566-211h26.566a15.001 15.001 0 0012.481-23.32l-24.453-36.679 44.454-66.68a15 15 0 00-12.481-23.32h-20.149l60.148-80.867L406.149 121H386a15.003 15.003 0 00-13.226 7.922 15.004 15.004 0 00.745 15.398L437.973 241h-27.686a15 15 0 00-12.158 23.786L467.655 361H323.72l-64.285-90zm101.566 211h-30v-91h30v91z" fill="#e65252"/></svg>