<svg xmlns="http://www.w3.org/2000/svg" width="87.016" height="87.016"><g fill="#fff"><path d="M61.9 38.212l5.667 6.701h-9.028l1.403 1.659.658.771 14.212 16.789H52.988l-4.209 5.472h15.462v14.502h2.556V69.604h15.455L72.111 57.619h5.63l-9.349-11.047h5.832L66.54 37.49h3.573l-5.907-6.981-4.202 5.46 1.28 1.521z"/><path d="M46.031 62.688h24.787L54.556 43.472h9.035L48.602 25.754h9.336L45.621 11.197h5.732L41.889 0l-8.617 11.197h5.816L27.885 25.754h9.163L23.432 43.472h8.497L17.148 62.688h24.797v22.08H18.018v2.248h52.78v-2.248H46.031z"/><path d="M20.232 69.604v14.502h2.547V69.604h15.455l-4.627-5.472H14.055L26.053 48.54l-1.672-1.968h3.182l1.262-1.638-.021-.021h-8.466l4.029-5.246-1.839-2.177h3.518l.024-.039-5.869-6.942-5.376 6.981h3.624l-6.985 9.082h5.715L8.682 57.619h5.302l-9.22 11.985z"/></g></svg>