<svg width="30" height="30" fill="none" xmlns="http://www.w3.org/2000/svg"><path d="M28.757 20.264c-.894-1.072-1.945-1.986-2.94-2.957-.896-.875-.953-1.383-.232-2.393.787-1.102 1.634-2.162 2.428-3.26.742-1.025 1.5-2.048 1.89-3.276.247-.782.029-1.127-.773-1.263a2.473 2.473 0 00-.42-.026l-4.754-.005c-.585-.009-.91.246-1.116.765-.28.702-.568 1.402-.9 2.08-.756 1.534-1.6 3.017-2.783 4.273-.26.277-.55.627-.985.483-.546-.2-.706-1.098-.697-1.401l-.005-5.487c-.106-.784-.28-1.133-1.058-1.285h-4.937c-.66 0-.99.255-1.342.668-.203.238-.264.392.153.471.82.156 1.281.686 1.404 1.508.196 1.313.183 2.63.07 3.949-.034.385-.1.769-.253 1.128-.238.565-.624.68-1.13.332-.459-.314-.781-.758-1.096-1.204-1.184-1.673-2.13-3.478-2.9-5.374-.222-.547-.606-.88-1.187-.889a121.175 121.175 0 00-4.278.002c-.858.016-1.114.432-.765 1.21 1.554 3.455 3.282 6.814 5.54 9.874 1.158 1.57 2.488 2.957 4.207 3.939 1.948 1.114 4.044 1.449 6.253 1.346 1.034-.049 1.344-.318 1.392-1.348.032-.705.112-1.407.46-2.04.342-.622.859-.74 1.455-.354.298.194.549.44.786.7.582.637 1.143 1.293 1.747 1.908.758.771 1.655 1.227 2.784 1.134h4.369c.704-.045 1.069-.908.665-1.694-.284-.55-.657-1.04-1.052-1.514z" fill="#D9576B"/></svg>