<svg width="277" height="91" fill="none" xmlns="http://www.w3.org/2000/svg"><mask id="a" maskUnits="userSpaceOnUse" x=".691" y=".325" width="276" height="90" fill="#000"><path fill="#fff" d="M.691.325h276v90h-276z"/><path d="M61.677 28.908l5.23 28.044c.341 1.914.597 3.162.768 3.743.342 1.128.957 1.692 1.846 1.692.65 0 1.538-.36 2.666-1.077 1.401-.923 2.273-1.384 2.615-1.384.683 0 1.025.359 1.025 1.076 0 .479-.786 1.35-2.358 2.615-4.375 3.623-7.246 5.435-8.613 5.435-.855 0-1.47-.513-1.846-1.538-.24-.616-.684-2.513-1.333-5.691l-1.282-7.23c-1.128-6.152-1.914-10.68-2.358-13.586-.445-2.837-.872-5.178-1.282-7.024l-4.153 4.41c-2.187 2.29-3.64 3.981-4.358 5.075-.684 1.026-1.743 3.196-3.179 6.511-2.153 4.854-3.93 8.426-5.332 10.716-3.042 4.887-6.955 8.562-11.74 11.023-1.675.854-3.623 1.572-5.845 2.153-2.222.581-4.119.872-5.691.872-.889 0-1.333-.342-1.333-1.026 0-.752.82-1.179 2.461-1.281 1.982-.137 4.187-.77 6.614-1.897 2.46-1.128 4.477-2.427 6.05-3.897 3.178-3.008 6.374-8.562 9.587-16.662 4.102-10.357 7.57-19.961 10.408-28.814 1.675-5.127 2.512-8.289 2.512-9.485 0-1.162-.342-2.119-1.026-2.87-.649-.787-1.794-1.539-3.435-2.257-4.033-1.846-8.886-2.768-14.56-2.768-7.93 0-14.321 2.068-19.175 6.203-2.187 1.812-3.896 3.914-5.127 6.306-1.23 2.359-1.846 4.717-1.846 7.076 0 2.016.53 3.964 1.59 5.844 1.094 1.88 2.495 3.282 4.204 4.204 2.427 1.368 4.99 2.051 7.69 2.051l3.794-.051c.889 0 1.333.342 1.333 1.025 0 .957-1.657 1.436-4.973 1.436-3.008 0-5.69-.308-8.05-.923-3.349-.889-5.998-2.41-7.946-4.563-2.358-2.598-3.538-5.64-3.538-9.126 0-3.794 1.556-7.468 4.666-11.023 3.725-4.238 8.887-7.297 15.483-9.177 4.17-1.162 8.87-1.743 14.1-1.743 5.537 0 10.766.683 15.688 2.05 5.024 1.436 7.537 3.453 7.537 6.05 0 .957-.376 2.564-1.128 4.82-.171.615-.701 2.221-1.59 4.819L50.45 36.496l8.46-9.178c8.407-9.091 14.697-15.346 18.866-18.764 5.059-4.17 8.938-6.255 11.639-6.255 1.538 0 2.307.683 2.307 2.05 0 .718-.29 1.334-.872 1.846-.444.41-1.487.855-3.127 1.333a26.357 26.357 0 00-7.69 3.59c-3.966 2.597-8.563 6.8-13.792 12.612l-4.563 5.178zm53.935 4.204l-8.049 21.943-1.025 2.666c-1.231 3.145-1.846 5.657-1.846 7.537 0 .24.051 1.487.154 3.743.034 1.025.051 1.88.051 2.563 0 4.614-1.794 8.562-5.383 11.843-3.965 3.623-8.648 5.435-14.048 5.435-3.623 0-6.939-.872-9.947-2.615-2.768-1.572-4.152-3.196-4.152-4.87 0-.718.307-1.368.923-1.949.41-.342.888-.513 1.435-.513.855 0 1.829.735 2.922 2.205 1.265 1.71 2.991 3.093 5.179 4.153 1.64.82 3.4 1.23 5.28 1.23 2.666 0 5.145-.769 7.434-2.307 3.794-2.563 5.691-6.05 5.691-10.459 0-3.007-.324-5.947-.974-8.818-3.144 1.401-5.605 2.41-7.383 3.025-2.734.957-5.263 1.435-7.587 1.435-1.163 0-2.12-.273-2.872-.82-.854-.615-1.281-1.418-1.281-2.41 0-1.196.598-3.383 1.794-6.562l6.101-17.38c.615-1.675.923-2.632.923-2.872 0-.444-.222-.666-.666-.666-.41 0-1.043.256-1.897.769-1.128.684-1.829 1.025-2.102 1.025-.479 0-.718-.239-.718-.717 0-.445.752-1.111 2.256-2 4.443-2.666 7.246-3.999 8.408-3.999.991 0 1.487.376 1.487 1.128 0 .479-.479 1.812-1.436 3.999l-6.767 18.098c-1.436 3.863-2.154 6.323-2.154 7.383 0 1.333.94 2 2.82 2 1.265 0 2.974-.376 5.127-1.128 2.153-.752 3.76-1.538 4.82-2.359 1.025-.786 2.016-2.256 2.973-4.409.171-.41.735-1.709 1.692-3.897l7.69-19.226 5.127-2.204zm5.076 33.838l-2.102 5.23c-2.153 5.229-4.102 9.005-5.845 11.33-1.572 2.085-3.469 3.64-5.691 4.665-1.469.65-2.614.974-3.435.974-.512 0-.769-.239-.769-.717 0-.376.257-.633.769-.77 2.53-.717 4.58-2.358 6.153-4.921.991-1.402 2.29-4.444 3.896-9.126l10.459-30.762c.649-1.914.974-3.11.974-3.589 0-.376-.188-.564-.564-.564-.41 0-1.418.479-3.025 1.436a1.432 1.432 0 01-.717.205c-.547 0-.821-.257-.821-.77 0-.478.889-1.315 2.666-2.511 3.384-2.29 5.982-3.436 7.793-3.436.889 0 1.333.36 1.333 1.077 0 .513-.41 2.205-1.23 5.076 2.29-1.812 4.153-3.179 5.588-4.102 2.632-1.606 5.195-2.41 7.691-2.41 2.016 0 3.64.633 4.87 1.898 1.47 1.538 2.205 3.469 2.205 5.793 0 3.52-1.248 7.588-3.743 12.202-3.247 6.05-7.229 10.476-11.946 13.279-3.213 1.914-6.186 2.871-8.921 2.871-2.05 0-3.913-.786-5.588-2.358zm19.431-29.993c-2.461 0-5.127 1.47-7.998 4.41-3.555 3.622-6.135 8.476-7.742 14.56-.546 1.982-.82 3.725-.82 5.23 0 1.332.308 2.426.923 3.28.854 1.197 2.136 1.795 3.845 1.795 2.188 0 4.375-.82 6.563-2.461 2.221-1.64 4.238-3.93 6.049-6.87 2.872-4.751 4.307-9.314 4.307-13.69 0-1.947-.478-3.485-1.435-4.613-.923-1.094-2.154-1.641-3.692-1.641zm34.556-4.204c3.247 0 5.981 1.128 8.203 3.384 2.187 2.221 3.281 5.11 3.281 8.664 0 2.905-.701 5.896-2.102 8.972-1.367 3.042-3.298 5.828-5.793 8.357-4.512 4.683-9.263 7.024-14.253 7.024-3.35 0-6.067-1.213-8.152-3.64-1.88-2.187-2.82-4.905-2.82-8.152 0-3.076.684-6.203 2.051-9.382 1.367-3.213 3.23-6.016 5.588-8.408 4.478-4.546 9.143-6.82 13.997-6.82zm-2.051 2.871c-2.529 0-4.905 1.077-7.126 3.23-2.188 2.12-3.914 4.717-5.179 7.793-1.264 3.076-1.897 6.22-1.897 9.434 0 3.28.923 5.878 2.769 7.792 1.504 1.504 3.264 2.256 5.281 2.256 3.007 0 5.793-1.589 8.357-4.768 3.896-4.819 5.844-10.117 5.844-15.893 0-3.145-.888-5.674-2.666-7.588-1.401-1.504-3.195-2.256-5.383-2.256zm21.174 31.326l-2.102 5.23c-2.153 5.229-4.101 9.005-5.844 11.33-1.573 2.085-3.47 3.64-5.691 4.665-1.47.65-2.615.974-3.435.974-.513 0-.769-.239-.769-.717 0-.376.256-.633.769-.77 2.529-.717 4.58-2.358 6.152-4.921.991-1.402 2.29-4.444 3.896-9.126l10.459-30.762c.65-1.914.975-3.11.975-3.589 0-.376-.188-.564-.564-.564-.411 0-1.419.479-3.025 1.436-.24.136-.479.205-.718.205-.547 0-.82-.257-.82-.77 0-.478.888-1.315 2.666-2.511 3.383-2.29 5.981-3.436 7.793-3.436.888 0 1.333.36 1.333 1.077 0 .513-.411 2.205-1.231 5.076 2.29-1.812 4.153-3.179 5.588-4.102 2.632-1.606 5.196-2.41 7.691-2.41 2.017 0 3.64.633 4.871 1.898 1.469 1.538 2.204 3.469 2.204 5.793 0 3.52-1.247 7.588-3.743 12.202-3.247 6.05-7.229 10.476-11.945 13.279-3.213 1.914-6.187 2.871-8.921 2.871-2.051 0-3.914-.786-5.589-2.358zm19.431-29.993c-2.46 0-5.126 1.47-7.998 4.41-3.554 3.622-6.135 8.476-7.741 14.56-.547 1.982-.821 3.725-.821 5.23 0 1.332.308 2.426.923 3.28.855 1.197 2.137 1.795 3.846 1.795 2.187 0 4.374-.82 6.562-2.461 2.222-1.64 4.238-3.93 6.05-6.87 2.871-4.751 4.306-9.314 4.306-13.69 0-1.947-.478-3.485-1.435-4.613-.923-1.094-2.153-1.641-3.692-1.641zm43.99 2.871c2.563-1.64 4.631-2.888 6.203-3.743 3.077-1.709 5.674-2.563 7.793-2.563 1.265 0 2.239.376 2.923 1.128.752.82 1.128 1.863 1.128 3.127 0 1.641-.872 4.478-2.615 8.511l-5.691 13.279c-.889 2.119-1.333 3.384-1.333 3.794 0 .718.359 1.077 1.077 1.077.752 0 1.777-.36 3.076-1.077.82-.444 1.367-.667 1.64-.667.513 0 .769.257.769.77 0 .615-.512 1.23-1.538 1.845-4.238 2.598-7.365 3.897-9.382 3.897-1.162 0-1.743-.376-1.743-1.128 0-.376.102-.838.307-1.385.103-.273.342-.957.718-2.05.205-.582.376-1.06.513-1.436l7.229-19.175c.684-1.777 1.025-3.23 1.025-4.358 0-1.367-.564-2.05-1.692-2.05-.888 0-2.119.358-3.691 1.076a23.346 23.346 0 00-4.409 2.512c-2.153 1.607-3.794 3.453-4.922 5.537-.649 1.265-1.401 3.008-2.256 5.23l-6.101 15.945-4.563 1.538 8.46-25.737c.683-2.051 1.025-3.435 1.025-4.153 0-.991-.479-1.487-1.436-1.487-1.23 0-3.127.666-5.691 2-2.905 1.538-5.058 3.503-6.459 5.895-.787 1.3-1.641 3.196-2.564 5.691l-6.46 16.868-4.614 1.487 8.511-25.686c.752-2.222 1.127-3.606 1.127-4.153 0-.444-.187-.666-.563-.666-.445 0-1.06.239-1.846.717-.684.41-1.179.615-1.487.615-.547 0-.82-.29-.82-.871 0-.718 1.418-1.88 4.255-3.486 3.213-1.778 5.349-2.666 6.409-2.666 1.094 0 1.64.427 1.64 1.281 0 .479-.222 1.282-.666 2.41a40.6 40.6 0 00-1.128 2.82c6.392-4.41 11.501-6.614 15.33-6.614 1.059 0 1.879.274 2.46.82.547.445.821.992.821 1.641 0 .273-.257 1.487-.769 3.64z"/></mask><path d="M61.677 28.908l5.23 28.044c.341 1.914.597 3.162.768 3.743.342 1.128.957 1.692 1.846 1.692.65 0 1.538-.36 2.666-1.077 1.401-.923 2.273-1.384 2.615-1.384.683 0 1.025.359 1.025 1.076 0 .479-.786 1.35-2.358 2.615-4.375 3.623-7.246 5.435-8.613 5.435-.855 0-1.47-.513-1.846-1.538-.24-.616-.684-2.513-1.333-5.691l-1.282-7.23c-1.128-6.152-1.914-10.68-2.358-13.586-.445-2.837-.872-5.178-1.282-7.024l-4.153 4.41c-2.187 2.29-3.64 3.981-4.358 5.075-.684 1.026-1.743 3.196-3.179 6.511-2.153 4.854-3.93 8.426-5.332 10.716-3.042 4.887-6.955 8.562-11.74 11.023-1.675.854-3.623 1.572-5.845 2.153-2.222.581-4.119.872-5.691.872-.889 0-1.333-.342-1.333-1.026 0-.752.82-1.179 2.461-1.281 1.982-.137 4.187-.77 6.614-1.897 2.46-1.128 4.477-2.427 6.05-3.897 3.178-3.008 6.374-8.562 9.587-16.662 4.102-10.357 7.57-19.961 10.408-28.814 1.675-5.127 2.512-8.289 2.512-9.485 0-1.162-.342-2.119-1.026-2.87-.649-.787-1.794-1.539-3.435-2.257-4.033-1.846-8.886-2.768-14.56-2.768-7.93 0-14.321 2.068-19.175 6.203-2.187 1.812-3.896 3.914-5.127 6.306-1.23 2.359-1.846 4.717-1.846 7.076 0 2.016.53 3.964 1.59 5.844 1.094 1.88 2.495 3.282 4.204 4.204 2.427 1.368 4.99 2.051 7.69 2.051l3.794-.051c.889 0 1.333.342 1.333 1.025 0 .957-1.657 1.436-4.973 1.436-3.008 0-5.69-.308-8.05-.923-3.349-.889-5.998-2.41-7.946-4.563-2.358-2.598-3.538-5.64-3.538-9.126 0-3.794 1.556-7.468 4.666-11.023 3.725-4.238 8.887-7.297 15.483-9.177 4.17-1.162 8.87-1.743 14.1-1.743 5.537 0 10.766.683 15.688 2.05 5.024 1.436 7.537 3.453 7.537 6.05 0 .957-.376 2.564-1.128 4.82-.171.615-.701 2.221-1.59 4.819L50.45 36.496l8.46-9.178c8.407-9.091 14.697-15.346 18.866-18.764 5.059-4.17 8.938-6.255 11.639-6.255 1.538 0 2.307.683 2.307 2.05 0 .718-.29 1.334-.872 1.846-.444.41-1.487.855-3.127 1.333a26.357 26.357 0 00-7.69 3.59c-3.966 2.597-8.563 6.8-13.792 12.612l-4.563 5.178zm53.935 4.204l-8.049 21.943-1.025 2.666c-1.231 3.145-1.846 5.657-1.846 7.537 0 .24.051 1.487.154 3.743.034 1.025.051 1.88.051 2.563 0 4.614-1.794 8.562-5.383 11.843-3.965 3.623-8.648 5.435-14.048 5.435-3.623 0-6.939-.872-9.947-2.615-2.768-1.572-4.152-3.196-4.152-4.87 0-.718.307-1.368.923-1.949.41-.342.888-.513 1.435-.513.855 0 1.829.735 2.922 2.205 1.265 1.71 2.991 3.093 5.179 4.153 1.64.82 3.4 1.23 5.28 1.23 2.666 0 5.145-.769 7.434-2.307 3.794-2.563 5.691-6.05 5.691-10.459 0-3.007-.324-5.947-.974-8.818-3.144 1.401-5.605 2.41-7.383 3.025-2.734.957-5.263 1.435-7.587 1.435-1.163 0-2.12-.273-2.872-.82-.854-.615-1.281-1.418-1.281-2.41 0-1.196.598-3.383 1.794-6.562l6.101-17.38c.615-1.675.923-2.632.923-2.872 0-.444-.222-.666-.666-.666-.41 0-1.043.256-1.897.769-1.128.684-1.829 1.025-2.102 1.025-.479 0-.718-.239-.718-.717 0-.445.752-1.111 2.256-2 4.443-2.666 7.246-3.999 8.408-3.999.991 0 1.487.376 1.487 1.128 0 .479-.479 1.812-1.436 3.999l-6.767 18.098c-1.436 3.863-2.154 6.323-2.154 7.383 0 1.333.94 2 2.82 2 1.265 0 2.974-.376 5.127-1.128 2.153-.752 3.76-1.538 4.82-2.359 1.025-.786 2.016-2.256 2.973-4.409.171-.41.735-1.709 1.692-3.897l7.69-19.226 5.127-2.204zm5.076 33.838l-2.102 5.23c-2.153 5.229-4.102 9.005-5.845 11.33-1.572 2.085-3.469 3.64-5.691 4.665-1.469.65-2.614.974-3.435.974-.512 0-.769-.239-.769-.717 0-.376.257-.633.769-.77 2.53-.717 4.58-2.358 6.153-4.921.991-1.402 2.29-4.444 3.896-9.126l10.459-30.762c.649-1.914.974-3.11.974-3.589 0-.376-.188-.564-.564-.564-.41 0-1.418.479-3.025 1.436a1.432 1.432 0 01-.717.205c-.547 0-.821-.257-.821-.77 0-.478.889-1.315 2.666-2.511 3.384-2.29 5.982-3.436 7.793-3.436.889 0 1.333.36 1.333 1.077 0 .513-.41 2.205-1.23 5.076 2.29-1.812 4.153-3.179 5.588-4.102 2.632-1.606 5.195-2.41 7.691-2.41 2.016 0 3.64.633 4.87 1.898 1.47 1.538 2.205 3.469 2.205 5.793 0 3.52-1.248 7.588-3.743 12.202-3.247 6.05-7.229 10.476-11.946 13.279-3.213 1.914-6.186 2.871-8.921 2.871-2.05 0-3.913-.786-5.588-2.358zm19.431-29.993c-2.461 0-5.127 1.47-7.998 4.41-3.555 3.622-6.135 8.476-7.742 14.56-.546 1.982-.82 3.725-.82 5.23 0 1.332.308 2.426.923 3.28.854 1.197 2.136 1.795 3.845 1.795 2.188 0 4.375-.82 6.563-2.461 2.221-1.64 4.238-3.93 6.049-6.87 2.872-4.751 4.307-9.314 4.307-13.69 0-1.947-.478-3.485-1.435-4.613-.923-1.094-2.154-1.641-3.692-1.641zm34.556-4.204c3.247 0 5.981 1.128 8.203 3.384 2.187 2.221 3.281 5.11 3.281 8.664 0 2.905-.701 5.896-2.102 8.972-1.367 3.042-3.298 5.828-5.793 8.357-4.512 4.683-9.263 7.024-14.253 7.024-3.35 0-6.067-1.213-8.152-3.64-1.88-2.187-2.82-4.905-2.82-8.152 0-3.076.684-6.203 2.051-9.382 1.367-3.213 3.23-6.016 5.588-8.408 4.478-4.546 9.143-6.82 13.997-6.82zm-2.051 2.871c-2.529 0-4.905 1.077-7.126 3.23-2.188 2.12-3.914 4.717-5.179 7.793-1.264 3.076-1.897 6.22-1.897 9.434 0 3.28.923 5.878 2.769 7.792 1.504 1.504 3.264 2.256 5.281 2.256 3.007 0 5.793-1.589 8.357-4.768 3.896-4.819 5.844-10.117 5.844-15.893 0-3.145-.888-5.674-2.666-7.588-1.401-1.504-3.195-2.256-5.383-2.256zm21.174 31.326l-2.102 5.23c-2.153 5.229-4.101 9.005-5.844 11.33-1.573 2.085-3.47 3.64-5.691 4.665-1.47.65-2.615.974-3.435.974-.513 0-.769-.239-.769-.717 0-.376.256-.633.769-.77 2.529-.717 4.58-2.358 6.152-4.921.991-1.402 2.29-4.444 3.896-9.126l10.459-30.762c.65-1.914.975-3.11.975-3.589 0-.376-.188-.564-.564-.564-.411 0-1.419.479-3.025 1.436-.24.136-.479.205-.718.205-.547 0-.82-.257-.82-.77 0-.478.888-1.315 2.666-2.511 3.383-2.29 5.981-3.436 7.793-3.436.888 0 1.333.36 1.333 1.077 0 .513-.411 2.205-1.231 5.076 2.29-1.812 4.153-3.179 5.588-4.102 2.632-1.606 5.196-2.41 7.691-2.41 2.017 0 3.64.633 4.871 1.898 1.469 1.538 2.204 3.469 2.204 5.793 0 3.52-1.247 7.588-3.743 12.202-3.247 6.05-7.229 10.476-11.945 13.279-3.213 1.914-6.187 2.871-8.921 2.871-2.051 0-3.914-.786-5.589-2.358zm19.431-29.993c-2.46 0-5.126 1.47-7.998 4.41-3.554 3.622-6.135 8.476-7.741 14.56-.547 1.982-.821 3.725-.821 5.23 0 1.332.308 2.426.923 3.28.855 1.197 2.137 1.795 3.846 1.795 2.187 0 4.374-.82 6.562-2.461 2.222-1.64 4.238-3.93 6.05-6.87 2.871-4.751 4.306-9.314 4.306-13.69 0-1.947-.478-3.485-1.435-4.613-.923-1.094-2.153-1.641-3.692-1.641zm43.99 2.871c2.563-1.64 4.631-2.888 6.203-3.743 3.077-1.709 5.674-2.563 7.793-2.563 1.265 0 2.239.376 2.923 1.128.752.82 1.128 1.863 1.128 3.127 0 1.641-.872 4.478-2.615 8.511l-5.691 13.279c-.889 2.119-1.333 3.384-1.333 3.794 0 .718.359 1.077 1.077 1.077.752 0 1.777-.36 3.076-1.077.82-.444 1.367-.667 1.64-.667.513 0 .769.257.769.77 0 .615-.512 1.23-1.538 1.845-4.238 2.598-7.365 3.897-9.382 3.897-1.162 0-1.743-.376-1.743-1.128 0-.376.102-.838.307-1.385.103-.273.342-.957.718-2.05.205-.582.376-1.06.513-1.436l7.229-19.175c.684-1.777 1.025-3.23 1.025-4.358 0-1.367-.564-2.05-1.692-2.05-.888 0-2.119.358-3.691 1.076a23.346 23.346 0 00-4.409 2.512c-2.153 1.607-3.794 3.453-4.922 5.537-.649 1.265-1.401 3.008-2.256 5.23l-6.101 15.945-4.563 1.538 8.46-25.737c.683-2.051 1.025-3.435 1.025-4.153 0-.991-.479-1.487-1.436-1.487-1.23 0-3.127.666-5.691 2-2.905 1.538-5.058 3.503-6.459 5.895-.787 1.3-1.641 3.196-2.564 5.691l-6.46 16.868-4.614 1.487 8.511-25.686c.752-2.222 1.127-3.606 1.127-4.153 0-.444-.187-.666-.563-.666-.445 0-1.06.239-1.846.717-.684.41-1.179.615-1.487.615-.547 0-.82-.29-.82-.871 0-.718 1.418-1.88 4.255-3.486 3.213-1.778 5.349-2.666 6.409-2.666 1.094 0 1.64.427 1.64 1.281 0 .479-.222 1.282-.666 2.41a40.6 40.6 0 00-1.128 2.82c6.392-4.41 11.501-6.614 15.33-6.614 1.059 0 1.879.274 2.46.82.547.445.821.992.821 1.641 0 .273-.257 1.487-.769 3.64z" fill="#fff"/><path d="M61.677 28.908l5.23 28.044c.341 1.914.597 3.162.768 3.743.342 1.128.957 1.692 1.846 1.692.65 0 1.538-.36 2.666-1.077 1.401-.923 2.273-1.384 2.615-1.384.683 0 1.025.359 1.025 1.076 0 .479-.786 1.35-2.358 2.615-4.375 3.623-7.246 5.435-8.613 5.435-.855 0-1.47-.513-1.846-1.538-.24-.616-.684-2.513-1.333-5.691l-1.282-7.23c-1.128-6.152-1.914-10.68-2.358-13.586-.445-2.837-.872-5.178-1.282-7.024l-4.153 4.41c-2.187 2.29-3.64 3.981-4.358 5.075-.684 1.026-1.743 3.196-3.179 6.511-2.153 4.854-3.93 8.426-5.332 10.716-3.042 4.887-6.955 8.562-11.74 11.023-1.675.854-3.623 1.572-5.845 2.153-2.222.581-4.119.872-5.691.872-.889 0-1.333-.342-1.333-1.026 0-.752.82-1.179 2.461-1.281 1.982-.137 4.187-.77 6.614-1.897 2.46-1.128 4.477-2.427 6.05-3.897 3.178-3.008 6.374-8.562 9.587-16.662 4.102-10.357 7.57-19.961 10.408-28.814 1.675-5.127 2.512-8.289 2.512-9.485 0-1.162-.342-2.119-1.026-2.87-.649-.787-1.794-1.539-3.435-2.257-4.033-1.846-8.886-2.768-14.56-2.768-7.93 0-14.321 2.068-19.175 6.203-2.187 1.812-3.896 3.914-5.127 6.306-1.23 2.359-1.846 4.717-1.846 7.076 0 2.016.53 3.964 1.59 5.844 1.094 1.88 2.495 3.282 4.204 4.204 2.427 1.368 4.99 2.051 7.69 2.051l3.794-.051c.889 0 1.333.342 1.333 1.025 0 .957-1.657 1.436-4.973 1.436-3.008 0-5.69-.308-8.05-.923-3.349-.889-5.998-2.41-7.946-4.563-2.358-2.598-3.538-5.64-3.538-9.126 0-3.794 1.556-7.468 4.666-11.023 3.725-4.238 8.887-7.297 15.483-9.177 4.17-1.162 8.87-1.743 14.1-1.743 5.537 0 10.766.683 15.688 2.05 5.024 1.436 7.537 3.453 7.537 6.05 0 .957-.376 2.564-1.128 4.82-.171.615-.701 2.221-1.59 4.819L50.45 36.496l8.46-9.178c8.407-9.091 14.697-15.346 18.866-18.764 5.059-4.17 8.938-6.255 11.639-6.255 1.538 0 2.307.683 2.307 2.05 0 .718-.29 1.334-.872 1.846-.444.41-1.487.855-3.127 1.333a26.357 26.357 0 00-7.69 3.59c-3.966 2.597-8.563 6.8-13.792 12.612l-4.563 5.178zm53.935 4.204l-8.049 21.943-1.025 2.666c-1.231 3.145-1.846 5.657-1.846 7.537 0 .24.051 1.487.154 3.743.034 1.025.051 1.88.051 2.563 0 4.614-1.794 8.562-5.383 11.843-3.965 3.623-8.648 5.435-14.048 5.435-3.623 0-6.939-.872-9.947-2.615-2.768-1.572-4.152-3.196-4.152-4.87 0-.718.307-1.368.923-1.949.41-.342.888-.513 1.435-.513.855 0 1.829.735 2.922 2.205 1.265 1.71 2.991 3.093 5.179 4.153 1.64.82 3.4 1.23 5.28 1.23 2.666 0 5.145-.769 7.434-2.307 3.794-2.563 5.691-6.05 5.691-10.459 0-3.007-.324-5.947-.974-8.818-3.144 1.401-5.605 2.41-7.383 3.025-2.734.957-5.263 1.435-7.587 1.435-1.163 0-2.12-.273-2.872-.82-.854-.615-1.281-1.418-1.281-2.41 0-1.196.598-3.383 1.794-6.562l6.101-17.38c.615-1.675.923-2.632.923-2.872 0-.444-.222-.666-.666-.666-.41 0-1.043.256-1.897.769-1.128.684-1.829 1.025-2.102 1.025-.479 0-.718-.239-.718-.717 0-.445.752-1.111 2.256-2 4.443-2.666 7.246-3.999 8.408-3.999.991 0 1.487.376 1.487 1.128 0 .479-.479 1.812-1.436 3.999l-6.767 18.098c-1.436 3.863-2.154 6.323-2.154 7.383 0 1.333.94 2 2.82 2 1.265 0 2.974-.376 5.127-1.128 2.153-.752 3.76-1.538 4.82-2.359 1.025-.786 2.016-2.256 2.973-4.409.171-.41.735-1.709 1.692-3.897l7.69-19.226 5.127-2.204zm5.076 33.838l-2.102 5.23c-2.153 5.229-4.102 9.005-5.845 11.33-1.572 2.085-3.469 3.64-5.691 4.665-1.469.65-2.614.974-3.435.974-.512 0-.769-.239-.769-.717 0-.376.257-.633.769-.77 2.53-.717 4.58-2.358 6.153-4.921.991-1.402 2.29-4.444 3.896-9.126l10.459-30.762c.649-1.914.974-3.11.974-3.589 0-.376-.188-.564-.564-.564-.41 0-1.418.479-3.025 1.436a1.432 1.432 0 01-.717.205c-.547 0-.821-.257-.821-.77 0-.478.889-1.315 2.666-2.511 3.384-2.29 5.982-3.436 7.793-3.436.889 0 1.333.36 1.333 1.077 0 .513-.41 2.205-1.23 5.076 2.29-1.812 4.153-3.179 5.588-4.102 2.632-1.606 5.195-2.41 7.691-2.41 2.016 0 3.64.633 4.87 1.898 1.47 1.538 2.205 3.469 2.205 5.793 0 3.52-1.248 7.588-3.743 12.202-3.247 6.05-7.229 10.476-11.946 13.279-3.213 1.914-6.186 2.871-8.921 2.871-2.05 0-3.913-.786-5.588-2.358zm19.431-29.993c-2.461 0-5.127 1.47-7.998 4.41-3.555 3.622-6.135 8.476-7.742 14.56-.546 1.982-.82 3.725-.82 5.23 0 1.332.308 2.426.923 3.28.854 1.197 2.136 1.795 3.845 1.795 2.188 0 4.375-.82 6.563-2.461 2.221-1.64 4.238-3.93 6.049-6.87 2.872-4.751 4.307-9.314 4.307-13.69 0-1.947-.478-3.485-1.435-4.613-.923-1.094-2.154-1.641-3.692-1.641zm34.556-4.204c3.247 0 5.981 1.128 8.203 3.384 2.187 2.221 3.281 5.11 3.281 8.664 0 2.905-.701 5.896-2.102 8.972-1.367 3.042-3.298 5.828-5.793 8.357-4.512 4.683-9.263 7.024-14.253 7.024-3.35 0-6.067-1.213-8.152-3.64-1.88-2.187-2.82-4.905-2.82-8.152 0-3.076.684-6.203 2.051-9.382 1.367-3.213 3.23-6.016 5.588-8.408 4.478-4.546 9.143-6.82 13.997-6.82zm-2.051 2.871c-2.529 0-4.905 1.077-7.126 3.23-2.188 2.12-3.914 4.717-5.179 7.793-1.264 3.076-1.897 6.22-1.897 9.434 0 3.28.923 5.878 2.769 7.792 1.504 1.504 3.264 2.256 5.281 2.256 3.007 0 5.793-1.589 8.357-4.768 3.896-4.819 5.844-10.117 5.844-15.893 0-3.145-.888-5.674-2.666-7.588-1.401-1.504-3.195-2.256-5.383-2.256zm21.174 31.326l-2.102 5.23c-2.153 5.229-4.101 9.005-5.844 11.33-1.573 2.085-3.47 3.64-5.691 4.665-1.47.65-2.615.974-3.435.974-.513 0-.769-.239-.769-.717 0-.376.256-.633.769-.77 2.529-.717 4.58-2.358 6.152-4.921.991-1.402 2.29-4.444 3.896-9.126l10.459-30.762c.65-1.914.975-3.11.975-3.589 0-.376-.188-.564-.564-.564-.411 0-1.419.479-3.025 1.436-.24.136-.479.205-.718.205-.547 0-.82-.257-.82-.77 0-.478.888-1.315 2.666-2.511 3.383-2.29 5.981-3.436 7.793-3.436.888 0 1.333.36 1.333 1.077 0 .513-.411 2.205-1.231 5.076 2.29-1.812 4.153-3.179 5.588-4.102 2.632-1.606 5.196-2.41 7.691-2.41 2.017 0 3.64.633 4.871 1.898 1.469 1.538 2.204 3.469 2.204 5.793 0 3.52-1.247 7.588-3.743 12.202-3.247 6.05-7.229 10.476-11.945 13.279-3.213 1.914-6.187 2.871-8.921 2.871-2.051 0-3.914-.786-5.589-2.358zm19.431-29.993c-2.46 0-5.126 1.47-7.998 4.41-3.554 3.622-6.135 8.476-7.741 14.56-.547 1.982-.821 3.725-.821 5.23 0 1.332.308 2.426.923 3.28.855 1.197 2.137 1.795 3.846 1.795 2.187 0 4.374-.82 6.562-2.461 2.222-1.64 4.238-3.93 6.05-6.87 2.871-4.751 4.306-9.314 4.306-13.69 0-1.947-.478-3.485-1.435-4.613-.923-1.094-2.153-1.641-3.692-1.641zm43.99 2.871c2.563-1.64 4.631-2.888 6.203-3.743 3.077-1.709 5.674-2.563 7.793-2.563 1.265 0 2.239.376 2.923 1.128.752.82 1.128 1.863 1.128 3.127 0 1.641-.872 4.478-2.615 8.511l-5.691 13.279c-.889 2.119-1.333 3.384-1.333 3.794 0 .718.359 1.077 1.077 1.077.752 0 1.777-.36 3.076-1.077.82-.444 1.367-.667 1.64-.667.513 0 .769.257.769.77 0 .615-.512 1.23-1.538 1.845-4.238 2.598-7.365 3.897-9.382 3.897-1.162 0-1.743-.376-1.743-1.128 0-.376.102-.838.307-1.385.103-.273.342-.957.718-2.05.205-.582.376-1.06.513-1.436l7.229-19.175c.684-1.777 1.025-3.23 1.025-4.358 0-1.367-.564-2.05-1.692-2.05-.888 0-2.119.358-3.691 1.076a23.346 23.346 0 00-4.409 2.512c-2.153 1.607-3.794 3.453-4.922 5.537-.649 1.265-1.401 3.008-2.256 5.23l-6.101 15.945-4.563 1.538 8.46-25.737c.683-2.051 1.025-3.435 1.025-4.153 0-.991-.479-1.487-1.436-1.487-1.23 0-3.127.666-5.691 2-2.905 1.538-5.058 3.503-6.459 5.895-.787 1.3-1.641 3.196-2.564 5.691l-6.46 16.868-4.614 1.487 8.511-25.686c.752-2.222 1.127-3.606 1.127-4.153 0-.444-.187-.666-.563-.666-.445 0-1.06.239-1.846.717-.684.41-1.179.615-1.487.615-.547 0-.82-.29-.82-.871 0-.718 1.418-1.88 4.255-3.486 3.213-1.778 5.349-2.666 6.409-2.666 1.094 0 1.64.427 1.64 1.281 0 .479-.222 1.282-.666 2.41a40.6 40.6 0 00-1.128 2.82c6.392-4.41 11.501-6.614 15.33-6.614 1.059 0 1.879.274 2.46.82.547.445.821.992.821 1.641 0 .273-.257 1.487-.769 3.64z" stroke="#B52B45" stroke-width="2" mask="url(#a)"/></svg>