<svg width="277" height="91" viewBox="0 0 277 91" fill="none" xmlns="http://www.w3.org/2000/svg">
<mask id="path-1-outside-1" maskUnits="userSpaceOnUse" x="0.691406" y="0.324707" width="276" height="90" fill="black">
<rect fill="white" x="0.691406" y="0.324707" width="276" height="90"/>
<path d="M61.6768 28.9077L66.9062 56.9521C67.248 58.8662 67.5044 60.1138 67.6753 60.6948C68.0171 61.8228 68.6323 62.3867 69.521 62.3867C70.1704 62.3867 71.0591 62.0278 72.187 61.3101C73.5884 60.3872 74.46 59.9258 74.8018 59.9258C75.4854 59.9258 75.8271 60.2847 75.8271 61.0024C75.8271 61.481 75.041 62.3525 73.4688 63.6172C69.0938 67.2402 66.2227 69.0518 64.8555 69.0518C64.001 69.0518 63.3857 68.5391 63.0098 67.5137C62.7705 66.8984 62.3262 65.0015 61.6768 61.8228L60.395 54.5938C59.2671 48.4414 58.481 43.9126 58.0366 41.0073C57.5923 38.1704 57.165 35.8291 56.7549 33.9834L52.6021 38.3926C50.4146 40.6826 48.9619 42.3745 48.2441 43.4683C47.5605 44.4937 46.501 46.6641 45.0654 49.9795C42.9121 54.833 41.1348 58.4048 39.7334 60.6948C36.6914 65.5825 32.7778 69.2568 27.9927 71.7178C26.3179 72.5723 24.3696 73.29 22.1479 73.8711C19.9263 74.4521 18.0293 74.7427 16.457 74.7427C15.5684 74.7427 15.124 74.4009 15.124 73.7173C15.124 72.9653 15.9443 72.5381 17.585 72.4355C19.5674 72.2988 21.772 71.6665 24.1987 70.5386C26.6597 69.4106 28.6763 68.1118 30.2485 66.6421C33.4272 63.6343 36.623 58.0801 39.8359 49.9795C43.9375 39.623 47.4067 30.0186 50.2437 21.166C51.9185 16.0391 52.7559 12.8774 52.7559 11.6812C52.7559 10.519 52.4141 9.56201 51.7305 8.81006C51.0811 8.02393 49.936 7.27197 48.2954 6.5542C44.2622 4.7085 39.4087 3.78564 33.7349 3.78564C25.8052 3.78564 19.4136 5.85352 14.5601 9.98926C12.3726 11.8008 10.6636 13.9028 9.43311 16.2954C8.20264 18.6538 7.5874 21.0122 7.5874 23.3706C7.5874 25.3872 8.11719 27.3354 9.17676 29.2153C10.2705 31.0952 11.6719 32.4966 13.3809 33.4194C15.8076 34.7866 18.3711 35.4702 21.0713 35.4702L24.8652 35.4189C25.7539 35.4189 26.1982 35.7607 26.1982 36.4443C26.1982 37.4014 24.5405 37.8799 21.2251 37.8799C18.2173 37.8799 15.5342 37.5723 13.1758 36.957C9.82617 36.0684 7.17725 34.5474 5.229 32.394C2.87061 29.7964 1.69141 26.7544 1.69141 23.2681C1.69141 19.4741 3.24658 15.7998 6.35693 12.2451C10.0825 8.00684 15.2437 4.94775 21.8403 3.06787C26.0103 1.90576 30.71 1.32471 35.9395 1.32471C41.4766 1.32471 46.7061 2.0083 51.6279 3.37549C56.6523 4.81104 59.1646 6.82764 59.1646 9.42529C59.1646 10.3823 58.7886 11.9888 58.0366 14.2446C57.8657 14.8599 57.3359 16.4663 56.4473 19.064L50.4487 36.4956L58.9082 27.3184C67.3164 18.2266 73.6055 11.9717 77.7754 8.55371C82.834 4.38379 86.7134 2.29883 89.4136 2.29883C90.9517 2.29883 91.7207 2.98242 91.7207 4.34961C91.7207 5.06738 91.4302 5.68262 90.8491 6.19531C90.4048 6.60547 89.3623 7.0498 87.7217 7.52832C84.9531 8.31445 82.3896 9.51074 80.0312 11.1172C76.0664 13.7148 71.4692 17.9189 66.2397 23.7295L61.6768 28.9077Z"/>
<path d="M115.612 33.1118L107.563 55.0552C107.392 55.4995 107.05 56.3882 106.538 57.7212C105.307 60.8657 104.692 63.3779 104.692 65.2578C104.692 65.4971 104.743 66.7446 104.846 69.0005C104.88 70.0259 104.897 70.8804 104.897 71.564C104.897 76.1782 103.103 80.126 99.5137 83.4072C95.5488 87.0303 90.8662 88.8418 85.4658 88.8418C81.8428 88.8418 78.5273 87.9702 75.5195 86.2271C72.751 84.6548 71.3667 83.0312 71.3667 81.3564C71.3667 80.6387 71.6743 79.9893 72.2896 79.4082C72.6997 79.0664 73.1782 78.8955 73.7251 78.8955C74.5796 78.8955 75.5537 79.6304 76.6475 81.1001C77.9121 82.8091 79.6382 84.1934 81.8257 85.2529C83.4663 86.0732 85.2266 86.4834 87.1064 86.4834C89.7725 86.4834 92.2505 85.7144 94.5405 84.1763C98.3345 81.6128 100.231 78.1265 100.231 73.7173C100.231 70.7095 99.9067 67.77 99.2573 64.8989C96.1128 66.3003 93.6519 67.3086 91.8745 67.9238C89.1401 68.8809 86.6108 69.3594 84.2866 69.3594C83.1245 69.3594 82.1675 69.0859 81.4155 68.5391C80.561 67.9238 80.1338 67.1206 80.1338 66.1294C80.1338 64.9331 80.7319 62.7456 81.9282 59.5669L88.0293 42.1865C88.6445 40.5117 88.9521 39.5547 88.9521 39.3154C88.9521 38.8711 88.73 38.6489 88.2856 38.6489C87.8755 38.6489 87.2432 38.9053 86.3887 39.418C85.2607 40.1016 84.5601 40.4434 84.2866 40.4434C83.8081 40.4434 83.5688 40.2041 83.5688 39.7256C83.5688 39.2812 84.3208 38.6147 85.8247 37.7261C90.2681 35.0601 93.0708 33.7271 94.2329 33.7271C95.2241 33.7271 95.7197 34.103 95.7197 34.855C95.7197 35.3335 95.2412 36.6665 94.2842 38.854L87.5166 56.9521C86.0811 60.8145 85.3633 63.2754 85.3633 64.335C85.3633 65.668 86.3032 66.3345 88.1831 66.3345C89.4478 66.3345 91.1567 65.9585 93.3101 65.2065C95.4634 64.4546 97.0698 63.6685 98.1294 62.8481C99.1548 62.062 100.146 60.5923 101.103 58.439C101.274 58.0288 101.838 56.73 102.795 54.5425L110.485 35.3164L115.612 33.1118Z"/>
<path d="M120.688 66.9497L118.586 72.1792C116.433 77.4087 114.484 81.1855 112.741 83.5098C111.169 85.5947 109.272 87.1499 107.05 88.1753C105.581 88.8247 104.436 89.1494 103.615 89.1494C103.103 89.1494 102.846 88.9102 102.846 88.4316C102.846 88.0557 103.103 87.7993 103.615 87.6626C106.145 86.9448 108.195 85.3042 109.768 82.7407C110.759 81.3394 112.058 78.2974 113.664 73.6147L124.123 42.853C124.772 40.939 125.097 39.7427 125.097 39.2642C125.097 38.8882 124.909 38.7002 124.533 38.7002C124.123 38.7002 123.115 39.1787 121.508 40.1357C121.269 40.2725 121.03 40.3408 120.791 40.3408C120.244 40.3408 119.97 40.0845 119.97 39.5718C119.97 39.0933 120.859 38.2559 122.636 37.0596C126.02 34.7695 128.618 33.6245 130.429 33.6245C131.318 33.6245 131.762 33.9834 131.762 34.7012C131.762 35.2139 131.352 36.9058 130.532 39.7769C132.822 37.9653 134.685 36.5981 136.12 35.6753C138.752 34.0688 141.315 33.2656 143.811 33.2656C145.827 33.2656 147.451 33.8979 148.681 35.1626C150.151 36.7007 150.886 38.6318 150.886 40.9561C150.886 44.4766 149.638 48.5439 147.143 53.1582C143.896 59.208 139.914 63.6343 135.197 66.437C131.984 68.3511 129.011 69.3081 126.276 69.3081C124.226 69.3081 122.363 68.522 120.688 66.9497ZM140.119 36.957C137.658 36.957 134.992 38.4268 132.121 41.3662C128.566 44.9893 125.986 49.8428 124.379 55.9268C123.833 57.9092 123.559 59.6523 123.559 61.1562C123.559 62.4893 123.867 63.583 124.482 64.4375C125.336 65.6338 126.618 66.2319 128.327 66.2319C130.515 66.2319 132.702 65.4116 134.89 63.771C137.111 62.1304 139.128 59.8403 140.939 56.9009C143.811 52.1499 145.246 47.5869 145.246 43.2119C145.246 41.2637 144.768 39.7256 143.811 38.5977C142.888 37.5039 141.657 36.957 140.119 36.957Z"/>
<path d="M174.675 32.7529C177.922 32.7529 180.656 33.8809 182.878 36.1367C185.065 38.3584 186.159 41.2466 186.159 44.8013C186.159 47.7065 185.458 50.6973 184.057 53.7734C182.69 56.8154 180.759 59.6011 178.264 62.1304C173.752 66.813 169.001 69.1543 164.011 69.1543C160.661 69.1543 157.944 67.9409 155.859 65.5142C153.979 63.3267 153.039 60.6094 153.039 57.3623C153.039 54.2861 153.723 51.1587 155.09 47.98C156.457 44.7671 158.32 41.9644 160.678 39.5718C165.156 35.0259 169.821 32.7529 174.675 32.7529ZM172.624 35.624C170.095 35.624 167.719 36.7007 165.498 38.854C163.31 40.9731 161.584 43.5708 160.319 46.647C159.055 49.7231 158.422 52.8677 158.422 56.0806C158.422 59.3618 159.345 61.9595 161.191 63.8735C162.695 65.3774 164.455 66.1294 166.472 66.1294C169.479 66.1294 172.265 64.54 174.829 61.3613C178.725 56.542 180.673 51.2441 180.673 45.4678C180.673 42.3232 179.785 39.7939 178.007 37.8799C176.606 36.376 174.812 35.624 172.624 35.624Z"/>
<path d="M193.798 66.9497L191.696 72.1792C189.543 77.4087 187.595 81.1855 185.852 83.5098C184.279 85.5947 182.382 87.1499 180.161 88.1753C178.691 88.8247 177.546 89.1494 176.726 89.1494C176.213 89.1494 175.957 88.9102 175.957 88.4316C175.957 88.0557 176.213 87.7993 176.726 87.6626C179.255 86.9448 181.306 85.3042 182.878 82.7407C183.869 81.3394 185.168 78.2974 186.774 73.6147L197.233 42.853C197.883 40.939 198.208 39.7427 198.208 39.2642C198.208 38.8882 198.02 38.7002 197.644 38.7002C197.233 38.7002 196.225 39.1787 194.619 40.1357C194.379 40.2725 194.14 40.3408 193.901 40.3408C193.354 40.3408 193.081 40.0845 193.081 39.5718C193.081 39.0933 193.969 38.2559 195.747 37.0596C199.13 34.7695 201.728 33.6245 203.54 33.6245C204.428 33.6245 204.873 33.9834 204.873 34.7012C204.873 35.2139 204.462 36.9058 203.642 39.7769C205.932 37.9653 207.795 36.5981 209.23 35.6753C211.862 34.0688 214.426 33.2656 216.921 33.2656C218.938 33.2656 220.561 33.8979 221.792 35.1626C223.261 36.7007 223.996 38.6318 223.996 40.9561C223.996 44.4766 222.749 48.5439 220.253 53.1582C217.006 59.208 213.024 63.6343 208.308 66.437C205.095 68.3511 202.121 69.3081 199.387 69.3081C197.336 69.3081 195.473 68.522 193.798 66.9497ZM213.229 36.957C210.769 36.957 208.103 38.4268 205.231 41.3662C201.677 44.9893 199.096 49.8428 197.49 55.9268C196.943 57.9092 196.669 59.6523 196.669 61.1562C196.669 62.4893 196.977 63.583 197.592 64.4375C198.447 65.6338 199.729 66.2319 201.438 66.2319C203.625 66.2319 205.812 65.4116 208 63.771C210.222 62.1304 212.238 59.8403 214.05 56.9009C216.921 52.1499 218.356 47.5869 218.356 43.2119C218.356 41.2637 217.878 39.7256 216.921 38.5977C215.998 37.5039 214.768 36.957 213.229 36.957Z"/>
<path d="M257.219 39.8281C259.782 38.1875 261.85 36.9399 263.422 36.0854C266.499 34.3765 269.096 33.522 271.215 33.522C272.48 33.522 273.454 33.8979 274.138 34.6499C274.89 35.4702 275.266 36.5127 275.266 37.7773C275.266 39.418 274.394 42.2549 272.651 46.2881L266.96 59.5669C266.071 61.686 265.627 62.9507 265.627 63.3608C265.627 64.0786 265.986 64.4375 266.704 64.4375C267.456 64.4375 268.481 64.0786 269.78 63.3608C270.6 62.9165 271.147 62.6943 271.42 62.6943C271.933 62.6943 272.189 62.9507 272.189 63.4634C272.189 64.0786 271.677 64.6938 270.651 65.3091C266.413 67.9067 263.286 69.2056 261.269 69.2056C260.107 69.2056 259.526 68.8296 259.526 68.0776C259.526 67.7017 259.628 67.2402 259.833 66.6934C259.936 66.4199 260.175 65.7363 260.551 64.6426C260.756 64.0615 260.927 63.583 261.064 63.207L268.293 44.0322C268.977 42.2549 269.318 40.8022 269.318 39.6743C269.318 38.3071 268.754 37.6235 267.626 37.6235C266.738 37.6235 265.507 37.9824 263.935 38.7002C262.363 39.3838 260.893 40.2212 259.526 41.2124C257.373 42.8188 255.732 44.6646 254.604 46.7495C253.955 48.0142 253.203 49.7573 252.348 51.979L246.247 67.9238L241.684 69.4619L250.144 43.7246C250.827 41.6738 251.169 40.2896 251.169 39.5718C251.169 38.5806 250.69 38.085 249.733 38.085C248.503 38.085 246.606 38.7515 244.042 40.0845C241.137 41.6226 238.984 43.5879 237.583 45.9805C236.796 47.2793 235.942 49.1763 235.019 51.6714L228.559 68.5391L223.945 70.0259L232.456 44.3398C233.208 42.1182 233.583 40.7339 233.583 40.187C233.583 39.7427 233.396 39.5205 233.02 39.5205C232.575 39.5205 231.96 39.7598 231.174 40.2383C230.49 40.6484 229.995 40.8535 229.687 40.8535C229.14 40.8535 228.867 40.563 228.867 39.9819C228.867 39.2642 230.285 38.1021 233.122 36.4956C236.335 34.7183 238.471 33.8296 239.531 33.8296C240.625 33.8296 241.171 34.2568 241.171 35.1113C241.171 35.5898 240.949 36.3931 240.505 37.521C240.095 38.4438 239.719 39.3838 239.377 40.3408C245.769 35.9316 250.878 33.7271 254.707 33.7271C255.766 33.7271 256.586 34.0005 257.167 34.5474C257.714 34.9917 257.988 35.5386 257.988 36.188C257.988 36.4614 257.731 37.6748 257.219 39.8281Z"/>
</mask>
<path d="M61.6768 28.9077L66.9062 56.9521C67.248 58.8662 67.5044 60.1138 67.6753 60.6948C68.0171 61.8228 68.6323 62.3867 69.521 62.3867C70.1704 62.3867 71.0591 62.0278 72.187 61.3101C73.5884 60.3872 74.46 59.9258 74.8018 59.9258C75.4854 59.9258 75.8271 60.2847 75.8271 61.0024C75.8271 61.481 75.041 62.3525 73.4688 63.6172C69.0938 67.2402 66.2227 69.0518 64.8555 69.0518C64.001 69.0518 63.3857 68.5391 63.0098 67.5137C62.7705 66.8984 62.3262 65.0015 61.6768 61.8228L60.395 54.5938C59.2671 48.4414 58.481 43.9126 58.0366 41.0073C57.5923 38.1704 57.165 35.8291 56.7549 33.9834L52.6021 38.3926C50.4146 40.6826 48.9619 42.3745 48.2441 43.4683C47.5605 44.4937 46.501 46.6641 45.0654 49.9795C42.9121 54.833 41.1348 58.4048 39.7334 60.6948C36.6914 65.5825 32.7778 69.2568 27.9927 71.7178C26.3179 72.5723 24.3696 73.29 22.1479 73.8711C19.9263 74.4521 18.0293 74.7427 16.457 74.7427C15.5684 74.7427 15.124 74.4009 15.124 73.7173C15.124 72.9653 15.9443 72.5381 17.585 72.4355C19.5674 72.2988 21.772 71.6665 24.1987 70.5386C26.6597 69.4106 28.6763 68.1118 30.2485 66.6421C33.4272 63.6343 36.623 58.0801 39.8359 49.9795C43.9375 39.623 47.4067 30.0186 50.2437 21.166C51.9185 16.0391 52.7559 12.8774 52.7559 11.6812C52.7559 10.519 52.4141 9.56201 51.7305 8.81006C51.0811 8.02393 49.936 7.27197 48.2954 6.5542C44.2622 4.7085 39.4087 3.78564 33.7349 3.78564C25.8052 3.78564 19.4136 5.85352 14.5601 9.98926C12.3726 11.8008 10.6636 13.9028 9.43311 16.2954C8.20264 18.6538 7.5874 21.0122 7.5874 23.3706C7.5874 25.3872 8.11719 27.3354 9.17676 29.2153C10.2705 31.0952 11.6719 32.4966 13.3809 33.4194C15.8076 34.7866 18.3711 35.4702 21.0713 35.4702L24.8652 35.4189C25.7539 35.4189 26.1982 35.7607 26.1982 36.4443C26.1982 37.4014 24.5405 37.8799 21.2251 37.8799C18.2173 37.8799 15.5342 37.5723 13.1758 36.957C9.82617 36.0684 7.17725 34.5474 5.229 32.394C2.87061 29.7964 1.69141 26.7544 1.69141 23.2681C1.69141 19.4741 3.24658 15.7998 6.35693 12.2451C10.0825 8.00684 15.2437 4.94775 21.8403 3.06787C26.0103 1.90576 30.71 1.32471 35.9395 1.32471C41.4766 1.32471 46.7061 2.0083 51.6279 3.37549C56.6523 4.81104 59.1646 6.82764 59.1646 9.42529C59.1646 10.3823 58.7886 11.9888 58.0366 14.2446C57.8657 14.8599 57.3359 16.4663 56.4473 19.064L50.4487 36.4956L58.9082 27.3184C67.3164 18.2266 73.6055 11.9717 77.7754 8.55371C82.834 4.38379 86.7134 2.29883 89.4136 2.29883C90.9517 2.29883 91.7207 2.98242 91.7207 4.34961C91.7207 5.06738 91.4302 5.68262 90.8491 6.19531C90.4048 6.60547 89.3623 7.0498 87.7217 7.52832C84.9531 8.31445 82.3896 9.51074 80.0312 11.1172C76.0664 13.7148 71.4692 17.9189 66.2397 23.7295L61.6768 28.9077Z" fill="white"/>
<path d="M115.612 33.1118L107.563 55.0552C107.392 55.4995 107.05 56.3882 106.538 57.7212C105.307 60.8657 104.692 63.3779 104.692 65.2578C104.692 65.4971 104.743 66.7446 104.846 69.0005C104.88 70.0259 104.897 70.8804 104.897 71.564C104.897 76.1782 103.103 80.126 99.5137 83.4072C95.5488 87.0303 90.8662 88.8418 85.4658 88.8418C81.8428 88.8418 78.5273 87.9702 75.5195 86.2271C72.751 84.6548 71.3667 83.0312 71.3667 81.3564C71.3667 80.6387 71.6743 79.9893 72.2896 79.4082C72.6997 79.0664 73.1782 78.8955 73.7251 78.8955C74.5796 78.8955 75.5537 79.6304 76.6475 81.1001C77.9121 82.8091 79.6382 84.1934 81.8257 85.2529C83.4663 86.0732 85.2266 86.4834 87.1064 86.4834C89.7725 86.4834 92.2505 85.7144 94.5405 84.1763C98.3345 81.6128 100.231 78.1265 100.231 73.7173C100.231 70.7095 99.9067 67.77 99.2573 64.8989C96.1128 66.3003 93.6519 67.3086 91.8745 67.9238C89.1401 68.8809 86.6108 69.3594 84.2866 69.3594C83.1245 69.3594 82.1675 69.0859 81.4155 68.5391C80.561 67.9238 80.1338 67.1206 80.1338 66.1294C80.1338 64.9331 80.7319 62.7456 81.9282 59.5669L88.0293 42.1865C88.6445 40.5117 88.9521 39.5547 88.9521 39.3154C88.9521 38.8711 88.73 38.6489 88.2856 38.6489C87.8755 38.6489 87.2432 38.9053 86.3887 39.418C85.2607 40.1016 84.5601 40.4434 84.2866 40.4434C83.8081 40.4434 83.5688 40.2041 83.5688 39.7256C83.5688 39.2812 84.3208 38.6147 85.8247 37.7261C90.2681 35.0601 93.0708 33.7271 94.2329 33.7271C95.2241 33.7271 95.7197 34.103 95.7197 34.855C95.7197 35.3335 95.2412 36.6665 94.2842 38.854L87.5166 56.9521C86.0811 60.8145 85.3633 63.2754 85.3633 64.335C85.3633 65.668 86.3032 66.3345 88.1831 66.3345C89.4478 66.3345 91.1567 65.9585 93.3101 65.2065C95.4634 64.4546 97.0698 63.6685 98.1294 62.8481C99.1548 62.062 100.146 60.5923 101.103 58.439C101.274 58.0288 101.838 56.73 102.795 54.5425L110.485 35.3164L115.612 33.1118Z" fill="white"/>
<path d="M120.688 66.9497L118.586 72.1792C116.433 77.4087 114.484 81.1855 112.741 83.5098C111.169 85.5947 109.272 87.1499 107.05 88.1753C105.581 88.8247 104.436 89.1494 103.615 89.1494C103.103 89.1494 102.846 88.9102 102.846 88.4316C102.846 88.0557 103.103 87.7993 103.615 87.6626C106.145 86.9448 108.195 85.3042 109.768 82.7407C110.759 81.3394 112.058 78.2974 113.664 73.6147L124.123 42.853C124.772 40.939 125.097 39.7427 125.097 39.2642C125.097 38.8882 124.909 38.7002 124.533 38.7002C124.123 38.7002 123.115 39.1787 121.508 40.1357C121.269 40.2725 121.03 40.3408 120.791 40.3408C120.244 40.3408 119.97 40.0845 119.97 39.5718C119.97 39.0933 120.859 38.2559 122.636 37.0596C126.02 34.7695 128.618 33.6245 130.429 33.6245C131.318 33.6245 131.762 33.9834 131.762 34.7012C131.762 35.2139 131.352 36.9058 130.532 39.7769C132.822 37.9653 134.685 36.5981 136.12 35.6753C138.752 34.0688 141.315 33.2656 143.811 33.2656C145.827 33.2656 147.451 33.8979 148.681 35.1626C150.151 36.7007 150.886 38.6318 150.886 40.9561C150.886 44.4766 149.638 48.5439 147.143 53.1582C143.896 59.208 139.914 63.6343 135.197 66.437C131.984 68.3511 129.011 69.3081 126.276 69.3081C124.226 69.3081 122.363 68.522 120.688 66.9497ZM140.119 36.957C137.658 36.957 134.992 38.4268 132.121 41.3662C128.566 44.9893 125.986 49.8428 124.379 55.9268C123.833 57.9092 123.559 59.6523 123.559 61.1562C123.559 62.4893 123.867 63.583 124.482 64.4375C125.336 65.6338 126.618 66.2319 128.327 66.2319C130.515 66.2319 132.702 65.4116 134.89 63.771C137.111 62.1304 139.128 59.8403 140.939 56.9009C143.811 52.1499 145.246 47.5869 145.246 43.2119C145.246 41.2637 144.768 39.7256 143.811 38.5977C142.888 37.5039 141.657 36.957 140.119 36.957Z" fill="white"/>
<path d="M174.675 32.7529C177.922 32.7529 180.656 33.8809 182.878 36.1367C185.065 38.3584 186.159 41.2466 186.159 44.8013C186.159 47.7065 185.458 50.6973 184.057 53.7734C182.69 56.8154 180.759 59.6011 178.264 62.1304C173.752 66.813 169.001 69.1543 164.011 69.1543C160.661 69.1543 157.944 67.9409 155.859 65.5142C153.979 63.3267 153.039 60.6094 153.039 57.3623C153.039 54.2861 153.723 51.1587 155.09 47.98C156.457 44.7671 158.32 41.9644 160.678 39.5718C165.156 35.0259 169.821 32.7529 174.675 32.7529ZM172.624 35.624C170.095 35.624 167.719 36.7007 165.498 38.854C163.31 40.9731 161.584 43.5708 160.319 46.647C159.055 49.7231 158.422 52.8677 158.422 56.0806C158.422 59.3618 159.345 61.9595 161.191 63.8735C162.695 65.3774 164.455 66.1294 166.472 66.1294C169.479 66.1294 172.265 64.54 174.829 61.3613C178.725 56.542 180.673 51.2441 180.673 45.4678C180.673 42.3232 179.785 39.7939 178.007 37.8799C176.606 36.376 174.812 35.624 172.624 35.624Z" fill="white"/>
<path d="M193.798 66.9497L191.696 72.1792C189.543 77.4087 187.595 81.1855 185.852 83.5098C184.279 85.5947 182.382 87.1499 180.161 88.1753C178.691 88.8247 177.546 89.1494 176.726 89.1494C176.213 89.1494 175.957 88.9102 175.957 88.4316C175.957 88.0557 176.213 87.7993 176.726 87.6626C179.255 86.9448 181.306 85.3042 182.878 82.7407C183.869 81.3394 185.168 78.2974 186.774 73.6147L197.233 42.853C197.883 40.939 198.208 39.7427 198.208 39.2642C198.208 38.8882 198.02 38.7002 197.644 38.7002C197.233 38.7002 196.225 39.1787 194.619 40.1357C194.379 40.2725 194.14 40.3408 193.901 40.3408C193.354 40.3408 193.081 40.0845 193.081 39.5718C193.081 39.0933 193.969 38.2559 195.747 37.0596C199.13 34.7695 201.728 33.6245 203.54 33.6245C204.428 33.6245 204.873 33.9834 204.873 34.7012C204.873 35.2139 204.462 36.9058 203.642 39.7769C205.932 37.9653 207.795 36.5981 209.23 35.6753C211.862 34.0688 214.426 33.2656 216.921 33.2656C218.938 33.2656 220.561 33.8979 221.792 35.1626C223.261 36.7007 223.996 38.6318 223.996 40.9561C223.996 44.4766 222.749 48.5439 220.253 53.1582C217.006 59.208 213.024 63.6343 208.308 66.437C205.095 68.3511 202.121 69.3081 199.387 69.3081C197.336 69.3081 195.473 68.522 193.798 66.9497ZM213.229 36.957C210.769 36.957 208.103 38.4268 205.231 41.3662C201.677 44.9893 199.096 49.8428 197.49 55.9268C196.943 57.9092 196.669 59.6523 196.669 61.1562C196.669 62.4893 196.977 63.583 197.592 64.4375C198.447 65.6338 199.729 66.2319 201.438 66.2319C203.625 66.2319 205.812 65.4116 208 63.771C210.222 62.1304 212.238 59.8403 214.05 56.9009C216.921 52.1499 218.356 47.5869 218.356 43.2119C218.356 41.2637 217.878 39.7256 216.921 38.5977C215.998 37.5039 214.768 36.957 213.229 36.957Z" fill="white"/>
<path d="M257.219 39.8281C259.782 38.1875 261.85 36.9399 263.422 36.0854C266.499 34.3765 269.096 33.522 271.215 33.522C272.48 33.522 273.454 33.8979 274.138 34.6499C274.89 35.4702 275.266 36.5127 275.266 37.7773C275.266 39.418 274.394 42.2549 272.651 46.2881L266.96 59.5669C266.071 61.686 265.627 62.9507 265.627 63.3608C265.627 64.0786 265.986 64.4375 266.704 64.4375C267.456 64.4375 268.481 64.0786 269.78 63.3608C270.6 62.9165 271.147 62.6943 271.42 62.6943C271.933 62.6943 272.189 62.9507 272.189 63.4634C272.189 64.0786 271.677 64.6938 270.651 65.3091C266.413 67.9067 263.286 69.2056 261.269 69.2056C260.107 69.2056 259.526 68.8296 259.526 68.0776C259.526 67.7017 259.628 67.2402 259.833 66.6934C259.936 66.4199 260.175 65.7363 260.551 64.6426C260.756 64.0615 260.927 63.583 261.064 63.207L268.293 44.0322C268.977 42.2549 269.318 40.8022 269.318 39.6743C269.318 38.3071 268.754 37.6235 267.626 37.6235C266.738 37.6235 265.507 37.9824 263.935 38.7002C262.363 39.3838 260.893 40.2212 259.526 41.2124C257.373 42.8188 255.732 44.6646 254.604 46.7495C253.955 48.0142 253.203 49.7573 252.348 51.979L246.247 67.9238L241.684 69.4619L250.144 43.7246C250.827 41.6738 251.169 40.2896 251.169 39.5718C251.169 38.5806 250.69 38.085 249.733 38.085C248.503 38.085 246.606 38.7515 244.042 40.0845C241.137 41.6226 238.984 43.5879 237.583 45.9805C236.796 47.2793 235.942 49.1763 235.019 51.6714L228.559 68.5391L223.945 70.0259L232.456 44.3398C233.208 42.1182 233.583 40.7339 233.583 40.187C233.583 39.7427 233.396 39.5205 233.02 39.5205C232.575 39.5205 231.96 39.7598 231.174 40.2383C230.49 40.6484 229.995 40.8535 229.687 40.8535C229.14 40.8535 228.867 40.563 228.867 39.9819C228.867 39.2642 230.285 38.1021 233.122 36.4956C236.335 34.7183 238.471 33.8296 239.531 33.8296C240.625 33.8296 241.171 34.2568 241.171 35.1113C241.171 35.5898 240.949 36.3931 240.505 37.521C240.095 38.4438 239.719 39.3838 239.377 40.3408C245.769 35.9316 250.878 33.7271 254.707 33.7271C255.766 33.7271 256.586 34.0005 257.167 34.5474C257.714 34.9917 257.988 35.5386 257.988 36.188C257.988 36.4614 257.731 37.6748 257.219 39.8281Z" fill="white"/>
<path d="M61.6768 28.9077L66.9062 56.9521C67.248 58.8662 67.5044 60.1138 67.6753 60.6948C68.0171 61.8228 68.6323 62.3867 69.521 62.3867C70.1704 62.3867 71.0591 62.0278 72.187 61.3101C73.5884 60.3872 74.46 59.9258 74.8018 59.9258C75.4854 59.9258 75.8271 60.2847 75.8271 61.0024C75.8271 61.481 75.041 62.3525 73.4688 63.6172C69.0938 67.2402 66.2227 69.0518 64.8555 69.0518C64.001 69.0518 63.3857 68.5391 63.0098 67.5137C62.7705 66.8984 62.3262 65.0015 61.6768 61.8228L60.395 54.5938C59.2671 48.4414 58.481 43.9126 58.0366 41.0073C57.5923 38.1704 57.165 35.8291 56.7549 33.9834L52.6021 38.3926C50.4146 40.6826 48.9619 42.3745 48.2441 43.4683C47.5605 44.4937 46.501 46.6641 45.0654 49.9795C42.9121 54.833 41.1348 58.4048 39.7334 60.6948C36.6914 65.5825 32.7778 69.2568 27.9927 71.7178C26.3179 72.5723 24.3696 73.29 22.1479 73.8711C19.9263 74.4521 18.0293 74.7427 16.457 74.7427C15.5684 74.7427 15.124 74.4009 15.124 73.7173C15.124 72.9653 15.9443 72.5381 17.585 72.4355C19.5674 72.2988 21.772 71.6665 24.1987 70.5386C26.6597 69.4106 28.6763 68.1118 30.2485 66.6421C33.4272 63.6343 36.623 58.0801 39.8359 49.9795C43.9375 39.623 47.4067 30.0186 50.2437 21.166C51.9185 16.0391 52.7559 12.8774 52.7559 11.6812C52.7559 10.519 52.4141 9.56201 51.7305 8.81006C51.0811 8.02393 49.936 7.27197 48.2954 6.5542C44.2622 4.7085 39.4087 3.78564 33.7349 3.78564C25.8052 3.78564 19.4136 5.85352 14.5601 9.98926C12.3726 11.8008 10.6636 13.9028 9.43311 16.2954C8.20264 18.6538 7.5874 21.0122 7.5874 23.3706C7.5874 25.3872 8.11719 27.3354 9.17676 29.2153C10.2705 31.0952 11.6719 32.4966 13.3809 33.4194C15.8076 34.7866 18.3711 35.4702 21.0713 35.4702L24.8652 35.4189C25.7539 35.4189 26.1982 35.7607 26.1982 36.4443C26.1982 37.4014 24.5405 37.8799 21.2251 37.8799C18.2173 37.8799 15.5342 37.5723 13.1758 36.957C9.82617 36.0684 7.17725 34.5474 5.229 32.394C2.87061 29.7964 1.69141 26.7544 1.69141 23.2681C1.69141 19.4741 3.24658 15.7998 6.35693 12.2451C10.0825 8.00684 15.2437 4.94775 21.8403 3.06787C26.0103 1.90576 30.71 1.32471 35.9395 1.32471C41.4766 1.32471 46.7061 2.0083 51.6279 3.37549C56.6523 4.81104 59.1646 6.82764 59.1646 9.42529C59.1646 10.3823 58.7886 11.9888 58.0366 14.2446C57.8657 14.8599 57.3359 16.4663 56.4473 19.064L50.4487 36.4956L58.9082 27.3184C67.3164 18.2266 73.6055 11.9717 77.7754 8.55371C82.834 4.38379 86.7134 2.29883 89.4136 2.29883C90.9517 2.29883 91.7207 2.98242 91.7207 4.34961C91.7207 5.06738 91.4302 5.68262 90.8491 6.19531C90.4048 6.60547 89.3623 7.0498 87.7217 7.52832C84.9531 8.31445 82.3896 9.51074 80.0312 11.1172C76.0664 13.7148 71.4692 17.9189 66.2397 23.7295L61.6768 28.9077Z" stroke="#B52B45" stroke-width="2" mask="url(#path-1-outside-1)"/>
<path d="M115.612 33.1118L107.563 55.0552C107.392 55.4995 107.05 56.3882 106.538 57.7212C105.307 60.8657 104.692 63.3779 104.692 65.2578C104.692 65.4971 104.743 66.7446 104.846 69.0005C104.88 70.0259 104.897 70.8804 104.897 71.564C104.897 76.1782 103.103 80.126 99.5137 83.4072C95.5488 87.0303 90.8662 88.8418 85.4658 88.8418C81.8428 88.8418 78.5273 87.9702 75.5195 86.2271C72.751 84.6548 71.3667 83.0312 71.3667 81.3564C71.3667 80.6387 71.6743 79.9893 72.2896 79.4082C72.6997 79.0664 73.1782 78.8955 73.7251 78.8955C74.5796 78.8955 75.5537 79.6304 76.6475 81.1001C77.9121 82.8091 79.6382 84.1934 81.8257 85.2529C83.4663 86.0732 85.2266 86.4834 87.1064 86.4834C89.7725 86.4834 92.2505 85.7144 94.5405 84.1763C98.3345 81.6128 100.231 78.1265 100.231 73.7173C100.231 70.7095 99.9067 67.77 99.2573 64.8989C96.1128 66.3003 93.6519 67.3086 91.8745 67.9238C89.1401 68.8809 86.6108 69.3594 84.2866 69.3594C83.1245 69.3594 82.1675 69.0859 81.4155 68.5391C80.561 67.9238 80.1338 67.1206 80.1338 66.1294C80.1338 64.9331 80.7319 62.7456 81.9282 59.5669L88.0293 42.1865C88.6445 40.5117 88.9521 39.5547 88.9521 39.3154C88.9521 38.8711 88.73 38.6489 88.2856 38.6489C87.8755 38.6489 87.2432 38.9053 86.3887 39.418C85.2607 40.1016 84.5601 40.4434 84.2866 40.4434C83.8081 40.4434 83.5688 40.2041 83.5688 39.7256C83.5688 39.2812 84.3208 38.6147 85.8247 37.7261C90.2681 35.0601 93.0708 33.7271 94.2329 33.7271C95.2241 33.7271 95.7197 34.103 95.7197 34.855C95.7197 35.3335 95.2412 36.6665 94.2842 38.854L87.5166 56.9521C86.0811 60.8145 85.3633 63.2754 85.3633 64.335C85.3633 65.668 86.3032 66.3345 88.1831 66.3345C89.4478 66.3345 91.1567 65.9585 93.3101 65.2065C95.4634 64.4546 97.0698 63.6685 98.1294 62.8481C99.1548 62.062 100.146 60.5923 101.103 58.439C101.274 58.0288 101.838 56.73 102.795 54.5425L110.485 35.3164L115.612 33.1118Z" stroke="#B52B45" stroke-width="2" mask="url(#path-1-outside-1)"/>
<path d="M120.688 66.9497L118.586 72.1792C116.433 77.4087 114.484 81.1855 112.741 83.5098C111.169 85.5947 109.272 87.1499 107.05 88.1753C105.581 88.8247 104.436 89.1494 103.615 89.1494C103.103 89.1494 102.846 88.9102 102.846 88.4316C102.846 88.0557 103.103 87.7993 103.615 87.6626C106.145 86.9448 108.195 85.3042 109.768 82.7407C110.759 81.3394 112.058 78.2974 113.664 73.6147L124.123 42.853C124.772 40.939 125.097 39.7427 125.097 39.2642C125.097 38.8882 124.909 38.7002 124.533 38.7002C124.123 38.7002 123.115 39.1787 121.508 40.1357C121.269 40.2725 121.03 40.3408 120.791 40.3408C120.244 40.3408 119.97 40.0845 119.97 39.5718C119.97 39.0933 120.859 38.2559 122.636 37.0596C126.02 34.7695 128.618 33.6245 130.429 33.6245C131.318 33.6245 131.762 33.9834 131.762 34.7012C131.762 35.2139 131.352 36.9058 130.532 39.7769C132.822 37.9653 134.685 36.5981 136.12 35.6753C138.752 34.0688 141.315 33.2656 143.811 33.2656C145.827 33.2656 147.451 33.8979 148.681 35.1626C150.151 36.7007 150.886 38.6318 150.886 40.9561C150.886 44.4766 149.638 48.5439 147.143 53.1582C143.896 59.208 139.914 63.6343 135.197 66.437C131.984 68.3511 129.011 69.3081 126.276 69.3081C124.226 69.3081 122.363 68.522 120.688 66.9497ZM140.119 36.957C137.658 36.957 134.992 38.4268 132.121 41.3662C128.566 44.9893 125.986 49.8428 124.379 55.9268C123.833 57.9092 123.559 59.6523 123.559 61.1562C123.559 62.4893 123.867 63.583 124.482 64.4375C125.336 65.6338 126.618 66.2319 128.327 66.2319C130.515 66.2319 132.702 65.4116 134.89 63.771C137.111 62.1304 139.128 59.8403 140.939 56.9009C143.811 52.1499 145.246 47.5869 145.246 43.2119C145.246 41.2637 144.768 39.7256 143.811 38.5977C142.888 37.5039 141.657 36.957 140.119 36.957Z" stroke="#B52B45" stroke-width="2" mask="url(#path-1-outside-1)"/>
<path d="M174.675 32.7529C177.922 32.7529 180.656 33.8809 182.878 36.1367C185.065 38.3584 186.159 41.2466 186.159 44.8013C186.159 47.7065 185.458 50.6973 184.057 53.7734C182.69 56.8154 180.759 59.6011 178.264 62.1304C173.752 66.813 169.001 69.1543 164.011 69.1543C160.661 69.1543 157.944 67.9409 155.859 65.5142C153.979 63.3267 153.039 60.6094 153.039 57.3623C153.039 54.2861 153.723 51.1587 155.09 47.98C156.457 44.7671 158.32 41.9644 160.678 39.5718C165.156 35.0259 169.821 32.7529 174.675 32.7529ZM172.624 35.624C170.095 35.624 167.719 36.7007 165.498 38.854C163.31 40.9731 161.584 43.5708 160.319 46.647C159.055 49.7231 158.422 52.8677 158.422 56.0806C158.422 59.3618 159.345 61.9595 161.191 63.8735C162.695 65.3774 164.455 66.1294 166.472 66.1294C169.479 66.1294 172.265 64.54 174.829 61.3613C178.725 56.542 180.673 51.2441 180.673 45.4678C180.673 42.3232 179.785 39.7939 178.007 37.8799C176.606 36.376 174.812 35.624 172.624 35.624Z" stroke="#B52B45" stroke-width="2" mask="url(#path-1-outside-1)"/>
<path d="M193.798 66.9497L191.696 72.1792C189.543 77.4087 187.595 81.1855 185.852 83.5098C184.279 85.5947 182.382 87.1499 180.161 88.1753C178.691 88.8247 177.546 89.1494 176.726 89.1494C176.213 89.1494 175.957 88.9102 175.957 88.4316C175.957 88.0557 176.213 87.7993 176.726 87.6626C179.255 86.9448 181.306 85.3042 182.878 82.7407C183.869 81.3394 185.168 78.2974 186.774 73.6147L197.233 42.853C197.883 40.939 198.208 39.7427 198.208 39.2642C198.208 38.8882 198.02 38.7002 197.644 38.7002C197.233 38.7002 196.225 39.1787 194.619 40.1357C194.379 40.2725 194.14 40.3408 193.901 40.3408C193.354 40.3408 193.081 40.0845 193.081 39.5718C193.081 39.0933 193.969 38.2559 195.747 37.0596C199.13 34.7695 201.728 33.6245 203.54 33.6245C204.428 33.6245 204.873 33.9834 204.873 34.7012C204.873 35.2139 204.462 36.9058 203.642 39.7769C205.932 37.9653 207.795 36.5981 209.23 35.6753C211.862 34.0688 214.426 33.2656 216.921 33.2656C218.938 33.2656 220.561 33.8979 221.792 35.1626C223.261 36.7007 223.996 38.6318 223.996 40.9561C223.996 44.4766 222.749 48.5439 220.253 53.1582C217.006 59.208 213.024 63.6343 208.308 66.437C205.095 68.3511 202.121 69.3081 199.387 69.3081C197.336 69.3081 195.473 68.522 193.798 66.9497ZM213.229 36.957C210.769 36.957 208.103 38.4268 205.231 41.3662C201.677 44.9893 199.096 49.8428 197.49 55.9268C196.943 57.9092 196.669 59.6523 196.669 61.1562C196.669 62.4893 196.977 63.583 197.592 64.4375C198.447 65.6338 199.729 66.2319 201.438 66.2319C203.625 66.2319 205.812 65.4116 208 63.771C210.222 62.1304 212.238 59.8403 214.05 56.9009C216.921 52.1499 218.356 47.5869 218.356 43.2119C218.356 41.2637 217.878 39.7256 216.921 38.5977C215.998 37.5039 214.768 36.957 213.229 36.957Z" stroke="#B52B45" stroke-width="2" mask="url(#path-1-outside-1)"/>
<path d="M257.219 39.8281C259.782 38.1875 261.85 36.9399 263.422 36.0854C266.499 34.3765 269.096 33.522 271.215 33.522C272.48 33.522 273.454 33.8979 274.138 34.6499C274.89 35.4702 275.266 36.5127 275.266 37.7773C275.266 39.418 274.394 42.2549 272.651 46.2881L266.96 59.5669C266.071 61.686 265.627 62.9507 265.627 63.3608C265.627 64.0786 265.986 64.4375 266.704 64.4375C267.456 64.4375 268.481 64.0786 269.78 63.3608C270.6 62.9165 271.147 62.6943 271.42 62.6943C271.933 62.6943 272.189 62.9507 272.189 63.4634C272.189 64.0786 271.677 64.6938 270.651 65.3091C266.413 67.9067 263.286 69.2056 261.269 69.2056C260.107 69.2056 259.526 68.8296 259.526 68.0776C259.526 67.7017 259.628 67.2402 259.833 66.6934C259.936 66.4199 260.175 65.7363 260.551 64.6426C260.756 64.0615 260.927 63.583 261.064 63.207L268.293 44.0322C268.977 42.2549 269.318 40.8022 269.318 39.6743C269.318 38.3071 268.754 37.6235 267.626 37.6235C266.738 37.6235 265.507 37.9824 263.935 38.7002C262.363 39.3838 260.893 40.2212 259.526 41.2124C257.373 42.8188 255.732 44.6646 254.604 46.7495C253.955 48.0142 253.203 49.7573 252.348 51.979L246.247 67.9238L241.684 69.4619L250.144 43.7246C250.827 41.6738 251.169 40.2896 251.169 39.5718C251.169 38.5806 250.69 38.085 249.733 38.085C248.503 38.085 246.606 38.7515 244.042 40.0845C241.137 41.6226 238.984 43.5879 237.583 45.9805C236.796 47.2793 235.942 49.1763 235.019 51.6714L228.559 68.5391L223.945 70.0259L232.456 44.3398C233.208 42.1182 233.583 40.7339 233.583 40.187C233.583 39.7427 233.396 39.5205 233.02 39.5205C232.575 39.5205 231.96 39.7598 231.174 40.2383C230.49 40.6484 229.995 40.8535 229.687 40.8535C229.14 40.8535 228.867 40.563 228.867 39.9819C228.867 39.2642 230.285 38.1021 233.122 36.4956C236.335 34.7183 238.471 33.8296 239.531 33.8296C240.625 33.8296 241.171 34.2568 241.171 35.1113C241.171 35.5898 240.949 36.3931 240.505 37.521C240.095 38.4438 239.719 39.3838 239.377 40.3408C245.769 35.9316 250.878 33.7271 254.707 33.7271C255.766 33.7271 256.586 34.0005 257.167 34.5474C257.714 34.9917 257.988 35.5386 257.988 36.188C257.988 36.4614 257.731 37.6748 257.219 39.8281Z" stroke="#B52B45" stroke-width="2" mask="url(#path-1-outside-1)"/>
</svg>
