<svg width="215" height="76" fill="none" xmlns="http://www.w3.org/2000/svg"><mask id="a" maskUnits="userSpaceOnUse" x=".051" y=".607" width="215" height="75" fill="#000"><path fill="#fff" d="M.051.607h215v75h-215z"/><path d="M56.32 45.801c.649 3.657 1.178 8.289 1.589 13.894.17 1.983.41 3.264.718 3.846.307.58.734.871 1.281.871.513 0 1.18-.29 2-.872 1.264-.82 2.05-1.23 2.358-1.23.547 0 .82.29.82.872 0 .512-.444 1.145-1.333 1.897-3.93 3.35-6.75 5.024-8.46 5.024-1.674 0-2.63-1.931-2.87-5.793-.274-5.367-.445-9.126-.513-11.28-.034-2.29-.12-4.255-.256-5.896-1.436.205-2.666.308-3.692.308-2.016 0-3.606-.24-4.768-.718-1.709-.683-2.563-1.828-2.563-3.435 0-1.401.718-2.666 2.153-3.794 1.401-1.128 2.99-1.692 4.768-1.692 3.794 0 6.511 1.914 8.152 5.742 1.846-.786 3.316-1.64 4.41-2.563 1.093-.923 2.187-2.222 3.28-3.897 2.359-3.588 3.538-7.434 3.538-11.535 0-6.152-2.632-11.194-7.895-15.125-2.769-2.05-6.306-3.674-10.613-4.87a44.185 44.185 0 00-11.74-1.59c-5.162 0-10.05.889-14.664 2.666-5.605 2.12-9.724 5.144-12.356 9.075-1.982 2.94-2.974 5.896-2.974 8.87 0 3.144 1.197 5.81 3.59 7.998 2.631 2.392 5.93 3.572 9.894 3.537 1.128-.034 1.829 0 2.102.103.376.137.564.427.564.871 0 .547-.341.89-1.025 1.026-.923.17-2.12.256-3.589.256-5.605 0-10.134-1.572-13.586-4.717-2.393-2.221-3.59-5.007-3.59-8.356 0-3.487 1.283-6.888 3.846-10.203 3.93-5.059 9.673-8.733 17.227-11.023a55.306 55.306 0 0116.354-2.461c5.06 0 9.879.666 14.459 2 4.58 1.298 8.374 3.11 11.381 5.434 5.503 4.272 8.255 9.365 8.255 15.278 0 5.537-1.966 10.425-5.896 14.663-2.324 2.495-5.777 4.769-10.357 6.82zm-5.128-1.179c-.717-2.94-2.307-4.41-4.768-4.41-1.333 0-2 .565-2 1.693 0 1.093.684 1.914 2.052 2.46a8.346 8.346 0 002.922.513c.308 0 .906-.085 1.794-.256zm-.82-29.531L38.12 47.493c-1.71 4.546-3.538 8.494-5.486 11.843-3.11 5.435-7.195 9.383-12.254 11.844-1.572.752-3.418 1.418-5.537 2-2.085.58-3.742.87-4.973.87-1.025 0-1.538-.375-1.538-1.127 0-.547.444-.889 1.333-1.026 3.384-.58 6.238-1.486 8.562-2.717 2.324-1.265 4.375-2.99 6.152-5.178 2.085-2.632 4.17-6.375 6.255-11.228 3.658-8.75 7.862-19.568 12.613-32.454l.666-1.692c.24-.888.359-1.418.359-1.589 0-.41-.205-.615-.615-.615-.308 0-.94.273-1.897.82-.889.513-1.538.77-1.949.77-.649 0-.974-.308-.974-.924 0-.376.376-.82 1.128-1.333a64.284 64.284 0 016.358-3.845c2.085-1.094 3.486-1.64 4.204-1.64.752 0 1.128.341 1.128 1.025 0 .273-.427 1.538-1.282 3.794zm25.635 45.014c.786 4.136 3.23 6.204 7.331 6.204 3.35 0 6.546-1.367 9.588-4.101.786-.718 1.401-1.077 1.846-1.077.615 0 .922.29.922.871 0 .923-1.162 2.188-3.486 3.794-4.102 2.871-7.913 4.307-11.433 4.307-3.692 0-6.46-1.401-8.306-4.204-1.23-1.812-1.845-4.068-1.845-6.768 0-5.673 2.34-11.21 7.023-16.611 2.7-3.145 5.64-5.486 8.819-7.024 2.187-1.094 4.34-1.64 6.46-1.64 2.392 0 4.255.768 5.588 2.307 1.128 1.264 1.692 2.734 1.692 4.409 0 2.802-1.248 5.776-3.743 8.92-3.52 4.478-8.322 7.657-14.406 9.537-1.675.512-3.692.871-6.05 1.076zm-.154-2.102c4.033-.341 7.554-1.316 10.562-2.922 3.383-1.812 5.93-4.255 7.639-7.332 1.025-1.811 1.538-3.588 1.538-5.332 0-1.845-.53-3.28-1.59-4.306-.99-.889-2.136-1.333-3.435-1.333-3.007 0-6.015 1.726-9.023 5.178-1.914 2.188-3.418 4.854-4.512 7.998-.82 2.461-1.23 4.666-1.23 6.614l.051 1.435zm41.785-22.302c-.752 0-1.436.205-2.051.615-1.025.65-1.538 1.59-1.538 2.82 0 1.094.581 2.359 1.743 3.794.308.41 1.47 1.743 3.486 4 1.983 2.22 3.196 3.81 3.64 4.767a10.065 10.065 0 011.077 4.563c0 3.11-1.23 5.999-3.691 8.665-3.247 3.452-7.178 5.178-11.792 5.178-3.897 0-6.836-1.18-8.819-3.538-1.367-1.572-2.05-3.298-2.05-5.178 0-2.29.82-4.306 2.461-6.05.683-.717 1.247-1.076 1.691-1.076.547 0 .821.256.821.769 0 .307-.103.7-.308 1.179-.581 1.265-.871 2.546-.871 3.845 0 1.983.598 3.657 1.794 5.025 1.709 1.948 3.931 2.922 6.665 2.922 2.461 0 4.683-.855 6.665-2.564 2.119-1.845 3.179-3.964 3.179-6.357 0-1.572-.462-3.145-1.385-4.717-.41-.683-1.384-1.862-2.922-3.537-1.811-1.983-3.162-3.657-4.05-5.025-1.094-1.606-1.641-3.178-1.641-4.717 0-2.324.923-4.22 2.769-5.69 1.367-1.06 2.939-1.59 4.717-1.59 1.333 0 2.888.427 4.665 1.282.274.137.496.205.667.205.273 0 .546-.17.82-.513.342-.478.701-.718 1.077-.718.581 0 1.025.547 1.333 1.641.41 1.64.615 3.264.615 4.87 0 2.393-.462 3.59-1.384 3.59-.616 0-1.026-.513-1.231-1.538-.41-2.051-.974-3.555-1.692-4.512-1.196-1.607-2.683-2.41-4.46-2.41zm33.479-1.948c3.247 0 5.981 1.128 8.203 3.384 2.187 2.221 3.281 5.11 3.281 8.664 0 2.905-.701 5.896-2.102 8.972-1.367 3.042-3.298 5.828-5.793 8.357-4.512 4.683-9.263 7.024-14.253 7.024-3.35 0-6.067-1.213-8.152-3.64-1.88-2.187-2.82-4.905-2.82-8.152 0-3.076.684-6.203 2.051-9.382 1.367-3.213 3.23-6.016 5.588-8.408 4.478-4.546 9.143-6.82 13.997-6.82zm-2.051 2.871c-2.529 0-4.905 1.077-7.127 3.23-2.187 2.12-3.913 4.717-5.178 7.793-1.264 3.076-1.897 6.22-1.897 9.434 0 3.28.923 5.878 2.769 7.793 1.504 1.503 3.264 2.255 5.281 2.255 3.007 0 5.793-1.589 8.357-4.768 3.896-4.819 5.844-10.117 5.844-15.893 0-3.145-.888-5.674-2.666-7.588-1.401-1.504-3.196-2.256-5.383-2.256zm28.198 10.306c6.187-8.033 11.006-12.05 14.458-12.05.889 0 1.333.53 1.333 1.59 0 .752-.256 1.453-.769 2.102-.342.479-1.23.974-2.666 1.487-4.477 1.607-8.938 5.845-13.381 12.715-2.837 4.58-5.332 10.134-7.486 16.662l-4.665 1.641 8.716-26.455.256-.769c.41-1.299.615-2.102.615-2.41 0-.58-.222-.871-.666-.871-.376 0-.838.205-1.384.615-.992.684-1.727 1.025-2.205 1.025-.547 0-.82-.307-.82-.922 0-.65 1.179-1.692 3.537-3.128 3.76-2.29 6.289-3.435 7.588-3.435.889 0 1.333.444 1.333 1.333 0 .308-.427 1.624-1.282 3.948l-2.512 6.921zm27.993-7.794l-8.049 21.38c-.581 1.606-.872 2.666-.872 3.178 0 .547.24.82.718.82.445 0 1.265-.341 2.461-1.025.684-.41 1.145-.615 1.384-.615.547 0 .821.273.821.82 0 .547-1.043 1.555-3.128 3.025-3.247 2.29-5.52 3.435-6.819 3.435-.957 0-1.435-.461-1.435-1.384 0-.41.666-2.53 1.999-6.357l7.998-22.713c-1.503.103-2.973.53-4.409 1.282-.273.17-.512.256-.718.256-.41 0-.615-.222-.615-.666 0-.82.94-1.88 2.82-3.179 1.128-.752 2.564-1.213 4.307-1.384l3.999-11.177c.649-1.846.974-2.99.974-3.435 0-.478-.205-.718-.615-.718-.376 0-1.231.393-2.564 1.18-.376.204-.735.307-1.076.307-.445 0-.667-.24-.667-.718 0-.444.94-1.316 2.82-2.614 3.896-2.77 6.494-4.153 7.793-4.153.854 0 1.282.393 1.282 1.179 0 .41-.291 1.299-.872 2.666a174.464 174.464 0 00-1.641 4.101l-4.768 13.023c2.154-.103 4.016-.564 5.589-1.384.273-.137.529-.206.769-.206.615 0 .923.24.923.718 0 .445-.394 1.026-1.18 1.744a10.697 10.697 0 01-2.666 1.691c-.923.376-2.444.684-4.563.923z"/></mask><path d="M56.32 45.801c.649 3.657 1.178 8.289 1.589 13.894.17 1.983.41 3.264.718 3.846.307.58.734.871 1.281.871.513 0 1.18-.29 2-.872 1.264-.82 2.05-1.23 2.358-1.23.547 0 .82.29.82.872 0 .512-.444 1.145-1.333 1.897-3.93 3.35-6.75 5.024-8.46 5.024-1.674 0-2.63-1.931-2.87-5.793-.274-5.367-.445-9.126-.513-11.28-.034-2.29-.12-4.255-.256-5.896-1.436.205-2.666.308-3.692.308-2.016 0-3.606-.24-4.768-.718-1.709-.683-2.563-1.828-2.563-3.435 0-1.401.718-2.666 2.153-3.794 1.401-1.128 2.99-1.692 4.768-1.692 3.794 0 6.511 1.914 8.152 5.742 1.846-.786 3.316-1.64 4.41-2.563 1.093-.923 2.187-2.222 3.28-3.897 2.359-3.588 3.538-7.434 3.538-11.535 0-6.152-2.632-11.194-7.895-15.125-2.769-2.05-6.306-3.674-10.613-4.87a44.185 44.185 0 00-11.74-1.59c-5.162 0-10.05.889-14.664 2.666-5.605 2.12-9.724 5.144-12.356 9.075-1.982 2.94-2.974 5.896-2.974 8.87 0 3.144 1.197 5.81 3.59 7.998 2.631 2.392 5.93 3.572 9.894 3.537 1.128-.034 1.829 0 2.102.103.376.137.564.427.564.871 0 .547-.341.89-1.025 1.026-.923.17-2.12.256-3.589.256-5.605 0-10.134-1.572-13.586-4.717-2.393-2.221-3.59-5.007-3.59-8.356 0-3.487 1.283-6.888 3.846-10.203 3.93-5.059 9.673-8.733 17.227-11.023a55.306 55.306 0 0116.354-2.461c5.06 0 9.879.666 14.459 2 4.58 1.298 8.374 3.11 11.381 5.434 5.503 4.272 8.255 9.365 8.255 15.278 0 5.537-1.966 10.425-5.896 14.663-2.324 2.495-5.777 4.769-10.357 6.82zm-5.128-1.179c-.717-2.94-2.307-4.41-4.768-4.41-1.333 0-2 .565-2 1.693 0 1.093.684 1.914 2.052 2.46a8.346 8.346 0 002.922.513c.308 0 .906-.085 1.794-.256zm-.82-29.531L38.12 47.493c-1.71 4.546-3.538 8.494-5.486 11.843-3.11 5.435-7.195 9.383-12.254 11.844-1.572.752-3.418 1.418-5.537 2-2.085.58-3.742.87-4.973.87-1.025 0-1.538-.375-1.538-1.127 0-.547.444-.889 1.333-1.026 3.384-.58 6.238-1.486 8.562-2.717 2.324-1.265 4.375-2.99 6.152-5.178 2.085-2.632 4.17-6.375 6.255-11.228 3.658-8.75 7.862-19.568 12.613-32.454l.666-1.692c.24-.888.359-1.418.359-1.589 0-.41-.205-.615-.615-.615-.308 0-.94.273-1.897.82-.889.513-1.538.77-1.949.77-.649 0-.974-.308-.974-.924 0-.376.376-.82 1.128-1.333a64.284 64.284 0 016.358-3.845c2.085-1.094 3.486-1.64 4.204-1.64.752 0 1.128.341 1.128 1.025 0 .273-.427 1.538-1.282 3.794zm25.635 45.014c.786 4.136 3.23 6.204 7.331 6.204 3.35 0 6.546-1.367 9.588-4.101.786-.718 1.401-1.077 1.846-1.077.615 0 .922.29.922.871 0 .923-1.162 2.188-3.486 3.794-4.102 2.871-7.913 4.307-11.433 4.307-3.692 0-6.46-1.401-8.306-4.204-1.23-1.812-1.845-4.068-1.845-6.768 0-5.673 2.34-11.21 7.023-16.611 2.7-3.145 5.64-5.486 8.819-7.024 2.187-1.094 4.34-1.64 6.46-1.64 2.392 0 4.255.768 5.588 2.307 1.128 1.264 1.692 2.734 1.692 4.409 0 2.802-1.248 5.776-3.743 8.92-3.52 4.478-8.322 7.657-14.406 9.537-1.675.512-3.692.871-6.05 1.076zm-.154-2.102c4.033-.341 7.554-1.316 10.562-2.922 3.383-1.812 5.93-4.255 7.639-7.332 1.025-1.811 1.538-3.588 1.538-5.332 0-1.845-.53-3.28-1.59-4.306-.99-.889-2.136-1.333-3.435-1.333-3.007 0-6.015 1.726-9.023 5.178-1.914 2.188-3.418 4.854-4.512 7.998-.82 2.461-1.23 4.666-1.23 6.614l.051 1.435zm41.785-22.302c-.752 0-1.436.205-2.051.615-1.025.65-1.538 1.59-1.538 2.82 0 1.094.581 2.359 1.743 3.794.308.41 1.47 1.743 3.486 4 1.983 2.22 3.196 3.81 3.64 4.767a10.065 10.065 0 011.077 4.563c0 3.11-1.23 5.999-3.691 8.665-3.247 3.452-7.178 5.178-11.792 5.178-3.897 0-6.836-1.18-8.819-3.538-1.367-1.572-2.05-3.298-2.05-5.178 0-2.29.82-4.306 2.461-6.05.683-.717 1.247-1.076 1.691-1.076.547 0 .821.256.821.769 0 .307-.103.7-.308 1.179-.581 1.265-.871 2.546-.871 3.845 0 1.983.598 3.657 1.794 5.025 1.709 1.948 3.931 2.922 6.665 2.922 2.461 0 4.683-.855 6.665-2.564 2.119-1.845 3.179-3.964 3.179-6.357 0-1.572-.462-3.145-1.385-4.717-.41-.683-1.384-1.862-2.922-3.537-1.811-1.983-3.162-3.657-4.05-5.025-1.094-1.606-1.641-3.178-1.641-4.717 0-2.324.923-4.22 2.769-5.69 1.367-1.06 2.939-1.59 4.717-1.59 1.333 0 2.888.427 4.665 1.282.274.137.496.205.667.205.273 0 .546-.17.82-.513.342-.478.701-.718 1.077-.718.581 0 1.025.547 1.333 1.641.41 1.64.615 3.264.615 4.87 0 2.393-.462 3.59-1.384 3.59-.616 0-1.026-.513-1.231-1.538-.41-2.051-.974-3.555-1.692-4.512-1.196-1.607-2.683-2.41-4.46-2.41zm33.479-1.948c3.247 0 5.981 1.128 8.203 3.384 2.187 2.221 3.281 5.11 3.281 8.664 0 2.905-.701 5.896-2.102 8.972-1.367 3.042-3.298 5.828-5.793 8.357-4.512 4.683-9.263 7.024-14.253 7.024-3.35 0-6.067-1.213-8.152-3.64-1.88-2.187-2.82-4.905-2.82-8.152 0-3.076.684-6.203 2.051-9.382 1.367-3.213 3.23-6.016 5.588-8.408 4.478-4.546 9.143-6.82 13.997-6.82zm-2.051 2.871c-2.529 0-4.905 1.077-7.127 3.23-2.187 2.12-3.913 4.717-5.178 7.793-1.264 3.076-1.897 6.22-1.897 9.434 0 3.28.923 5.878 2.769 7.793 1.504 1.503 3.264 2.255 5.281 2.255 3.007 0 5.793-1.589 8.357-4.768 3.896-4.819 5.844-10.117 5.844-15.893 0-3.145-.888-5.674-2.666-7.588-1.401-1.504-3.196-2.256-5.383-2.256zm28.198 10.306c6.187-8.033 11.006-12.05 14.458-12.05.889 0 1.333.53 1.333 1.59 0 .752-.256 1.453-.769 2.102-.342.479-1.23.974-2.666 1.487-4.477 1.607-8.938 5.845-13.381 12.715-2.837 4.58-5.332 10.134-7.486 16.662l-4.665 1.641 8.716-26.455.256-.769c.41-1.299.615-2.102.615-2.41 0-.58-.222-.871-.666-.871-.376 0-.838.205-1.384.615-.992.684-1.727 1.025-2.205 1.025-.547 0-.82-.307-.82-.922 0-.65 1.179-1.692 3.537-3.128 3.76-2.29 6.289-3.435 7.588-3.435.889 0 1.333.444 1.333 1.333 0 .308-.427 1.624-1.282 3.948l-2.512 6.921zm27.993-7.794l-8.049 21.38c-.581 1.606-.872 2.666-.872 3.178 0 .547.24.82.718.82.445 0 1.265-.341 2.461-1.025.684-.41 1.145-.615 1.384-.615.547 0 .821.273.821.82 0 .547-1.043 1.555-3.128 3.025-3.247 2.29-5.52 3.435-6.819 3.435-.957 0-1.435-.461-1.435-1.384 0-.41.666-2.53 1.999-6.357l7.998-22.713c-1.503.103-2.973.53-4.409 1.282-.273.17-.512.256-.718.256-.41 0-.615-.222-.615-.666 0-.82.94-1.88 2.82-3.179 1.128-.752 2.564-1.213 4.307-1.384l3.999-11.177c.649-1.846.974-2.99.974-3.435 0-.478-.205-.718-.615-.718-.376 0-1.231.393-2.564 1.18-.376.204-.735.307-1.076.307-.445 0-.667-.24-.667-.718 0-.444.94-1.316 2.82-2.614 3.896-2.77 6.494-4.153 7.793-4.153.854 0 1.282.393 1.282 1.179 0 .41-.291 1.299-.872 2.666a174.464 174.464 0 00-1.641 4.101l-4.768 13.023c2.154-.103 4.016-.564 5.589-1.384.273-.137.529-.206.769-.206.615 0 .923.24.923.718 0 .445-.394 1.026-1.18 1.744a10.697 10.697 0 01-2.666 1.691c-.923.376-2.444.684-4.563.923z" fill="#fff"/><path d="M56.32 45.801c.649 3.657 1.178 8.289 1.589 13.894.17 1.983.41 3.264.718 3.846.307.58.734.871 1.281.871.513 0 1.18-.29 2-.872 1.264-.82 2.05-1.23 2.358-1.23.547 0 .82.29.82.872 0 .512-.444 1.145-1.333 1.897-3.93 3.35-6.75 5.024-8.46 5.024-1.674 0-2.63-1.931-2.87-5.793-.274-5.367-.445-9.126-.513-11.28-.034-2.29-.12-4.255-.256-5.896-1.436.205-2.666.308-3.692.308-2.016 0-3.606-.24-4.768-.718-1.709-.683-2.563-1.828-2.563-3.435 0-1.401.718-2.666 2.153-3.794 1.401-1.128 2.99-1.692 4.768-1.692 3.794 0 6.511 1.914 8.152 5.742 1.846-.786 3.316-1.64 4.41-2.563 1.093-.923 2.187-2.222 3.28-3.897 2.359-3.588 3.538-7.434 3.538-11.535 0-6.152-2.632-11.194-7.895-15.125-2.769-2.05-6.306-3.674-10.613-4.87a44.185 44.185 0 00-11.74-1.59c-5.162 0-10.05.889-14.664 2.666-5.605 2.12-9.724 5.144-12.356 9.075-1.982 2.94-2.974 5.896-2.974 8.87 0 3.144 1.197 5.81 3.59 7.998 2.631 2.392 5.93 3.572 9.894 3.537 1.128-.034 1.829 0 2.102.103.376.137.564.427.564.871 0 .547-.341.89-1.025 1.026-.923.17-2.12.256-3.589.256-5.605 0-10.134-1.572-13.586-4.717-2.393-2.221-3.59-5.007-3.59-8.356 0-3.487 1.283-6.888 3.846-10.203 3.93-5.059 9.673-8.733 17.227-11.023a55.306 55.306 0 0116.354-2.461c5.06 0 9.879.666 14.459 2 4.58 1.298 8.374 3.11 11.381 5.434 5.503 4.272 8.255 9.365 8.255 15.278 0 5.537-1.966 10.425-5.896 14.663-2.324 2.495-5.777 4.769-10.357 6.82zm-5.128-1.179c-.717-2.94-2.307-4.41-4.768-4.41-1.333 0-2 .565-2 1.693 0 1.093.684 1.914 2.052 2.46a8.346 8.346 0 002.922.513c.308 0 .906-.085 1.794-.256zm-.82-29.531L38.12 47.493c-1.71 4.546-3.538 8.494-5.486 11.843-3.11 5.435-7.195 9.383-12.254 11.844-1.572.752-3.418 1.418-5.537 2-2.085.58-3.742.87-4.973.87-1.025 0-1.538-.375-1.538-1.127 0-.547.444-.889 1.333-1.026 3.384-.58 6.238-1.486 8.562-2.717 2.324-1.265 4.375-2.99 6.152-5.178 2.085-2.632 4.17-6.375 6.255-11.228 3.658-8.75 7.862-19.568 12.613-32.454l.666-1.692c.24-.888.359-1.418.359-1.589 0-.41-.205-.615-.615-.615-.308 0-.94.273-1.897.82-.889.513-1.538.77-1.949.77-.649 0-.974-.308-.974-.924 0-.376.376-.82 1.128-1.333a64.284 64.284 0 016.358-3.845c2.085-1.094 3.486-1.64 4.204-1.64.752 0 1.128.341 1.128 1.025 0 .273-.427 1.538-1.282 3.794zm25.635 45.014c.786 4.136 3.23 6.204 7.331 6.204 3.35 0 6.546-1.367 9.588-4.101.786-.718 1.401-1.077 1.846-1.077.615 0 .922.29.922.871 0 .923-1.162 2.188-3.486 3.794-4.102 2.871-7.913 4.307-11.433 4.307-3.692 0-6.46-1.401-8.306-4.204-1.23-1.812-1.845-4.068-1.845-6.768 0-5.673 2.34-11.21 7.023-16.611 2.7-3.145 5.64-5.486 8.819-7.024 2.187-1.094 4.34-1.64 6.46-1.64 2.392 0 4.255.768 5.588 2.307 1.128 1.264 1.692 2.734 1.692 4.409 0 2.802-1.248 5.776-3.743 8.92-3.52 4.478-8.322 7.657-14.406 9.537-1.675.512-3.692.871-6.05 1.076zm-.154-2.102c4.033-.341 7.554-1.316 10.562-2.922 3.383-1.812 5.93-4.255 7.639-7.332 1.025-1.811 1.538-3.588 1.538-5.332 0-1.845-.53-3.28-1.59-4.306-.99-.889-2.136-1.333-3.435-1.333-3.007 0-6.015 1.726-9.023 5.178-1.914 2.188-3.418 4.854-4.512 7.998-.82 2.461-1.23 4.666-1.23 6.614l.051 1.435zm41.785-22.302c-.752 0-1.436.205-2.051.615-1.025.65-1.538 1.59-1.538 2.82 0 1.094.581 2.359 1.743 3.794.308.41 1.47 1.743 3.486 4 1.983 2.22 3.196 3.81 3.64 4.767a10.065 10.065 0 011.077 4.563c0 3.11-1.23 5.999-3.691 8.665-3.247 3.452-7.178 5.178-11.792 5.178-3.897 0-6.836-1.18-8.819-3.538-1.367-1.572-2.05-3.298-2.05-5.178 0-2.29.82-4.306 2.461-6.05.683-.717 1.247-1.076 1.691-1.076.547 0 .821.256.821.769 0 .307-.103.7-.308 1.179-.581 1.265-.871 2.546-.871 3.845 0 1.983.598 3.657 1.794 5.025 1.709 1.948 3.931 2.922 6.665 2.922 2.461 0 4.683-.855 6.665-2.564 2.119-1.845 3.179-3.964 3.179-6.357 0-1.572-.462-3.145-1.385-4.717-.41-.683-1.384-1.862-2.922-3.537-1.811-1.983-3.162-3.657-4.05-5.025-1.094-1.606-1.641-3.178-1.641-4.717 0-2.324.923-4.22 2.769-5.69 1.367-1.06 2.939-1.59 4.717-1.59 1.333 0 2.888.427 4.665 1.282.274.137.496.205.667.205.273 0 .546-.17.82-.513.342-.478.701-.718 1.077-.718.581 0 1.025.547 1.333 1.641.41 1.64.615 3.264.615 4.87 0 2.393-.462 3.59-1.384 3.59-.616 0-1.026-.513-1.231-1.538-.41-2.051-.974-3.555-1.692-4.512-1.196-1.607-2.683-2.41-4.46-2.41zm33.479-1.948c3.247 0 5.981 1.128 8.203 3.384 2.187 2.221 3.281 5.11 3.281 8.664 0 2.905-.701 5.896-2.102 8.972-1.367 3.042-3.298 5.828-5.793 8.357-4.512 4.683-9.263 7.024-14.253 7.024-3.35 0-6.067-1.213-8.152-3.64-1.88-2.187-2.82-4.905-2.82-8.152 0-3.076.684-6.203 2.051-9.382 1.367-3.213 3.23-6.016 5.588-8.408 4.478-4.546 9.143-6.82 13.997-6.82zm-2.051 2.871c-2.529 0-4.905 1.077-7.127 3.23-2.187 2.12-3.913 4.717-5.178 7.793-1.264 3.076-1.897 6.22-1.897 9.434 0 3.28.923 5.878 2.769 7.793 1.504 1.503 3.264 2.255 5.281 2.255 3.007 0 5.793-1.589 8.357-4.768 3.896-4.819 5.844-10.117 5.844-15.893 0-3.145-.888-5.674-2.666-7.588-1.401-1.504-3.196-2.256-5.383-2.256zm28.198 10.306c6.187-8.033 11.006-12.05 14.458-12.05.889 0 1.333.53 1.333 1.59 0 .752-.256 1.453-.769 2.102-.342.479-1.23.974-2.666 1.487-4.477 1.607-8.938 5.845-13.381 12.715-2.837 4.58-5.332 10.134-7.486 16.662l-4.665 1.641 8.716-26.455.256-.769c.41-1.299.615-2.102.615-2.41 0-.58-.222-.871-.666-.871-.376 0-.838.205-1.384.615-.992.684-1.727 1.025-2.205 1.025-.547 0-.82-.307-.82-.922 0-.65 1.179-1.692 3.537-3.128 3.76-2.29 6.289-3.435 7.588-3.435.889 0 1.333.444 1.333 1.333 0 .308-.427 1.624-1.282 3.948l-2.512 6.921zm27.993-7.794l-8.049 21.38c-.581 1.606-.872 2.666-.872 3.178 0 .547.24.82.718.82.445 0 1.265-.341 2.461-1.025.684-.41 1.145-.615 1.384-.615.547 0 .821.273.821.82 0 .547-1.043 1.555-3.128 3.025-3.247 2.29-5.52 3.435-6.819 3.435-.957 0-1.435-.461-1.435-1.384 0-.41.666-2.53 1.999-6.357l7.998-22.713c-1.503.103-2.973.53-4.409 1.282-.273.17-.512.256-.718.256-.41 0-.615-.222-.615-.666 0-.82.94-1.88 2.82-3.179 1.128-.752 2.564-1.213 4.307-1.384l3.999-11.177c.649-1.846.974-2.99.974-3.435 0-.478-.205-.718-.615-.718-.376 0-1.231.393-2.564 1.18-.376.204-.735.307-1.076.307-.445 0-.667-.24-.667-.718 0-.444.94-1.316 2.82-2.614 3.896-2.77 6.494-4.153 7.793-4.153.854 0 1.282.393 1.282 1.179 0 .41-.291 1.299-.872 2.666a174.464 174.464 0 00-1.641 4.101l-4.768 13.023c2.154-.103 4.016-.564 5.589-1.384.273-.137.529-.206.769-.206.615 0 .923.24.923.718 0 .445-.394 1.026-1.18 1.744a10.697 10.697 0 01-2.666 1.691c-.923.376-2.444.684-4.563.923z" stroke="#B52B45" stroke-width="2" mask="url(#a)"/></svg>