<svg width="215" height="76" viewBox="0 0 215 76" fill="none" xmlns="http://www.w3.org/2000/svg">
<mask id="path-1-outside-1" maskUnits="userSpaceOnUse" x="0.0507812" y="0.606934" width="215" height="75" fill="black">
<rect fill="white" x="0.0507812" y="0.606934" width="215" height="75"/>
<path d="M56.3193 45.8013C56.9688 49.4585 57.4985 54.0898 57.9087 59.6953C58.0796 61.6777 58.3188 62.9595 58.6265 63.5405C58.9341 64.1216 59.3613 64.4121 59.9082 64.4121C60.4209 64.4121 61.0874 64.1216 61.9077 63.5405C63.1724 62.7202 63.9585 62.3101 64.2661 62.3101C64.813 62.3101 65.0864 62.6006 65.0864 63.1816C65.0864 63.6943 64.6421 64.3267 63.7534 65.0786C59.8228 68.4282 57.0029 70.103 55.2939 70.103C53.6191 70.103 52.6621 68.1719 52.4229 64.3096C52.1494 58.9434 51.9785 55.1836 51.9102 53.0303C51.876 50.7402 51.7905 48.7749 51.6538 47.1343C50.2183 47.3394 48.9878 47.4419 47.9624 47.4419C45.9458 47.4419 44.3564 47.2026 43.1943 46.7241C41.4854 46.0405 40.6309 44.8955 40.6309 43.2891C40.6309 41.8877 41.3486 40.623 42.7842 39.4951C44.1855 38.3672 45.7749 37.8032 47.5522 37.8032C51.3462 37.8032 54.0635 39.7173 55.7041 43.5454C57.5498 42.7593 59.0195 41.9048 60.1133 40.9819C61.207 40.0591 62.3008 38.7603 63.3945 37.0854C65.7529 33.4966 66.9321 29.6514 66.9321 25.5498C66.9321 19.3975 64.3003 14.356 59.0366 10.4253C56.2681 8.37451 52.7305 6.75098 48.4238 5.55469C44.5615 4.49512 40.6479 3.96533 36.6831 3.96533C31.522 3.96533 26.6343 4.854 22.02 6.63135C16.4146 8.75049 12.2959 11.7754 9.66406 15.7061C7.68164 18.6455 6.69043 21.6021 6.69043 24.5757C6.69043 27.7202 7.88672 30.3862 10.2793 32.5737C12.9111 34.9663 16.2095 36.1455 20.1743 36.1113C21.3022 36.0771 22.0029 36.1113 22.2764 36.2139C22.6523 36.3506 22.8403 36.6411 22.8403 37.0854C22.8403 37.6323 22.4985 37.9741 21.8149 38.1108C20.8921 38.2817 19.6958 38.3672 18.2261 38.3672C12.6206 38.3672 8.0918 36.7949 4.63965 33.6504C2.24707 31.4287 1.05078 28.6431 1.05078 25.2935C1.05078 21.8071 2.33252 18.4062 4.896 15.0908C8.82666 10.0322 14.5688 6.35791 22.1226 4.06787C27.4546 2.42725 32.9062 1.60693 38.4775 1.60693C43.5361 1.60693 48.3555 2.27344 52.9355 3.60645C57.5156 4.90527 61.3096 6.7168 64.3174 9.04102C69.8203 13.3135 72.5718 18.4062 72.5718 24.3193C72.5718 29.8564 70.6064 34.7441 66.6758 38.9824C64.3516 41.4775 60.8994 43.7505 56.3193 45.8013ZM51.1924 44.6221C50.4746 41.6826 48.8853 40.2129 46.4243 40.2129C45.0913 40.2129 44.4248 40.7769 44.4248 41.9048C44.4248 42.9985 45.1084 43.8188 46.4756 44.3657C47.3984 44.7075 48.3726 44.8784 49.3979 44.8784C49.7056 44.8784 50.3037 44.793 51.1924 44.6221ZM50.3721 15.0908L38.1187 47.4932C36.4097 52.0391 34.5811 55.9868 32.6328 59.3364C29.5225 64.771 25.438 68.7188 20.3794 71.1797C18.8071 71.9316 16.9614 72.5981 14.8423 73.1792C12.7573 73.7603 11.0996 74.0508 9.86914 74.0508C8.84375 74.0508 8.33105 73.6748 8.33105 72.9229C8.33105 72.376 8.77539 72.0342 9.66406 71.8975C13.0479 71.3164 15.9019 70.4106 18.2261 69.1802C20.5503 67.9155 22.6011 66.1895 24.3784 64.002C26.4634 61.3701 28.5483 57.6274 30.6333 52.7739C34.2905 44.0239 38.4946 33.2061 43.2456 20.3203L43.9121 18.6284C44.1514 17.7397 44.271 17.21 44.271 17.0391C44.271 16.6289 44.0659 16.4238 43.6558 16.4238C43.3481 16.4238 42.7158 16.6973 41.7588 17.2441C40.8701 17.7568 40.2207 18.0132 39.8105 18.0132C39.1611 18.0132 38.8364 17.7056 38.8364 17.0903C38.8364 16.7144 39.2124 16.27 39.9644 15.7573C42.1177 14.2876 44.2368 13.0059 46.3218 11.9121C48.4067 10.8184 49.8081 10.2715 50.5259 10.2715C51.2778 10.2715 51.6538 10.6133 51.6538 11.2969C51.6538 11.5703 51.2266 12.835 50.3721 15.0908Z"/>
<path d="M76.0068 60.1055C76.793 64.2412 79.2368 66.3091 83.3384 66.3091C86.688 66.3091 89.8838 64.9419 92.9258 62.2075C93.7119 61.4897 94.3271 61.1309 94.7715 61.1309C95.3867 61.1309 95.6943 61.4214 95.6943 62.0024C95.6943 62.9253 94.5322 64.1899 92.208 65.7964C88.1064 68.6675 84.2954 70.103 80.7749 70.103C77.0835 70.103 74.3149 68.7017 72.4692 65.8989C71.2388 64.0874 70.6235 61.8315 70.6235 59.1313C70.6235 53.4575 72.9648 47.9204 77.6475 42.52C80.3477 39.3755 83.2871 37.0342 86.4658 35.4961C88.6533 34.4023 90.8066 33.8555 92.9258 33.8555C95.3184 33.8555 97.1812 34.6245 98.5142 36.1626C99.6421 37.4272 100.206 38.897 100.206 40.5718C100.206 43.3745 98.9585 46.3481 96.4634 49.4927C92.9429 53.9702 88.1406 57.1489 82.0566 59.0288C80.3818 59.5415 78.3652 59.9004 76.0068 60.1055ZM75.853 58.0034C79.8862 57.6616 83.4067 56.6875 86.4146 55.0811C89.7983 53.2695 92.3447 50.8257 94.0537 47.7495C95.0791 45.938 95.5918 44.1606 95.5918 42.4175C95.5918 40.5718 95.062 39.1362 94.0024 38.1108C93.0112 37.2222 91.8662 36.7778 90.5674 36.7778C87.5596 36.7778 84.5518 38.5039 81.5439 41.9561C79.6299 44.1436 78.126 46.8096 77.0322 49.9541C76.2119 52.415 75.8018 54.6196 75.8018 56.5679L75.853 58.0034Z"/>
<path d="M117.638 35.7012C116.886 35.7012 116.202 35.9062 115.587 36.3164C114.562 36.9658 114.049 37.9058 114.049 39.1362C114.049 40.23 114.63 41.4946 115.792 42.9302C116.1 43.3403 117.262 44.6733 119.278 46.9292C121.261 49.1509 122.474 50.7402 122.918 51.6973C123.636 53.1328 123.995 54.6538 123.995 56.2603C123.995 59.3706 122.765 62.2588 120.304 64.9248C117.057 68.377 113.126 70.103 108.512 70.103C104.615 70.103 101.676 68.9238 99.6934 66.5654C98.3262 64.9932 97.6426 63.2671 97.6426 61.3872C97.6426 59.0972 98.4629 57.0806 100.104 55.3374C100.787 54.6196 101.351 54.2607 101.795 54.2607C102.342 54.2607 102.616 54.5171 102.616 55.0298C102.616 55.3374 102.513 55.7305 102.308 56.209C101.727 57.4736 101.437 58.7554 101.437 60.0542C101.437 62.0366 102.035 63.7114 103.231 65.0786C104.94 67.0269 107.162 68.001 109.896 68.001C112.357 68.001 114.579 67.1465 116.561 65.4375C118.68 63.5918 119.74 61.4727 119.74 59.0801C119.74 57.5078 119.278 55.9355 118.355 54.3633C117.945 53.6797 116.971 52.5005 115.433 50.8257C113.622 48.8433 112.271 47.1685 111.383 45.8013C110.289 44.1948 109.742 42.6226 109.742 41.0845C109.742 38.7603 110.665 36.8633 112.511 35.3936C113.878 34.334 115.45 33.8042 117.228 33.8042C118.561 33.8042 120.116 34.2314 121.893 35.0859C122.167 35.2227 122.389 35.291 122.56 35.291C122.833 35.291 123.106 35.1201 123.38 34.7783C123.722 34.2998 124.081 34.0605 124.457 34.0605C125.038 34.0605 125.482 34.6074 125.79 35.7012C126.2 37.3418 126.405 38.9653 126.405 40.5718C126.405 42.9644 125.943 44.1606 125.021 44.1606C124.405 44.1606 123.995 43.6479 123.79 42.6226C123.38 40.5718 122.816 39.0679 122.098 38.1108C120.902 36.5044 119.415 35.7012 117.638 35.7012Z"/>
<path d="M151.117 33.7529C154.364 33.7529 157.098 34.8809 159.32 37.1367C161.507 39.3584 162.601 42.2466 162.601 45.8013C162.601 48.7065 161.9 51.6973 160.499 54.7734C159.132 57.8154 157.201 60.6011 154.706 63.1304C150.194 67.813 145.443 70.1543 140.453 70.1543C137.103 70.1543 134.386 68.9409 132.301 66.5142C130.421 64.3267 129.481 61.6094 129.481 58.3623C129.481 55.2861 130.165 52.1587 131.532 48.98C132.899 45.7671 134.762 42.9644 137.12 40.5718C141.598 36.0259 146.263 33.7529 151.117 33.7529ZM149.066 36.624C146.537 36.624 144.161 37.7007 141.939 39.854C139.752 41.9731 138.026 44.5708 136.761 47.647C135.497 50.7231 134.864 53.8677 134.864 57.0806C134.864 60.3618 135.787 62.9595 137.633 64.8735C139.137 66.3774 140.897 67.1294 142.914 67.1294C145.921 67.1294 148.707 65.54 151.271 62.3613C155.167 57.542 157.115 52.2441 157.115 46.4678C157.115 43.3232 156.227 40.7939 154.449 38.8799C153.048 37.376 151.253 36.624 149.066 36.624Z"/>
<path d="M177.264 46.9292C183.451 38.897 188.27 34.8809 191.722 34.8809C192.611 34.8809 193.055 35.4106 193.055 36.4702C193.055 37.2222 192.799 37.9229 192.286 38.5723C191.944 39.0508 191.056 39.5464 189.62 40.0591C185.143 41.6655 180.682 45.9038 176.239 52.7739C173.402 57.354 170.907 62.9082 168.753 69.4365L164.088 71.0771L172.804 44.6221L173.06 43.853C173.47 42.5542 173.675 41.751 173.675 41.4434C173.675 40.8623 173.453 40.5718 173.009 40.5718C172.633 40.5718 172.171 40.7769 171.625 41.187C170.633 41.8706 169.898 42.2124 169.42 42.2124C168.873 42.2124 168.6 41.9048 168.6 41.2896C168.6 40.6401 169.779 39.5977 172.137 38.1621C175.897 35.8721 178.426 34.7271 179.725 34.7271C180.614 34.7271 181.058 35.1714 181.058 36.0601C181.058 36.3677 180.631 37.6836 179.776 40.0078L177.264 46.9292Z"/>
<path d="M205.257 39.1362L197.208 60.5156C196.627 62.1221 196.336 63.1816 196.336 63.6943C196.336 64.2412 196.576 64.5146 197.054 64.5146C197.499 64.5146 198.319 64.1729 199.515 63.4893C200.199 63.0791 200.66 62.874 200.899 62.874C201.446 62.874 201.72 63.1475 201.72 63.6943C201.72 64.2412 200.677 65.2495 198.592 66.7192C195.345 69.0093 193.072 70.1543 191.773 70.1543C190.816 70.1543 190.338 69.6929 190.338 68.77C190.338 68.3599 191.004 66.2407 192.337 62.4126L200.335 39.7002C198.832 39.8027 197.362 40.23 195.926 40.9819C195.653 41.1528 195.414 41.2383 195.208 41.2383C194.798 41.2383 194.593 41.0161 194.593 40.5718C194.593 39.7515 195.533 38.6919 197.413 37.3931C198.541 36.6411 199.977 36.1797 201.72 36.0088L205.719 24.832C206.368 22.9863 206.693 21.8413 206.693 21.397C206.693 20.9185 206.488 20.6792 206.078 20.6792C205.702 20.6792 204.847 21.0723 203.514 21.8584C203.138 22.0635 202.779 22.166 202.438 22.166C201.993 22.166 201.771 21.9268 201.771 21.4482C201.771 21.0039 202.711 20.1323 204.591 18.8335C208.487 16.0649 211.085 14.6807 212.384 14.6807C213.238 14.6807 213.666 15.0737 213.666 15.8599C213.666 16.27 213.375 17.1587 212.794 18.5259C212.145 20.0981 211.598 21.4653 211.153 22.6274L206.385 35.6499C208.539 35.5474 210.401 35.0859 211.974 34.2656C212.247 34.1289 212.503 34.0605 212.743 34.0605C213.358 34.0605 213.666 34.2998 213.666 34.7783C213.666 35.2227 213.272 35.8037 212.486 36.5215C211.7 37.2051 210.812 37.769 209.82 38.2134C208.897 38.5894 207.376 38.897 205.257 39.1362Z"/>
</mask>
<path d="M56.3193 45.8013C56.9688 49.4585 57.4985 54.0898 57.9087 59.6953C58.0796 61.6777 58.3188 62.9595 58.6265 63.5405C58.9341 64.1216 59.3613 64.4121 59.9082 64.4121C60.4209 64.4121 61.0874 64.1216 61.9077 63.5405C63.1724 62.7202 63.9585 62.3101 64.2661 62.3101C64.813 62.3101 65.0864 62.6006 65.0864 63.1816C65.0864 63.6943 64.6421 64.3267 63.7534 65.0786C59.8228 68.4282 57.0029 70.103 55.2939 70.103C53.6191 70.103 52.6621 68.1719 52.4229 64.3096C52.1494 58.9434 51.9785 55.1836 51.9102 53.0303C51.876 50.7402 51.7905 48.7749 51.6538 47.1343C50.2183 47.3394 48.9878 47.4419 47.9624 47.4419C45.9458 47.4419 44.3564 47.2026 43.1943 46.7241C41.4854 46.0405 40.6309 44.8955 40.6309 43.2891C40.6309 41.8877 41.3486 40.623 42.7842 39.4951C44.1855 38.3672 45.7749 37.8032 47.5522 37.8032C51.3462 37.8032 54.0635 39.7173 55.7041 43.5454C57.5498 42.7593 59.0195 41.9048 60.1133 40.9819C61.207 40.0591 62.3008 38.7603 63.3945 37.0854C65.7529 33.4966 66.9321 29.6514 66.9321 25.5498C66.9321 19.3975 64.3003 14.356 59.0366 10.4253C56.2681 8.37451 52.7305 6.75098 48.4238 5.55469C44.5615 4.49512 40.6479 3.96533 36.6831 3.96533C31.522 3.96533 26.6343 4.854 22.02 6.63135C16.4146 8.75049 12.2959 11.7754 9.66406 15.7061C7.68164 18.6455 6.69043 21.6021 6.69043 24.5757C6.69043 27.7202 7.88672 30.3862 10.2793 32.5737C12.9111 34.9663 16.2095 36.1455 20.1743 36.1113C21.3022 36.0771 22.0029 36.1113 22.2764 36.2139C22.6523 36.3506 22.8403 36.6411 22.8403 37.0854C22.8403 37.6323 22.4985 37.9741 21.8149 38.1108C20.8921 38.2817 19.6958 38.3672 18.2261 38.3672C12.6206 38.3672 8.0918 36.7949 4.63965 33.6504C2.24707 31.4287 1.05078 28.6431 1.05078 25.2935C1.05078 21.8071 2.33252 18.4062 4.896 15.0908C8.82666 10.0322 14.5688 6.35791 22.1226 4.06787C27.4546 2.42725 32.9062 1.60693 38.4775 1.60693C43.5361 1.60693 48.3555 2.27344 52.9355 3.60645C57.5156 4.90527 61.3096 6.7168 64.3174 9.04102C69.8203 13.3135 72.5718 18.4062 72.5718 24.3193C72.5718 29.8564 70.6064 34.7441 66.6758 38.9824C64.3516 41.4775 60.8994 43.7505 56.3193 45.8013ZM51.1924 44.6221C50.4746 41.6826 48.8853 40.2129 46.4243 40.2129C45.0913 40.2129 44.4248 40.7769 44.4248 41.9048C44.4248 42.9985 45.1084 43.8188 46.4756 44.3657C47.3984 44.7075 48.3726 44.8784 49.3979 44.8784C49.7056 44.8784 50.3037 44.793 51.1924 44.6221ZM50.3721 15.0908L38.1187 47.4932C36.4097 52.0391 34.5811 55.9868 32.6328 59.3364C29.5225 64.771 25.438 68.7188 20.3794 71.1797C18.8071 71.9316 16.9614 72.5981 14.8423 73.1792C12.7573 73.7603 11.0996 74.0508 9.86914 74.0508C8.84375 74.0508 8.33105 73.6748 8.33105 72.9229C8.33105 72.376 8.77539 72.0342 9.66406 71.8975C13.0479 71.3164 15.9019 70.4106 18.2261 69.1802C20.5503 67.9155 22.6011 66.1895 24.3784 64.002C26.4634 61.3701 28.5483 57.6274 30.6333 52.7739C34.2905 44.0239 38.4946 33.2061 43.2456 20.3203L43.9121 18.6284C44.1514 17.7397 44.271 17.21 44.271 17.0391C44.271 16.6289 44.0659 16.4238 43.6558 16.4238C43.3481 16.4238 42.7158 16.6973 41.7588 17.2441C40.8701 17.7568 40.2207 18.0132 39.8105 18.0132C39.1611 18.0132 38.8364 17.7056 38.8364 17.0903C38.8364 16.7144 39.2124 16.27 39.9644 15.7573C42.1177 14.2876 44.2368 13.0059 46.3218 11.9121C48.4067 10.8184 49.8081 10.2715 50.5259 10.2715C51.2778 10.2715 51.6538 10.6133 51.6538 11.2969C51.6538 11.5703 51.2266 12.835 50.3721 15.0908Z" fill="white"/>
<path d="M76.0068 60.1055C76.793 64.2412 79.2368 66.3091 83.3384 66.3091C86.688 66.3091 89.8838 64.9419 92.9258 62.2075C93.7119 61.4897 94.3271 61.1309 94.7715 61.1309C95.3867 61.1309 95.6943 61.4214 95.6943 62.0024C95.6943 62.9253 94.5322 64.1899 92.208 65.7964C88.1064 68.6675 84.2954 70.103 80.7749 70.103C77.0835 70.103 74.3149 68.7017 72.4692 65.8989C71.2388 64.0874 70.6235 61.8315 70.6235 59.1313C70.6235 53.4575 72.9648 47.9204 77.6475 42.52C80.3477 39.3755 83.2871 37.0342 86.4658 35.4961C88.6533 34.4023 90.8066 33.8555 92.9258 33.8555C95.3184 33.8555 97.1812 34.6245 98.5142 36.1626C99.6421 37.4272 100.206 38.897 100.206 40.5718C100.206 43.3745 98.9585 46.3481 96.4634 49.4927C92.9429 53.9702 88.1406 57.1489 82.0566 59.0288C80.3818 59.5415 78.3652 59.9004 76.0068 60.1055ZM75.853 58.0034C79.8862 57.6616 83.4067 56.6875 86.4146 55.0811C89.7983 53.2695 92.3447 50.8257 94.0537 47.7495C95.0791 45.938 95.5918 44.1606 95.5918 42.4175C95.5918 40.5718 95.062 39.1362 94.0024 38.1108C93.0112 37.2222 91.8662 36.7778 90.5674 36.7778C87.5596 36.7778 84.5518 38.5039 81.5439 41.9561C79.6299 44.1436 78.126 46.8096 77.0322 49.9541C76.2119 52.415 75.8018 54.6196 75.8018 56.5679L75.853 58.0034Z" fill="white"/>
<path d="M117.638 35.7012C116.886 35.7012 116.202 35.9062 115.587 36.3164C114.562 36.9658 114.049 37.9058 114.049 39.1362C114.049 40.23 114.63 41.4946 115.792 42.9302C116.1 43.3403 117.262 44.6733 119.278 46.9292C121.261 49.1509 122.474 50.7402 122.918 51.6973C123.636 53.1328 123.995 54.6538 123.995 56.2603C123.995 59.3706 122.765 62.2588 120.304 64.9248C117.057 68.377 113.126 70.103 108.512 70.103C104.615 70.103 101.676 68.9238 99.6934 66.5654C98.3262 64.9932 97.6426 63.2671 97.6426 61.3872C97.6426 59.0972 98.4629 57.0806 100.104 55.3374C100.787 54.6196 101.351 54.2607 101.795 54.2607C102.342 54.2607 102.616 54.5171 102.616 55.0298C102.616 55.3374 102.513 55.7305 102.308 56.209C101.727 57.4736 101.437 58.7554 101.437 60.0542C101.437 62.0366 102.035 63.7114 103.231 65.0786C104.94 67.0269 107.162 68.001 109.896 68.001C112.357 68.001 114.579 67.1465 116.561 65.4375C118.68 63.5918 119.74 61.4727 119.74 59.0801C119.74 57.5078 119.278 55.9355 118.355 54.3633C117.945 53.6797 116.971 52.5005 115.433 50.8257C113.622 48.8433 112.271 47.1685 111.383 45.8013C110.289 44.1948 109.742 42.6226 109.742 41.0845C109.742 38.7603 110.665 36.8633 112.511 35.3936C113.878 34.334 115.45 33.8042 117.228 33.8042C118.561 33.8042 120.116 34.2314 121.893 35.0859C122.167 35.2227 122.389 35.291 122.56 35.291C122.833 35.291 123.106 35.1201 123.38 34.7783C123.722 34.2998 124.081 34.0605 124.457 34.0605C125.038 34.0605 125.482 34.6074 125.79 35.7012C126.2 37.3418 126.405 38.9653 126.405 40.5718C126.405 42.9644 125.943 44.1606 125.021 44.1606C124.405 44.1606 123.995 43.6479 123.79 42.6226C123.38 40.5718 122.816 39.0679 122.098 38.1108C120.902 36.5044 119.415 35.7012 117.638 35.7012Z" fill="white"/>
<path d="M151.117 33.7529C154.364 33.7529 157.098 34.8809 159.32 37.1367C161.507 39.3584 162.601 42.2466 162.601 45.8013C162.601 48.7065 161.9 51.6973 160.499 54.7734C159.132 57.8154 157.201 60.6011 154.706 63.1304C150.194 67.813 145.443 70.1543 140.453 70.1543C137.103 70.1543 134.386 68.9409 132.301 66.5142C130.421 64.3267 129.481 61.6094 129.481 58.3623C129.481 55.2861 130.165 52.1587 131.532 48.98C132.899 45.7671 134.762 42.9644 137.12 40.5718C141.598 36.0259 146.263 33.7529 151.117 33.7529ZM149.066 36.624C146.537 36.624 144.161 37.7007 141.939 39.854C139.752 41.9731 138.026 44.5708 136.761 47.647C135.497 50.7231 134.864 53.8677 134.864 57.0806C134.864 60.3618 135.787 62.9595 137.633 64.8735C139.137 66.3774 140.897 67.1294 142.914 67.1294C145.921 67.1294 148.707 65.54 151.271 62.3613C155.167 57.542 157.115 52.2441 157.115 46.4678C157.115 43.3232 156.227 40.7939 154.449 38.8799C153.048 37.376 151.253 36.624 149.066 36.624Z" fill="white"/>
<path d="M177.264 46.9292C183.451 38.897 188.27 34.8809 191.722 34.8809C192.611 34.8809 193.055 35.4106 193.055 36.4702C193.055 37.2222 192.799 37.9229 192.286 38.5723C191.944 39.0508 191.056 39.5464 189.62 40.0591C185.143 41.6655 180.682 45.9038 176.239 52.7739C173.402 57.354 170.907 62.9082 168.753 69.4365L164.088 71.0771L172.804 44.6221L173.06 43.853C173.47 42.5542 173.675 41.751 173.675 41.4434C173.675 40.8623 173.453 40.5718 173.009 40.5718C172.633 40.5718 172.171 40.7769 171.625 41.187C170.633 41.8706 169.898 42.2124 169.42 42.2124C168.873 42.2124 168.6 41.9048 168.6 41.2896C168.6 40.6401 169.779 39.5977 172.137 38.1621C175.897 35.8721 178.426 34.7271 179.725 34.7271C180.614 34.7271 181.058 35.1714 181.058 36.0601C181.058 36.3677 180.631 37.6836 179.776 40.0078L177.264 46.9292Z" fill="white"/>
<path d="M205.257 39.1362L197.208 60.5156C196.627 62.1221 196.336 63.1816 196.336 63.6943C196.336 64.2412 196.576 64.5146 197.054 64.5146C197.499 64.5146 198.319 64.1729 199.515 63.4893C200.199 63.0791 200.66 62.874 200.899 62.874C201.446 62.874 201.72 63.1475 201.72 63.6943C201.72 64.2412 200.677 65.2495 198.592 66.7192C195.345 69.0093 193.072 70.1543 191.773 70.1543C190.816 70.1543 190.338 69.6929 190.338 68.77C190.338 68.3599 191.004 66.2407 192.337 62.4126L200.335 39.7002C198.832 39.8027 197.362 40.23 195.926 40.9819C195.653 41.1528 195.414 41.2383 195.208 41.2383C194.798 41.2383 194.593 41.0161 194.593 40.5718C194.593 39.7515 195.533 38.6919 197.413 37.3931C198.541 36.6411 199.977 36.1797 201.72 36.0088L205.719 24.832C206.368 22.9863 206.693 21.8413 206.693 21.397C206.693 20.9185 206.488 20.6792 206.078 20.6792C205.702 20.6792 204.847 21.0723 203.514 21.8584C203.138 22.0635 202.779 22.166 202.438 22.166C201.993 22.166 201.771 21.9268 201.771 21.4482C201.771 21.0039 202.711 20.1323 204.591 18.8335C208.487 16.0649 211.085 14.6807 212.384 14.6807C213.238 14.6807 213.666 15.0737 213.666 15.8599C213.666 16.27 213.375 17.1587 212.794 18.5259C212.145 20.0981 211.598 21.4653 211.153 22.6274L206.385 35.6499C208.539 35.5474 210.401 35.0859 211.974 34.2656C212.247 34.1289 212.503 34.0605 212.743 34.0605C213.358 34.0605 213.666 34.2998 213.666 34.7783C213.666 35.2227 213.272 35.8037 212.486 36.5215C211.7 37.2051 210.812 37.769 209.82 38.2134C208.897 38.5894 207.376 38.897 205.257 39.1362Z" fill="white"/>
<path d="M56.3193 45.8013C56.9688 49.4585 57.4985 54.0898 57.9087 59.6953C58.0796 61.6777 58.3188 62.9595 58.6265 63.5405C58.9341 64.1216 59.3613 64.4121 59.9082 64.4121C60.4209 64.4121 61.0874 64.1216 61.9077 63.5405C63.1724 62.7202 63.9585 62.3101 64.2661 62.3101C64.813 62.3101 65.0864 62.6006 65.0864 63.1816C65.0864 63.6943 64.6421 64.3267 63.7534 65.0786C59.8228 68.4282 57.0029 70.103 55.2939 70.103C53.6191 70.103 52.6621 68.1719 52.4229 64.3096C52.1494 58.9434 51.9785 55.1836 51.9102 53.0303C51.876 50.7402 51.7905 48.7749 51.6538 47.1343C50.2183 47.3394 48.9878 47.4419 47.9624 47.4419C45.9458 47.4419 44.3564 47.2026 43.1943 46.7241C41.4854 46.0405 40.6309 44.8955 40.6309 43.2891C40.6309 41.8877 41.3486 40.623 42.7842 39.4951C44.1855 38.3672 45.7749 37.8032 47.5522 37.8032C51.3462 37.8032 54.0635 39.7173 55.7041 43.5454C57.5498 42.7593 59.0195 41.9048 60.1133 40.9819C61.207 40.0591 62.3008 38.7603 63.3945 37.0854C65.7529 33.4966 66.9321 29.6514 66.9321 25.5498C66.9321 19.3975 64.3003 14.356 59.0366 10.4253C56.2681 8.37451 52.7305 6.75098 48.4238 5.55469C44.5615 4.49512 40.6479 3.96533 36.6831 3.96533C31.522 3.96533 26.6343 4.854 22.02 6.63135C16.4146 8.75049 12.2959 11.7754 9.66406 15.7061C7.68164 18.6455 6.69043 21.6021 6.69043 24.5757C6.69043 27.7202 7.88672 30.3862 10.2793 32.5737C12.9111 34.9663 16.2095 36.1455 20.1743 36.1113C21.3022 36.0771 22.0029 36.1113 22.2764 36.2139C22.6523 36.3506 22.8403 36.6411 22.8403 37.0854C22.8403 37.6323 22.4985 37.9741 21.8149 38.1108C20.8921 38.2817 19.6958 38.3672 18.2261 38.3672C12.6206 38.3672 8.0918 36.7949 4.63965 33.6504C2.24707 31.4287 1.05078 28.6431 1.05078 25.2935C1.05078 21.8071 2.33252 18.4062 4.896 15.0908C8.82666 10.0322 14.5688 6.35791 22.1226 4.06787C27.4546 2.42725 32.9062 1.60693 38.4775 1.60693C43.5361 1.60693 48.3555 2.27344 52.9355 3.60645C57.5156 4.90527 61.3096 6.7168 64.3174 9.04102C69.8203 13.3135 72.5718 18.4062 72.5718 24.3193C72.5718 29.8564 70.6064 34.7441 66.6758 38.9824C64.3516 41.4775 60.8994 43.7505 56.3193 45.8013ZM51.1924 44.6221C50.4746 41.6826 48.8853 40.2129 46.4243 40.2129C45.0913 40.2129 44.4248 40.7769 44.4248 41.9048C44.4248 42.9985 45.1084 43.8188 46.4756 44.3657C47.3984 44.7075 48.3726 44.8784 49.3979 44.8784C49.7056 44.8784 50.3037 44.793 51.1924 44.6221ZM50.3721 15.0908L38.1187 47.4932C36.4097 52.0391 34.5811 55.9868 32.6328 59.3364C29.5225 64.771 25.438 68.7188 20.3794 71.1797C18.8071 71.9316 16.9614 72.5981 14.8423 73.1792C12.7573 73.7603 11.0996 74.0508 9.86914 74.0508C8.84375 74.0508 8.33105 73.6748 8.33105 72.9229C8.33105 72.376 8.77539 72.0342 9.66406 71.8975C13.0479 71.3164 15.9019 70.4106 18.2261 69.1802C20.5503 67.9155 22.6011 66.1895 24.3784 64.002C26.4634 61.3701 28.5483 57.6274 30.6333 52.7739C34.2905 44.0239 38.4946 33.2061 43.2456 20.3203L43.9121 18.6284C44.1514 17.7397 44.271 17.21 44.271 17.0391C44.271 16.6289 44.0659 16.4238 43.6558 16.4238C43.3481 16.4238 42.7158 16.6973 41.7588 17.2441C40.8701 17.7568 40.2207 18.0132 39.8105 18.0132C39.1611 18.0132 38.8364 17.7056 38.8364 17.0903C38.8364 16.7144 39.2124 16.27 39.9644 15.7573C42.1177 14.2876 44.2368 13.0059 46.3218 11.9121C48.4067 10.8184 49.8081 10.2715 50.5259 10.2715C51.2778 10.2715 51.6538 10.6133 51.6538 11.2969C51.6538 11.5703 51.2266 12.835 50.3721 15.0908Z" stroke="#B52B45" stroke-width="2" mask="url(#path-1-outside-1)"/>
<path d="M76.0068 60.1055C76.793 64.2412 79.2368 66.3091 83.3384 66.3091C86.688 66.3091 89.8838 64.9419 92.9258 62.2075C93.7119 61.4897 94.3271 61.1309 94.7715 61.1309C95.3867 61.1309 95.6943 61.4214 95.6943 62.0024C95.6943 62.9253 94.5322 64.1899 92.208 65.7964C88.1064 68.6675 84.2954 70.103 80.7749 70.103C77.0835 70.103 74.3149 68.7017 72.4692 65.8989C71.2388 64.0874 70.6235 61.8315 70.6235 59.1313C70.6235 53.4575 72.9648 47.9204 77.6475 42.52C80.3477 39.3755 83.2871 37.0342 86.4658 35.4961C88.6533 34.4023 90.8066 33.8555 92.9258 33.8555C95.3184 33.8555 97.1812 34.6245 98.5142 36.1626C99.6421 37.4272 100.206 38.897 100.206 40.5718C100.206 43.3745 98.9585 46.3481 96.4634 49.4927C92.9429 53.9702 88.1406 57.1489 82.0566 59.0288C80.3818 59.5415 78.3652 59.9004 76.0068 60.1055ZM75.853 58.0034C79.8862 57.6616 83.4067 56.6875 86.4146 55.0811C89.7983 53.2695 92.3447 50.8257 94.0537 47.7495C95.0791 45.938 95.5918 44.1606 95.5918 42.4175C95.5918 40.5718 95.062 39.1362 94.0024 38.1108C93.0112 37.2222 91.8662 36.7778 90.5674 36.7778C87.5596 36.7778 84.5518 38.5039 81.5439 41.9561C79.6299 44.1436 78.126 46.8096 77.0322 49.9541C76.2119 52.415 75.8018 54.6196 75.8018 56.5679L75.853 58.0034Z" stroke="#B52B45" stroke-width="2" mask="url(#path-1-outside-1)"/>
<path d="M117.638 35.7012C116.886 35.7012 116.202 35.9062 115.587 36.3164C114.562 36.9658 114.049 37.9058 114.049 39.1362C114.049 40.23 114.63 41.4946 115.792 42.9302C116.1 43.3403 117.262 44.6733 119.278 46.9292C121.261 49.1509 122.474 50.7402 122.918 51.6973C123.636 53.1328 123.995 54.6538 123.995 56.2603C123.995 59.3706 122.765 62.2588 120.304 64.9248C117.057 68.377 113.126 70.103 108.512 70.103C104.615 70.103 101.676 68.9238 99.6934 66.5654C98.3262 64.9932 97.6426 63.2671 97.6426 61.3872C97.6426 59.0972 98.4629 57.0806 100.104 55.3374C100.787 54.6196 101.351 54.2607 101.795 54.2607C102.342 54.2607 102.616 54.5171 102.616 55.0298C102.616 55.3374 102.513 55.7305 102.308 56.209C101.727 57.4736 101.437 58.7554 101.437 60.0542C101.437 62.0366 102.035 63.7114 103.231 65.0786C104.94 67.0269 107.162 68.001 109.896 68.001C112.357 68.001 114.579 67.1465 116.561 65.4375C118.68 63.5918 119.74 61.4727 119.74 59.0801C119.74 57.5078 119.278 55.9355 118.355 54.3633C117.945 53.6797 116.971 52.5005 115.433 50.8257C113.622 48.8433 112.271 47.1685 111.383 45.8013C110.289 44.1948 109.742 42.6226 109.742 41.0845C109.742 38.7603 110.665 36.8633 112.511 35.3936C113.878 34.334 115.45 33.8042 117.228 33.8042C118.561 33.8042 120.116 34.2314 121.893 35.0859C122.167 35.2227 122.389 35.291 122.56 35.291C122.833 35.291 123.106 35.1201 123.38 34.7783C123.722 34.2998 124.081 34.0605 124.457 34.0605C125.038 34.0605 125.482 34.6074 125.79 35.7012C126.2 37.3418 126.405 38.9653 126.405 40.5718C126.405 42.9644 125.943 44.1606 125.021 44.1606C124.405 44.1606 123.995 43.6479 123.79 42.6226C123.38 40.5718 122.816 39.0679 122.098 38.1108C120.902 36.5044 119.415 35.7012 117.638 35.7012Z" stroke="#B52B45" stroke-width="2" mask="url(#path-1-outside-1)"/>
<path d="M151.117 33.7529C154.364 33.7529 157.098 34.8809 159.32 37.1367C161.507 39.3584 162.601 42.2466 162.601 45.8013C162.601 48.7065 161.9 51.6973 160.499 54.7734C159.132 57.8154 157.201 60.6011 154.706 63.1304C150.194 67.813 145.443 70.1543 140.453 70.1543C137.103 70.1543 134.386 68.9409 132.301 66.5142C130.421 64.3267 129.481 61.6094 129.481 58.3623C129.481 55.2861 130.165 52.1587 131.532 48.98C132.899 45.7671 134.762 42.9644 137.12 40.5718C141.598 36.0259 146.263 33.7529 151.117 33.7529ZM149.066 36.624C146.537 36.624 144.161 37.7007 141.939 39.854C139.752 41.9731 138.026 44.5708 136.761 47.647C135.497 50.7231 134.864 53.8677 134.864 57.0806C134.864 60.3618 135.787 62.9595 137.633 64.8735C139.137 66.3774 140.897 67.1294 142.914 67.1294C145.921 67.1294 148.707 65.54 151.271 62.3613C155.167 57.542 157.115 52.2441 157.115 46.4678C157.115 43.3232 156.227 40.7939 154.449 38.8799C153.048 37.376 151.253 36.624 149.066 36.624Z" stroke="#B52B45" stroke-width="2" mask="url(#path-1-outside-1)"/>
<path d="M177.264 46.9292C183.451 38.897 188.27 34.8809 191.722 34.8809C192.611 34.8809 193.055 35.4106 193.055 36.4702C193.055 37.2222 192.799 37.9229 192.286 38.5723C191.944 39.0508 191.056 39.5464 189.62 40.0591C185.143 41.6655 180.682 45.9038 176.239 52.7739C173.402 57.354 170.907 62.9082 168.753 69.4365L164.088 71.0771L172.804 44.6221L173.06 43.853C173.47 42.5542 173.675 41.751 173.675 41.4434C173.675 40.8623 173.453 40.5718 173.009 40.5718C172.633 40.5718 172.171 40.7769 171.625 41.187C170.633 41.8706 169.898 42.2124 169.42 42.2124C168.873 42.2124 168.6 41.9048 168.6 41.2896C168.6 40.6401 169.779 39.5977 172.137 38.1621C175.897 35.8721 178.426 34.7271 179.725 34.7271C180.614 34.7271 181.058 35.1714 181.058 36.0601C181.058 36.3677 180.631 37.6836 179.776 40.0078L177.264 46.9292Z" stroke="#B52B45" stroke-width="2" mask="url(#path-1-outside-1)"/>
<path d="M205.257 39.1362L197.208 60.5156C196.627 62.1221 196.336 63.1816 196.336 63.6943C196.336 64.2412 196.576 64.5146 197.054 64.5146C197.499 64.5146 198.319 64.1729 199.515 63.4893C200.199 63.0791 200.66 62.874 200.899 62.874C201.446 62.874 201.72 63.1475 201.72 63.6943C201.72 64.2412 200.677 65.2495 198.592 66.7192C195.345 69.0093 193.072 70.1543 191.773 70.1543C190.816 70.1543 190.338 69.6929 190.338 68.77C190.338 68.3599 191.004 66.2407 192.337 62.4126L200.335 39.7002C198.832 39.8027 197.362 40.23 195.926 40.9819C195.653 41.1528 195.414 41.2383 195.208 41.2383C194.798 41.2383 194.593 41.0161 194.593 40.5718C194.593 39.7515 195.533 38.6919 197.413 37.3931C198.541 36.6411 199.977 36.1797 201.72 36.0088L205.719 24.832C206.368 22.9863 206.693 21.8413 206.693 21.397C206.693 20.9185 206.488 20.6792 206.078 20.6792C205.702 20.6792 204.847 21.0723 203.514 21.8584C203.138 22.0635 202.779 22.166 202.438 22.166C201.993 22.166 201.771 21.9268 201.771 21.4482C201.771 21.0039 202.711 20.1323 204.591 18.8335C208.487 16.0649 211.085 14.6807 212.384 14.6807C213.238 14.6807 213.666 15.0737 213.666 15.8599C213.666 16.27 213.375 17.1587 212.794 18.5259C212.145 20.0981 211.598 21.4653 211.153 22.6274L206.385 35.6499C208.539 35.5474 210.401 35.0859 211.974 34.2656C212.247 34.1289 212.503 34.0605 212.743 34.0605C213.358 34.0605 213.666 34.2998 213.666 34.7783C213.666 35.2227 213.272 35.8037 212.486 36.5215C211.7 37.2051 210.812 37.769 209.82 38.2134C208.897 38.5894 207.376 38.897 205.257 39.1362Z" stroke="#B52B45" stroke-width="2" mask="url(#path-1-outside-1)"/>
</svg>
