<svg width="375" height="73" viewBox="0 0 375 73" fill="none" xmlns="http://www.w3.org/2000/svg">
<mask id="path-1-outside-1" maskUnits="userSpaceOnUse" x="0.691406" y="0.0683594" width="374" height="72" fill="black">
<rect fill="white" x="0.691406" y="0.0683594" width="374" height="72"/>
<path d="M40.605 44.4937L47.834 23.2681C49.4746 18.4829 50.2949 15.4067 50.2949 14.0396C50.2949 12.7065 49.6968 11.5957 48.5005 10.707C46.9624 9.54492 44.8433 8.51953 42.1431 7.63086C38.144 6.29785 34.2305 5.63135 30.4023 5.63135C25.2754 5.63135 20.6782 6.77637 16.6108 9.06641C13.2612 10.9121 10.7319 13.4585 9.02295 16.7056C7.65576 19.269 6.97217 22.0034 6.97217 24.9087C6.97217 28.4292 8.13428 31.3345 10.4585 33.6245C13.2271 36.3247 16.6792 37.6748 20.8149 37.6748C21.772 37.6748 22.6436 37.6064 23.4297 37.4697C24.4209 37.2646 25.1216 37.1621 25.5317 37.1621C26.2495 37.1621 26.6084 37.4526 26.6084 38.0337C26.6084 38.6147 26.0103 39.0762 24.814 39.418C23.0024 39.8965 21.1738 40.1357 19.3281 40.1357C15.0557 40.1357 11.313 39.1274 8.1001 37.1108C3.82764 34.4448 1.69141 30.5825 1.69141 25.5239C1.69141 22.7212 2.40918 20.0039 3.84473 17.3721C5.28027 14.7061 7.29688 12.3477 9.89453 10.2969C16.1152 5.40918 23.481 2.96533 31.9917 2.96533C39.5796 2.96533 46.3472 4.77686 52.2944 8.3999C55.1313 10.1089 56.5498 11.647 56.5498 13.0142C56.5498 13.6636 56.2422 14.8599 55.627 16.603C55.0117 18.3462 54.6016 19.5254 54.3965 20.1406C53.6787 21.9521 53.3027 22.9263 53.2686 23.063L48.603 36.8032C45.4243 46.1001 43.835 52.8848 43.835 57.1572C43.835 59.5498 44.4844 61.5322 45.7832 63.1045C47.1504 64.7109 48.9448 65.5142 51.1665 65.5142C56.3618 65.5142 61.916 61.686 67.8291 54.0298C71.1787 49.7231 73.9302 44.8184 76.0835 39.3154C78.7837 32.582 80.1338 26.0879 80.1338 19.833C80.1338 15.458 78.9717 11.0659 76.6475 6.65674C75.8955 5.22119 75.5195 4.14453 75.5195 3.42676C75.5195 2.6748 75.7588 2.07666 76.2373 1.63232C76.7158 1.25635 77.2627 1.06836 77.8779 1.06836C79.3477 1.06836 80.5439 2.05957 81.4668 4.04199C82.8682 6.98145 83.5688 10.9463 83.5688 15.9365C83.5688 22.875 82.2188 30.0186 79.5186 37.3672C75.9297 47.1768 70.8369 55.2432 64.2402 61.5664C59.0107 66.625 53.9009 69.1543 48.9106 69.1543C46.0396 69.1543 43.5444 67.9409 41.4253 65.5142C39.3403 63.1216 38.2979 60.0625 38.2979 56.3369C38.2979 52.9189 39.0669 48.9712 40.605 44.4937Z"/>
<path d="M96.1812 50.4922L85.2607 61.9253C91.7891 64.4204 96.147 65.668 98.3345 65.668C100.83 65.668 103.581 63.9248 106.589 60.4385C106.965 60.0283 107.29 59.8232 107.563 59.8232C108.007 59.8232 108.229 60.0112 108.229 60.3872C108.229 61.105 106.999 62.5918 104.538 64.8477C101.53 67.6504 98.5225 69.0518 95.5146 69.0518C93.498 69.0518 90.8662 68.4536 87.6191 67.2573C84.2695 66.0269 82.082 65.4287 81.0566 65.4629C80.2021 65.4629 79.7749 65.2749 79.7749 64.8989C79.7749 64.5571 80.168 64.0273 80.9541 63.3096L93.2588 50.3384C91.7549 50.3042 90.4219 50.5776 89.2598 51.1587C88.6787 51.4663 88.3198 51.6201 88.1831 51.6201C87.7388 51.6201 87.5166 51.415 87.5166 51.0049C87.5166 50.5605 88.0293 49.894 89.0547 49.0054C90.6611 47.5356 92.7803 46.8008 95.4121 46.8008C95.7539 46.8008 96.147 46.8008 96.5913 46.8008L104.23 38.7002C103.684 38.5977 102.163 38.3755 99.6675 38.0337C96.6255 37.4868 94.5918 37.2134 93.5664 37.2134C90.5244 37.2134 87.9097 38.5635 85.7222 41.2637C85.312 41.7764 84.9702 42.0327 84.6968 42.0327C84.355 42.0327 84.1841 41.8618 84.1841 41.52C84.1841 40.9048 85.2266 39.606 87.3115 37.6235C89.123 35.8804 90.6611 34.7695 91.9258 34.291C93.0537 33.8467 94.2329 33.6245 95.4634 33.6245C96.5571 33.6245 98.9155 33.9321 102.539 34.5474C104.521 34.8892 105.837 35.0601 106.486 35.0601C106.896 35.0601 107.358 35.0088 107.871 34.9062C108.383 34.8379 108.793 34.8037 109.101 34.8037C109.682 34.8037 109.973 35.043 109.973 35.5215C109.973 35.7949 109.562 36.3589 108.742 37.2134L99.5649 46.9033C100.59 47.0059 101.308 47.0571 101.718 47.0571C103.12 47.0571 104.521 46.647 105.922 45.8267C106.162 45.6899 106.384 45.6216 106.589 45.6216C106.965 45.6216 107.153 45.7925 107.153 46.1343C107.153 46.7495 106.264 47.7407 104.487 49.1079C103.222 50.0649 101.667 50.5435 99.8213 50.5435C99.3428 50.5435 98.1294 50.5264 96.1812 50.4922Z"/>
<path d="M142.426 37.2134L151.245 12.9629C151.928 11.083 152.27 10.0063 152.27 9.73291C152.27 9.32275 152.031 9.11768 151.552 9.11768C151.176 9.11768 150.578 9.32275 149.758 9.73291C148.425 10.4165 147.639 10.7583 147.399 10.7583C146.921 10.7583 146.682 10.502 146.682 9.98926C146.682 9.06641 148.767 7.59668 152.937 5.58008C155.227 4.48633 156.696 3.93945 157.346 3.93945C158.2 3.93945 158.627 4.40088 158.627 5.32373C158.627 5.69971 158.269 6.896 157.551 8.9126L138.479 60.2334C137.966 61.7373 137.709 62.6089 137.709 62.8481C137.709 63.3608 137.966 63.6172 138.479 63.6172C139.094 63.6172 140.375 62.9165 142.324 61.5151C142.563 61.3442 142.802 61.2588 143.042 61.2588C143.725 61.2588 144.067 61.5664 144.067 62.1816C144.067 62.7969 142.734 64.0273 140.068 65.873C136.923 68.0947 134.548 69.2056 132.941 69.2056C132.053 69.2056 131.608 68.7783 131.608 67.9238C131.608 67.582 131.899 66.5566 132.48 64.8477C132.788 63.9932 133.164 62.8481 133.608 61.4126C128.652 66.437 123.867 68.9492 119.252 68.9492C116.621 68.9492 114.655 67.9922 113.356 66.0781C112.194 64.3691 111.613 62.4893 111.613 60.4385C111.613 57.0205 112.81 53.1411 115.202 48.8003C118.586 42.6821 122.824 38.1875 127.917 35.3164C130.72 33.7441 133.334 32.958 135.761 32.958C137.812 32.958 139.504 33.6587 140.837 35.0601C141.281 35.5386 141.811 36.2563 142.426 37.2134ZM133.095 36.3418C130.908 36.3418 128.601 37.2988 126.174 39.2129C122.995 41.7422 120.568 45.2114 118.894 49.6206C117.561 53.1411 116.894 56.166 116.894 58.6953C116.894 60.541 117.458 62.0962 118.586 63.3608C119.646 64.5229 120.979 65.104 122.585 65.104C126.242 65.104 129.729 62.8823 133.044 58.439C134.992 55.8071 136.53 52.8335 137.658 49.5181C138.615 46.7495 139.094 44.4595 139.094 42.6479C139.094 40.6655 138.461 39.042 137.197 37.7773C136.24 36.8203 134.873 36.3418 133.095 36.3418Z"/>
<path d="M160.114 45.9292C166.301 37.897 171.12 33.8809 174.572 33.8809C175.461 33.8809 175.905 34.4106 175.905 35.4702C175.905 36.2222 175.649 36.9229 175.136 37.5723C174.794 38.0508 173.906 38.5464 172.47 39.0591C167.993 40.6655 163.532 44.9038 159.089 51.7739C156.252 56.354 153.757 61.9082 151.604 68.4365L146.938 70.0771L155.654 43.6221L155.91 42.853C156.32 41.5542 156.525 40.751 156.525 40.4434C156.525 39.8623 156.303 39.5718 155.859 39.5718C155.483 39.5718 155.021 39.7769 154.475 40.187C153.483 40.8706 152.749 41.2124 152.27 41.2124C151.723 41.2124 151.45 40.9048 151.45 40.2896C151.45 39.6401 152.629 38.5977 154.987 37.1621C158.747 34.8721 161.276 33.7271 162.575 33.7271C163.464 33.7271 163.908 34.1714 163.908 35.0601C163.908 35.3677 163.481 36.6836 162.626 39.0078L160.114 45.9292Z"/>
<path d="M192.927 32.7529C196.174 32.7529 198.908 33.8809 201.13 36.1367C203.317 38.3584 204.411 41.2466 204.411 44.8013C204.411 47.7065 203.71 50.6973 202.309 53.7734C200.942 56.8154 199.011 59.6011 196.516 62.1304C192.004 66.813 187.253 69.1543 182.263 69.1543C178.913 69.1543 176.196 67.9409 174.111 65.5142C172.231 63.3267 171.291 60.6094 171.291 57.3623C171.291 54.2861 171.975 51.1587 173.342 47.98C174.709 44.7671 176.572 41.9644 178.93 39.5718C183.408 35.0259 188.073 32.7529 192.927 32.7529ZM190.876 35.624C188.347 35.624 185.971 36.7007 183.75 38.854C181.562 40.9731 179.836 43.5708 178.571 46.647C177.307 49.7231 176.674 52.8677 176.674 56.0806C176.674 59.3618 177.597 61.9595 179.443 63.8735C180.947 65.3774 182.707 66.1294 184.724 66.1294C187.731 66.1294 190.517 64.54 193.081 61.3613C196.977 56.542 198.925 51.2441 198.925 45.4678C198.925 42.3232 198.037 39.7939 196.259 37.8799C194.858 36.376 193.063 35.624 190.876 35.624Z"/>
<path d="M225.739 64.8477C223.928 66.0781 222.646 66.9155 221.894 67.3599C219.912 68.522 217.912 69.103 215.896 69.103C214.152 69.103 212.683 68.4878 211.486 67.2573C210.427 66.1636 209.897 64.8647 209.897 63.3608C209.897 61.8911 210.375 59.6694 211.333 56.6958L215.793 42.8018L216.152 41.7251C216.459 40.7339 216.613 40.1187 216.613 39.8794C216.613 39.1958 216.306 38.854 215.69 38.854C215.246 38.854 214.58 39.1445 213.691 39.7256C212.563 40.4434 211.828 40.8022 211.486 40.8022C210.974 40.8022 210.717 40.5459 210.717 40.0332C210.717 39.4863 212.17 38.3071 215.075 36.4956C218.151 34.5474 220.356 33.5732 221.689 33.5732C222.475 33.5732 222.868 33.9321 222.868 34.6499C222.868 34.8892 222.561 36.3418 221.945 39.0078C224.304 37.4697 226.184 36.3247 227.585 35.5728C230.183 34.1372 232.626 33.4194 234.917 33.4194C236.591 33.4194 237.429 34.1885 237.429 35.7266C237.429 36.1709 237.412 36.7349 237.377 37.4185C237.343 37.7261 237.326 38.1704 237.326 38.7515C239.479 37.0767 241.12 35.9146 242.248 35.2651C244.641 33.8979 246.965 33.2144 249.221 33.2144C251.647 33.2144 253.527 34.3252 254.86 36.5469C255.92 38.2559 256.45 40.4263 256.45 43.0581C256.45 48.0483 254.587 52.9531 250.861 57.7725C247.58 62.0449 243.803 65.2065 239.531 67.2573C236.865 68.4878 234.353 69.103 231.994 69.103C229.772 69.103 228.132 68.4536 227.072 67.1548C226.662 66.6763 226.218 65.9072 225.739 64.8477ZM225.534 62.7969C225.568 62.4209 225.722 61.6519 225.996 60.4897L226.713 58.2852L227.329 56.1831L227.739 54.9526L231.02 44.8525C232.011 41.8105 232.507 39.6914 232.507 38.4951C232.507 37.4697 232.011 36.957 231.02 36.957C229.208 36.957 226.987 37.8286 224.355 39.5718C222.749 40.6313 221.518 41.8447 220.664 43.2119C220.253 43.9297 219.758 45.126 219.177 46.8008C218.356 49.1592 217.553 51.5176 216.767 53.876C215.4 57.7725 214.716 60.5581 214.716 62.2329C214.716 63.6001 215.109 64.6255 215.896 65.3091C216.511 65.8901 217.263 66.1807 218.151 66.1807C219.211 66.1807 220.51 65.8218 222.048 65.104C223.312 64.5229 224.475 63.7539 225.534 62.7969ZM245.632 36.957C243.376 36.957 241.154 37.9653 238.967 39.9819C237.531 41.2808 236.386 42.9727 235.532 45.0576C234.541 47.3818 233.464 50.5605 232.302 54.5938C231.037 58.8662 230.405 61.5664 230.405 62.6943C230.405 63.4805 230.644 64.1812 231.123 64.7964C231.909 65.7876 233.037 66.2832 234.506 66.2832C238.266 66.2832 242.06 63.9932 245.888 59.4131C249.614 54.9697 251.477 50.0991 251.477 44.8013C251.477 39.5718 249.528 36.957 245.632 36.957Z"/>
<path d="M274.753 20.2944L277.47 18.3462C277.983 17.9702 278.342 17.7822 278.547 17.7822C279.094 17.7822 279.572 18.2437 279.982 19.1665C280.256 19.8159 280.393 20.4824 280.393 21.166C280.393 23.4902 278.889 25.8486 275.881 28.2412C274.719 29.1982 273.95 29.6768 273.574 29.6768C273.027 29.6768 272.753 29.4204 272.753 28.9077C272.753 28.7026 272.976 28.395 273.42 27.9849C274.685 26.8228 275.317 25.5923 275.317 24.2935C275.317 23.644 275.026 23.0459 274.445 22.499C273.933 22.0547 273.676 21.7129 273.676 21.4736C273.676 21.2002 274.035 20.8071 274.753 20.2944ZM273.728 39.3154L265.678 61.0537C265.166 62.4209 264.909 63.3267 264.909 63.771C264.909 64.2153 265.114 64.4375 265.524 64.4375C265.866 64.4375 266.396 64.2495 267.114 63.8735C268.037 63.395 268.618 63.1558 268.857 63.1558C269.541 63.1558 269.882 63.4805 269.882 64.1299C269.882 64.6768 268.754 65.5825 266.499 66.8472C263.833 68.3853 261.97 69.1543 260.91 69.1543C260.466 69.1543 260.073 69.0176 259.731 68.7441C259.423 68.4707 259.27 68.146 259.27 67.77C259.27 67.4282 259.543 66.4883 260.09 64.9502L260.449 63.9761L267.473 43.3145L267.832 42.1865C268.208 41.127 268.396 40.4775 268.396 40.2383C268.396 39.7256 268.122 39.4692 267.575 39.4692C267.37 39.4692 267.08 39.606 266.704 39.8794C265.849 40.4946 265.251 40.8022 264.909 40.8022C264.294 40.8022 263.986 40.4775 263.986 39.8281C263.986 39.1787 265.507 37.897 268.549 35.9829C270.976 34.4448 272.617 33.6758 273.471 33.6758C274.565 33.6758 275.112 34.1201 275.112 35.0088C275.112 35.3848 274.65 36.8203 273.728 39.3154Z"/>
<path d="M293.671 34.7012C292.919 34.7012 292.236 34.9062 291.621 35.3164C290.595 35.9658 290.083 36.9058 290.083 38.1362C290.083 39.23 290.664 40.4946 291.826 41.9302C292.133 42.3403 293.295 43.6733 295.312 45.9292C297.294 48.1509 298.508 49.7402 298.952 50.6973C299.67 52.1328 300.029 53.6538 300.029 55.2603C300.029 58.3706 298.798 61.2588 296.337 63.9248C293.09 67.377 289.16 69.103 284.545 69.103C280.649 69.103 277.709 67.9238 275.727 65.5654C274.36 63.9932 273.676 62.2671 273.676 60.3872C273.676 58.0972 274.497 56.0806 276.137 54.3374C276.821 53.6196 277.385 53.2607 277.829 53.2607C278.376 53.2607 278.649 53.5171 278.649 54.0298C278.649 54.3374 278.547 54.7305 278.342 55.209C277.761 56.4736 277.47 57.7554 277.47 59.0542C277.47 61.0366 278.068 62.7114 279.265 64.0786C280.974 66.0269 283.195 67.001 285.93 67.001C288.391 67.001 290.612 66.1465 292.595 64.4375C294.714 62.5918 295.773 60.4727 295.773 58.0801C295.773 56.5078 295.312 54.9355 294.389 53.3633C293.979 52.6797 293.005 51.5005 291.467 49.8257C289.655 47.8433 288.305 46.1685 287.417 44.8013C286.323 43.1948 285.776 41.6226 285.776 40.0845C285.776 37.7603 286.699 35.8633 288.544 34.3936C289.912 33.334 291.484 32.8042 293.261 32.8042C294.594 32.8042 296.149 33.2314 297.927 34.0859C298.2 34.2227 298.422 34.291 298.593 34.291C298.867 34.291 299.14 34.1201 299.414 33.7783C299.755 33.2998 300.114 33.0605 300.49 33.0605C301.071 33.0605 301.516 33.6074 301.823 34.7012C302.233 36.3418 302.438 37.9653 302.438 39.5718C302.438 41.9644 301.977 43.1606 301.054 43.1606C300.439 43.1606 300.029 42.6479 299.824 41.6226C299.414 39.5718 298.85 38.0679 298.132 37.1108C296.936 35.5044 295.449 34.7012 293.671 34.7012Z"/>
<path d="M322.895 46.8008L328.073 59.6694C328.312 60.2847 328.535 60.7803 328.74 61.1562C328.911 61.5664 329.099 61.9937 329.304 62.438C329.748 63.5317 330.329 64.0786 331.047 64.0786C331.525 64.0786 332.141 63.8394 332.893 63.3608C333.884 62.7456 334.482 62.438 334.687 62.438C335.166 62.438 335.405 62.6772 335.405 63.1558C335.405 63.7026 333.918 65.1724 330.944 67.5649C329.577 68.6587 328.449 69.2056 327.561 69.2056C326.979 69.2056 326.518 68.9663 326.176 68.4878C325.937 68.146 325.373 66.7959 324.484 64.4375L319.152 50.2871C316.008 52.8848 313.735 55.1235 312.333 57.0034C311.069 58.7808 309.873 61.293 308.745 64.54C307.924 66.8984 307.463 68.2485 307.36 68.5903L302.336 70.3848L323.049 12.7578L323.408 11.6812C323.75 10.6558 323.92 10.0576 323.92 9.88672C323.886 9.51074 323.698 9.32275 323.356 9.32275C322.946 9.32275 322.297 9.56201 321.408 10.0405C320.246 10.6216 319.528 10.9121 319.255 10.9121C318.708 10.9121 318.435 10.6045 318.435 9.98926C318.435 9.4082 319.426 8.5708 321.408 7.47705C325.305 5.28955 327.885 4.1958 329.15 4.1958C329.936 4.1958 330.329 4.58887 330.329 5.375C330.329 5.8877 330.004 7.03271 329.355 8.81006L313.513 52.3892C314.812 51.2271 317.99 48.3047 323.049 43.6221C326.262 40.6826 329.782 38.085 333.61 35.8291C335.627 34.667 337.182 34.0859 338.276 34.0859C338.891 34.0859 339.404 34.3252 339.814 34.8037C340.156 35.1797 340.327 35.624 340.327 36.1367C340.327 36.8887 339.899 37.521 339.045 38.0337C338.566 38.3413 337.524 38.7002 335.917 39.1104C333.627 39.6914 331.56 40.5459 329.714 41.6738C327.595 43.0068 325.322 44.7158 322.895 46.8008Z"/>
<path d="M361.911 32.7529C365.158 32.7529 367.893 33.8809 370.114 36.1367C372.302 38.3584 373.396 41.2466 373.396 44.8013C373.396 47.7065 372.695 50.6973 371.293 53.7734C369.926 56.8154 367.995 59.6011 365.5 62.1304C360.988 66.813 356.237 69.1543 351.247 69.1543C347.897 69.1543 345.18 67.9409 343.095 65.5142C341.215 63.3267 340.275 60.6094 340.275 57.3623C340.275 54.2861 340.959 51.1587 342.326 47.98C343.693 44.7671 345.556 41.9644 347.915 39.5718C352.392 35.0259 357.058 32.7529 361.911 32.7529ZM359.86 35.624C357.331 35.624 354.956 36.7007 352.734 38.854C350.546 40.9731 348.82 43.5708 347.556 46.647C346.291 49.7231 345.659 52.8677 345.659 56.0806C345.659 59.3618 346.582 61.9595 348.427 63.8735C349.931 65.3774 351.691 66.1294 353.708 66.1294C356.716 66.1294 359.501 64.54 362.065 61.3613C365.961 56.542 367.91 51.2441 367.91 45.4678C367.91 42.3232 367.021 39.7939 365.244 37.8799C363.842 36.376 362.048 35.624 359.86 35.624Z"/>
</mask>
<path d="M40.605 44.4937L47.834 23.2681C49.4746 18.4829 50.2949 15.4067 50.2949 14.0396C50.2949 12.7065 49.6968 11.5957 48.5005 10.707C46.9624 9.54492 44.8433 8.51953 42.1431 7.63086C38.144 6.29785 34.2305 5.63135 30.4023 5.63135C25.2754 5.63135 20.6782 6.77637 16.6108 9.06641C13.2612 10.9121 10.7319 13.4585 9.02295 16.7056C7.65576 19.269 6.97217 22.0034 6.97217 24.9087C6.97217 28.4292 8.13428 31.3345 10.4585 33.6245C13.2271 36.3247 16.6792 37.6748 20.8149 37.6748C21.772 37.6748 22.6436 37.6064 23.4297 37.4697C24.4209 37.2646 25.1216 37.1621 25.5317 37.1621C26.2495 37.1621 26.6084 37.4526 26.6084 38.0337C26.6084 38.6147 26.0103 39.0762 24.814 39.418C23.0024 39.8965 21.1738 40.1357 19.3281 40.1357C15.0557 40.1357 11.313 39.1274 8.1001 37.1108C3.82764 34.4448 1.69141 30.5825 1.69141 25.5239C1.69141 22.7212 2.40918 20.0039 3.84473 17.3721C5.28027 14.7061 7.29688 12.3477 9.89453 10.2969C16.1152 5.40918 23.481 2.96533 31.9917 2.96533C39.5796 2.96533 46.3472 4.77686 52.2944 8.3999C55.1313 10.1089 56.5498 11.647 56.5498 13.0142C56.5498 13.6636 56.2422 14.8599 55.627 16.603C55.0117 18.3462 54.6016 19.5254 54.3965 20.1406C53.6787 21.9521 53.3027 22.9263 53.2686 23.063L48.603 36.8032C45.4243 46.1001 43.835 52.8848 43.835 57.1572C43.835 59.5498 44.4844 61.5322 45.7832 63.1045C47.1504 64.7109 48.9448 65.5142 51.1665 65.5142C56.3618 65.5142 61.916 61.686 67.8291 54.0298C71.1787 49.7231 73.9302 44.8184 76.0835 39.3154C78.7837 32.582 80.1338 26.0879 80.1338 19.833C80.1338 15.458 78.9717 11.0659 76.6475 6.65674C75.8955 5.22119 75.5195 4.14453 75.5195 3.42676C75.5195 2.6748 75.7588 2.07666 76.2373 1.63232C76.7158 1.25635 77.2627 1.06836 77.8779 1.06836C79.3477 1.06836 80.5439 2.05957 81.4668 4.04199C82.8682 6.98145 83.5688 10.9463 83.5688 15.9365C83.5688 22.875 82.2188 30.0186 79.5186 37.3672C75.9297 47.1768 70.8369 55.2432 64.2402 61.5664C59.0107 66.625 53.9009 69.1543 48.9106 69.1543C46.0396 69.1543 43.5444 67.9409 41.4253 65.5142C39.3403 63.1216 38.2979 60.0625 38.2979 56.3369C38.2979 52.9189 39.0669 48.9712 40.605 44.4937Z" fill="white"/>
<path d="M96.1812 50.4922L85.2607 61.9253C91.7891 64.4204 96.147 65.668 98.3345 65.668C100.83 65.668 103.581 63.9248 106.589 60.4385C106.965 60.0283 107.29 59.8232 107.563 59.8232C108.007 59.8232 108.229 60.0112 108.229 60.3872C108.229 61.105 106.999 62.5918 104.538 64.8477C101.53 67.6504 98.5225 69.0518 95.5146 69.0518C93.498 69.0518 90.8662 68.4536 87.6191 67.2573C84.2695 66.0269 82.082 65.4287 81.0566 65.4629C80.2021 65.4629 79.7749 65.2749 79.7749 64.8989C79.7749 64.5571 80.168 64.0273 80.9541 63.3096L93.2588 50.3384C91.7549 50.3042 90.4219 50.5776 89.2598 51.1587C88.6787 51.4663 88.3198 51.6201 88.1831 51.6201C87.7388 51.6201 87.5166 51.415 87.5166 51.0049C87.5166 50.5605 88.0293 49.894 89.0547 49.0054C90.6611 47.5356 92.7803 46.8008 95.4121 46.8008C95.7539 46.8008 96.147 46.8008 96.5913 46.8008L104.23 38.7002C103.684 38.5977 102.163 38.3755 99.6675 38.0337C96.6255 37.4868 94.5918 37.2134 93.5664 37.2134C90.5244 37.2134 87.9097 38.5635 85.7222 41.2637C85.312 41.7764 84.9702 42.0327 84.6968 42.0327C84.355 42.0327 84.1841 41.8618 84.1841 41.52C84.1841 40.9048 85.2266 39.606 87.3115 37.6235C89.123 35.8804 90.6611 34.7695 91.9258 34.291C93.0537 33.8467 94.2329 33.6245 95.4634 33.6245C96.5571 33.6245 98.9155 33.9321 102.539 34.5474C104.521 34.8892 105.837 35.0601 106.486 35.0601C106.896 35.0601 107.358 35.0088 107.871 34.9062C108.383 34.8379 108.793 34.8037 109.101 34.8037C109.682 34.8037 109.973 35.043 109.973 35.5215C109.973 35.7949 109.562 36.3589 108.742 37.2134L99.5649 46.9033C100.59 47.0059 101.308 47.0571 101.718 47.0571C103.12 47.0571 104.521 46.647 105.922 45.8267C106.162 45.6899 106.384 45.6216 106.589 45.6216C106.965 45.6216 107.153 45.7925 107.153 46.1343C107.153 46.7495 106.264 47.7407 104.487 49.1079C103.222 50.0649 101.667 50.5435 99.8213 50.5435C99.3428 50.5435 98.1294 50.5264 96.1812 50.4922Z" fill="white"/>
<path d="M142.426 37.2134L151.245 12.9629C151.928 11.083 152.27 10.0063 152.27 9.73291C152.27 9.32275 152.031 9.11768 151.552 9.11768C151.176 9.11768 150.578 9.32275 149.758 9.73291C148.425 10.4165 147.639 10.7583 147.399 10.7583C146.921 10.7583 146.682 10.502 146.682 9.98926C146.682 9.06641 148.767 7.59668 152.937 5.58008C155.227 4.48633 156.696 3.93945 157.346 3.93945C158.2 3.93945 158.627 4.40088 158.627 5.32373C158.627 5.69971 158.269 6.896 157.551 8.9126L138.479 60.2334C137.966 61.7373 137.709 62.6089 137.709 62.8481C137.709 63.3608 137.966 63.6172 138.479 63.6172C139.094 63.6172 140.375 62.9165 142.324 61.5151C142.563 61.3442 142.802 61.2588 143.042 61.2588C143.725 61.2588 144.067 61.5664 144.067 62.1816C144.067 62.7969 142.734 64.0273 140.068 65.873C136.923 68.0947 134.548 69.2056 132.941 69.2056C132.053 69.2056 131.608 68.7783 131.608 67.9238C131.608 67.582 131.899 66.5566 132.48 64.8477C132.788 63.9932 133.164 62.8481 133.608 61.4126C128.652 66.437 123.867 68.9492 119.252 68.9492C116.621 68.9492 114.655 67.9922 113.356 66.0781C112.194 64.3691 111.613 62.4893 111.613 60.4385C111.613 57.0205 112.81 53.1411 115.202 48.8003C118.586 42.6821 122.824 38.1875 127.917 35.3164C130.72 33.7441 133.334 32.958 135.761 32.958C137.812 32.958 139.504 33.6587 140.837 35.0601C141.281 35.5386 141.811 36.2563 142.426 37.2134ZM133.095 36.3418C130.908 36.3418 128.601 37.2988 126.174 39.2129C122.995 41.7422 120.568 45.2114 118.894 49.6206C117.561 53.1411 116.894 56.166 116.894 58.6953C116.894 60.541 117.458 62.0962 118.586 63.3608C119.646 64.5229 120.979 65.104 122.585 65.104C126.242 65.104 129.729 62.8823 133.044 58.439C134.992 55.8071 136.53 52.8335 137.658 49.5181C138.615 46.7495 139.094 44.4595 139.094 42.6479C139.094 40.6655 138.461 39.042 137.197 37.7773C136.24 36.8203 134.873 36.3418 133.095 36.3418Z" fill="white"/>
<path d="M160.114 45.9292C166.301 37.897 171.12 33.8809 174.572 33.8809C175.461 33.8809 175.905 34.4106 175.905 35.4702C175.905 36.2222 175.649 36.9229 175.136 37.5723C174.794 38.0508 173.906 38.5464 172.47 39.0591C167.993 40.6655 163.532 44.9038 159.089 51.7739C156.252 56.354 153.757 61.9082 151.604 68.4365L146.938 70.0771L155.654 43.6221L155.91 42.853C156.32 41.5542 156.525 40.751 156.525 40.4434C156.525 39.8623 156.303 39.5718 155.859 39.5718C155.483 39.5718 155.021 39.7769 154.475 40.187C153.483 40.8706 152.749 41.2124 152.27 41.2124C151.723 41.2124 151.45 40.9048 151.45 40.2896C151.45 39.6401 152.629 38.5977 154.987 37.1621C158.747 34.8721 161.276 33.7271 162.575 33.7271C163.464 33.7271 163.908 34.1714 163.908 35.0601C163.908 35.3677 163.481 36.6836 162.626 39.0078L160.114 45.9292Z" fill="white"/>
<path d="M192.927 32.7529C196.174 32.7529 198.908 33.8809 201.13 36.1367C203.317 38.3584 204.411 41.2466 204.411 44.8013C204.411 47.7065 203.71 50.6973 202.309 53.7734C200.942 56.8154 199.011 59.6011 196.516 62.1304C192.004 66.813 187.253 69.1543 182.263 69.1543C178.913 69.1543 176.196 67.9409 174.111 65.5142C172.231 63.3267 171.291 60.6094 171.291 57.3623C171.291 54.2861 171.975 51.1587 173.342 47.98C174.709 44.7671 176.572 41.9644 178.93 39.5718C183.408 35.0259 188.073 32.7529 192.927 32.7529ZM190.876 35.624C188.347 35.624 185.971 36.7007 183.75 38.854C181.562 40.9731 179.836 43.5708 178.571 46.647C177.307 49.7231 176.674 52.8677 176.674 56.0806C176.674 59.3618 177.597 61.9595 179.443 63.8735C180.947 65.3774 182.707 66.1294 184.724 66.1294C187.731 66.1294 190.517 64.54 193.081 61.3613C196.977 56.542 198.925 51.2441 198.925 45.4678C198.925 42.3232 198.037 39.7939 196.259 37.8799C194.858 36.376 193.063 35.624 190.876 35.624Z" fill="white"/>
<path d="M225.739 64.8477C223.928 66.0781 222.646 66.9155 221.894 67.3599C219.912 68.522 217.912 69.103 215.896 69.103C214.152 69.103 212.683 68.4878 211.486 67.2573C210.427 66.1636 209.897 64.8647 209.897 63.3608C209.897 61.8911 210.375 59.6694 211.333 56.6958L215.793 42.8018L216.152 41.7251C216.459 40.7339 216.613 40.1187 216.613 39.8794C216.613 39.1958 216.306 38.854 215.69 38.854C215.246 38.854 214.58 39.1445 213.691 39.7256C212.563 40.4434 211.828 40.8022 211.486 40.8022C210.974 40.8022 210.717 40.5459 210.717 40.0332C210.717 39.4863 212.17 38.3071 215.075 36.4956C218.151 34.5474 220.356 33.5732 221.689 33.5732C222.475 33.5732 222.868 33.9321 222.868 34.6499C222.868 34.8892 222.561 36.3418 221.945 39.0078C224.304 37.4697 226.184 36.3247 227.585 35.5728C230.183 34.1372 232.626 33.4194 234.917 33.4194C236.591 33.4194 237.429 34.1885 237.429 35.7266C237.429 36.1709 237.412 36.7349 237.377 37.4185C237.343 37.7261 237.326 38.1704 237.326 38.7515C239.479 37.0767 241.12 35.9146 242.248 35.2651C244.641 33.8979 246.965 33.2144 249.221 33.2144C251.647 33.2144 253.527 34.3252 254.86 36.5469C255.92 38.2559 256.45 40.4263 256.45 43.0581C256.45 48.0483 254.587 52.9531 250.861 57.7725C247.58 62.0449 243.803 65.2065 239.531 67.2573C236.865 68.4878 234.353 69.103 231.994 69.103C229.772 69.103 228.132 68.4536 227.072 67.1548C226.662 66.6763 226.218 65.9072 225.739 64.8477ZM225.534 62.7969C225.568 62.4209 225.722 61.6519 225.996 60.4897L226.713 58.2852L227.329 56.1831L227.739 54.9526L231.02 44.8525C232.011 41.8105 232.507 39.6914 232.507 38.4951C232.507 37.4697 232.011 36.957 231.02 36.957C229.208 36.957 226.987 37.8286 224.355 39.5718C222.749 40.6313 221.518 41.8447 220.664 43.2119C220.253 43.9297 219.758 45.126 219.177 46.8008C218.356 49.1592 217.553 51.5176 216.767 53.876C215.4 57.7725 214.716 60.5581 214.716 62.2329C214.716 63.6001 215.109 64.6255 215.896 65.3091C216.511 65.8901 217.263 66.1807 218.151 66.1807C219.211 66.1807 220.51 65.8218 222.048 65.104C223.312 64.5229 224.475 63.7539 225.534 62.7969ZM245.632 36.957C243.376 36.957 241.154 37.9653 238.967 39.9819C237.531 41.2808 236.386 42.9727 235.532 45.0576C234.541 47.3818 233.464 50.5605 232.302 54.5938C231.037 58.8662 230.405 61.5664 230.405 62.6943C230.405 63.4805 230.644 64.1812 231.123 64.7964C231.909 65.7876 233.037 66.2832 234.506 66.2832C238.266 66.2832 242.06 63.9932 245.888 59.4131C249.614 54.9697 251.477 50.0991 251.477 44.8013C251.477 39.5718 249.528 36.957 245.632 36.957Z" fill="white"/>
<path d="M274.753 20.2944L277.47 18.3462C277.983 17.9702 278.342 17.7822 278.547 17.7822C279.094 17.7822 279.572 18.2437 279.982 19.1665C280.256 19.8159 280.393 20.4824 280.393 21.166C280.393 23.4902 278.889 25.8486 275.881 28.2412C274.719 29.1982 273.95 29.6768 273.574 29.6768C273.027 29.6768 272.753 29.4204 272.753 28.9077C272.753 28.7026 272.976 28.395 273.42 27.9849C274.685 26.8228 275.317 25.5923 275.317 24.2935C275.317 23.644 275.026 23.0459 274.445 22.499C273.933 22.0547 273.676 21.7129 273.676 21.4736C273.676 21.2002 274.035 20.8071 274.753 20.2944ZM273.728 39.3154L265.678 61.0537C265.166 62.4209 264.909 63.3267 264.909 63.771C264.909 64.2153 265.114 64.4375 265.524 64.4375C265.866 64.4375 266.396 64.2495 267.114 63.8735C268.037 63.395 268.618 63.1558 268.857 63.1558C269.541 63.1558 269.882 63.4805 269.882 64.1299C269.882 64.6768 268.754 65.5825 266.499 66.8472C263.833 68.3853 261.97 69.1543 260.91 69.1543C260.466 69.1543 260.073 69.0176 259.731 68.7441C259.423 68.4707 259.27 68.146 259.27 67.77C259.27 67.4282 259.543 66.4883 260.09 64.9502L260.449 63.9761L267.473 43.3145L267.832 42.1865C268.208 41.127 268.396 40.4775 268.396 40.2383C268.396 39.7256 268.122 39.4692 267.575 39.4692C267.37 39.4692 267.08 39.606 266.704 39.8794C265.849 40.4946 265.251 40.8022 264.909 40.8022C264.294 40.8022 263.986 40.4775 263.986 39.8281C263.986 39.1787 265.507 37.897 268.549 35.9829C270.976 34.4448 272.617 33.6758 273.471 33.6758C274.565 33.6758 275.112 34.1201 275.112 35.0088C275.112 35.3848 274.65 36.8203 273.728 39.3154Z" fill="white"/>
<path d="M293.671 34.7012C292.919 34.7012 292.236 34.9062 291.621 35.3164C290.595 35.9658 290.083 36.9058 290.083 38.1362C290.083 39.23 290.664 40.4946 291.826 41.9302C292.133 42.3403 293.295 43.6733 295.312 45.9292C297.294 48.1509 298.508 49.7402 298.952 50.6973C299.67 52.1328 300.029 53.6538 300.029 55.2603C300.029 58.3706 298.798 61.2588 296.337 63.9248C293.09 67.377 289.16 69.103 284.545 69.103C280.649 69.103 277.709 67.9238 275.727 65.5654C274.36 63.9932 273.676 62.2671 273.676 60.3872C273.676 58.0972 274.497 56.0806 276.137 54.3374C276.821 53.6196 277.385 53.2607 277.829 53.2607C278.376 53.2607 278.649 53.5171 278.649 54.0298C278.649 54.3374 278.547 54.7305 278.342 55.209C277.761 56.4736 277.47 57.7554 277.47 59.0542C277.47 61.0366 278.068 62.7114 279.265 64.0786C280.974 66.0269 283.195 67.001 285.93 67.001C288.391 67.001 290.612 66.1465 292.595 64.4375C294.714 62.5918 295.773 60.4727 295.773 58.0801C295.773 56.5078 295.312 54.9355 294.389 53.3633C293.979 52.6797 293.005 51.5005 291.467 49.8257C289.655 47.8433 288.305 46.1685 287.417 44.8013C286.323 43.1948 285.776 41.6226 285.776 40.0845C285.776 37.7603 286.699 35.8633 288.544 34.3936C289.912 33.334 291.484 32.8042 293.261 32.8042C294.594 32.8042 296.149 33.2314 297.927 34.0859C298.2 34.2227 298.422 34.291 298.593 34.291C298.867 34.291 299.14 34.1201 299.414 33.7783C299.755 33.2998 300.114 33.0605 300.49 33.0605C301.071 33.0605 301.516 33.6074 301.823 34.7012C302.233 36.3418 302.438 37.9653 302.438 39.5718C302.438 41.9644 301.977 43.1606 301.054 43.1606C300.439 43.1606 300.029 42.6479 299.824 41.6226C299.414 39.5718 298.85 38.0679 298.132 37.1108C296.936 35.5044 295.449 34.7012 293.671 34.7012Z" fill="white"/>
<path d="M322.895 46.8008L328.073 59.6694C328.312 60.2847 328.535 60.7803 328.74 61.1562C328.911 61.5664 329.099 61.9937 329.304 62.438C329.748 63.5317 330.329 64.0786 331.047 64.0786C331.525 64.0786 332.141 63.8394 332.893 63.3608C333.884 62.7456 334.482 62.438 334.687 62.438C335.166 62.438 335.405 62.6772 335.405 63.1558C335.405 63.7026 333.918 65.1724 330.944 67.5649C329.577 68.6587 328.449 69.2056 327.561 69.2056C326.979 69.2056 326.518 68.9663 326.176 68.4878C325.937 68.146 325.373 66.7959 324.484 64.4375L319.152 50.2871C316.008 52.8848 313.735 55.1235 312.333 57.0034C311.069 58.7808 309.873 61.293 308.745 64.54C307.924 66.8984 307.463 68.2485 307.36 68.5903L302.336 70.3848L323.049 12.7578L323.408 11.6812C323.75 10.6558 323.92 10.0576 323.92 9.88672C323.886 9.51074 323.698 9.32275 323.356 9.32275C322.946 9.32275 322.297 9.56201 321.408 10.0405C320.246 10.6216 319.528 10.9121 319.255 10.9121C318.708 10.9121 318.435 10.6045 318.435 9.98926C318.435 9.4082 319.426 8.5708 321.408 7.47705C325.305 5.28955 327.885 4.1958 329.15 4.1958C329.936 4.1958 330.329 4.58887 330.329 5.375C330.329 5.8877 330.004 7.03271 329.355 8.81006L313.513 52.3892C314.812 51.2271 317.99 48.3047 323.049 43.6221C326.262 40.6826 329.782 38.085 333.61 35.8291C335.627 34.667 337.182 34.0859 338.276 34.0859C338.891 34.0859 339.404 34.3252 339.814 34.8037C340.156 35.1797 340.327 35.624 340.327 36.1367C340.327 36.8887 339.899 37.521 339.045 38.0337C338.566 38.3413 337.524 38.7002 335.917 39.1104C333.627 39.6914 331.56 40.5459 329.714 41.6738C327.595 43.0068 325.322 44.7158 322.895 46.8008Z" fill="white"/>
<path d="M361.911 32.7529C365.158 32.7529 367.893 33.8809 370.114 36.1367C372.302 38.3584 373.396 41.2466 373.396 44.8013C373.396 47.7065 372.695 50.6973 371.293 53.7734C369.926 56.8154 367.995 59.6011 365.5 62.1304C360.988 66.813 356.237 69.1543 351.247 69.1543C347.897 69.1543 345.18 67.9409 343.095 65.5142C341.215 63.3267 340.275 60.6094 340.275 57.3623C340.275 54.2861 340.959 51.1587 342.326 47.98C343.693 44.7671 345.556 41.9644 347.915 39.5718C352.392 35.0259 357.058 32.7529 361.911 32.7529ZM359.86 35.624C357.331 35.624 354.956 36.7007 352.734 38.854C350.546 40.9731 348.82 43.5708 347.556 46.647C346.291 49.7231 345.659 52.8677 345.659 56.0806C345.659 59.3618 346.582 61.9595 348.427 63.8735C349.931 65.3774 351.691 66.1294 353.708 66.1294C356.716 66.1294 359.501 64.54 362.065 61.3613C365.961 56.542 367.91 51.2441 367.91 45.4678C367.91 42.3232 367.021 39.7939 365.244 37.8799C363.842 36.376 362.048 35.624 359.86 35.624Z" fill="white"/>
<path d="M40.605 44.4937L47.834 23.2681C49.4746 18.4829 50.2949 15.4067 50.2949 14.0396C50.2949 12.7065 49.6968 11.5957 48.5005 10.707C46.9624 9.54492 44.8433 8.51953 42.1431 7.63086C38.144 6.29785 34.2305 5.63135 30.4023 5.63135C25.2754 5.63135 20.6782 6.77637 16.6108 9.06641C13.2612 10.9121 10.7319 13.4585 9.02295 16.7056C7.65576 19.269 6.97217 22.0034 6.97217 24.9087C6.97217 28.4292 8.13428 31.3345 10.4585 33.6245C13.2271 36.3247 16.6792 37.6748 20.8149 37.6748C21.772 37.6748 22.6436 37.6064 23.4297 37.4697C24.4209 37.2646 25.1216 37.1621 25.5317 37.1621C26.2495 37.1621 26.6084 37.4526 26.6084 38.0337C26.6084 38.6147 26.0103 39.0762 24.814 39.418C23.0024 39.8965 21.1738 40.1357 19.3281 40.1357C15.0557 40.1357 11.313 39.1274 8.1001 37.1108C3.82764 34.4448 1.69141 30.5825 1.69141 25.5239C1.69141 22.7212 2.40918 20.0039 3.84473 17.3721C5.28027 14.7061 7.29688 12.3477 9.89453 10.2969C16.1152 5.40918 23.481 2.96533 31.9917 2.96533C39.5796 2.96533 46.3472 4.77686 52.2944 8.3999C55.1313 10.1089 56.5498 11.647 56.5498 13.0142C56.5498 13.6636 56.2422 14.8599 55.627 16.603C55.0117 18.3462 54.6016 19.5254 54.3965 20.1406C53.6787 21.9521 53.3027 22.9263 53.2686 23.063L48.603 36.8032C45.4243 46.1001 43.835 52.8848 43.835 57.1572C43.835 59.5498 44.4844 61.5322 45.7832 63.1045C47.1504 64.7109 48.9448 65.5142 51.1665 65.5142C56.3618 65.5142 61.916 61.686 67.8291 54.0298C71.1787 49.7231 73.9302 44.8184 76.0835 39.3154C78.7837 32.582 80.1338 26.0879 80.1338 19.833C80.1338 15.458 78.9717 11.0659 76.6475 6.65674C75.8955 5.22119 75.5195 4.14453 75.5195 3.42676C75.5195 2.6748 75.7588 2.07666 76.2373 1.63232C76.7158 1.25635 77.2627 1.06836 77.8779 1.06836C79.3477 1.06836 80.5439 2.05957 81.4668 4.04199C82.8682 6.98145 83.5688 10.9463 83.5688 15.9365C83.5688 22.875 82.2188 30.0186 79.5186 37.3672C75.9297 47.1768 70.8369 55.2432 64.2402 61.5664C59.0107 66.625 53.9009 69.1543 48.9106 69.1543C46.0396 69.1543 43.5444 67.9409 41.4253 65.5142C39.3403 63.1216 38.2979 60.0625 38.2979 56.3369C38.2979 52.9189 39.0669 48.9712 40.605 44.4937Z" stroke="#B52B45" stroke-width="2" mask="url(#path-1-outside-1)"/>
<path d="M96.1812 50.4922L85.2607 61.9253C91.7891 64.4204 96.147 65.668 98.3345 65.668C100.83 65.668 103.581 63.9248 106.589 60.4385C106.965 60.0283 107.29 59.8232 107.563 59.8232C108.007 59.8232 108.229 60.0112 108.229 60.3872C108.229 61.105 106.999 62.5918 104.538 64.8477C101.53 67.6504 98.5225 69.0518 95.5146 69.0518C93.498 69.0518 90.8662 68.4536 87.6191 67.2573C84.2695 66.0269 82.082 65.4287 81.0566 65.4629C80.2021 65.4629 79.7749 65.2749 79.7749 64.8989C79.7749 64.5571 80.168 64.0273 80.9541 63.3096L93.2588 50.3384C91.7549 50.3042 90.4219 50.5776 89.2598 51.1587C88.6787 51.4663 88.3198 51.6201 88.1831 51.6201C87.7388 51.6201 87.5166 51.415 87.5166 51.0049C87.5166 50.5605 88.0293 49.894 89.0547 49.0054C90.6611 47.5356 92.7803 46.8008 95.4121 46.8008C95.7539 46.8008 96.147 46.8008 96.5913 46.8008L104.23 38.7002C103.684 38.5977 102.163 38.3755 99.6675 38.0337C96.6255 37.4868 94.5918 37.2134 93.5664 37.2134C90.5244 37.2134 87.9097 38.5635 85.7222 41.2637C85.312 41.7764 84.9702 42.0327 84.6968 42.0327C84.355 42.0327 84.1841 41.8618 84.1841 41.52C84.1841 40.9048 85.2266 39.606 87.3115 37.6235C89.123 35.8804 90.6611 34.7695 91.9258 34.291C93.0537 33.8467 94.2329 33.6245 95.4634 33.6245C96.5571 33.6245 98.9155 33.9321 102.539 34.5474C104.521 34.8892 105.837 35.0601 106.486 35.0601C106.896 35.0601 107.358 35.0088 107.871 34.9062C108.383 34.8379 108.793 34.8037 109.101 34.8037C109.682 34.8037 109.973 35.043 109.973 35.5215C109.973 35.7949 109.562 36.3589 108.742 37.2134L99.5649 46.9033C100.59 47.0059 101.308 47.0571 101.718 47.0571C103.12 47.0571 104.521 46.647 105.922 45.8267C106.162 45.6899 106.384 45.6216 106.589 45.6216C106.965 45.6216 107.153 45.7925 107.153 46.1343C107.153 46.7495 106.264 47.7407 104.487 49.1079C103.222 50.0649 101.667 50.5435 99.8213 50.5435C99.3428 50.5435 98.1294 50.5264 96.1812 50.4922Z" stroke="#B52B45" stroke-width="2" mask="url(#path-1-outside-1)"/>
<path d="M142.426 37.2134L151.245 12.9629C151.928 11.083 152.27 10.0063 152.27 9.73291C152.27 9.32275 152.031 9.11768 151.552 9.11768C151.176 9.11768 150.578 9.32275 149.758 9.73291C148.425 10.4165 147.639 10.7583 147.399 10.7583C146.921 10.7583 146.682 10.502 146.682 9.98926C146.682 9.06641 148.767 7.59668 152.937 5.58008C155.227 4.48633 156.696 3.93945 157.346 3.93945C158.2 3.93945 158.627 4.40088 158.627 5.32373C158.627 5.69971 158.269 6.896 157.551 8.9126L138.479 60.2334C137.966 61.7373 137.709 62.6089 137.709 62.8481C137.709 63.3608 137.966 63.6172 138.479 63.6172C139.094 63.6172 140.375 62.9165 142.324 61.5151C142.563 61.3442 142.802 61.2588 143.042 61.2588C143.725 61.2588 144.067 61.5664 144.067 62.1816C144.067 62.7969 142.734 64.0273 140.068 65.873C136.923 68.0947 134.548 69.2056 132.941 69.2056C132.053 69.2056 131.608 68.7783 131.608 67.9238C131.608 67.582 131.899 66.5566 132.48 64.8477C132.788 63.9932 133.164 62.8481 133.608 61.4126C128.652 66.437 123.867 68.9492 119.252 68.9492C116.621 68.9492 114.655 67.9922 113.356 66.0781C112.194 64.3691 111.613 62.4893 111.613 60.4385C111.613 57.0205 112.81 53.1411 115.202 48.8003C118.586 42.6821 122.824 38.1875 127.917 35.3164C130.72 33.7441 133.334 32.958 135.761 32.958C137.812 32.958 139.504 33.6587 140.837 35.0601C141.281 35.5386 141.811 36.2563 142.426 37.2134ZM133.095 36.3418C130.908 36.3418 128.601 37.2988 126.174 39.2129C122.995 41.7422 120.568 45.2114 118.894 49.6206C117.561 53.1411 116.894 56.166 116.894 58.6953C116.894 60.541 117.458 62.0962 118.586 63.3608C119.646 64.5229 120.979 65.104 122.585 65.104C126.242 65.104 129.729 62.8823 133.044 58.439C134.992 55.8071 136.53 52.8335 137.658 49.5181C138.615 46.7495 139.094 44.4595 139.094 42.6479C139.094 40.6655 138.461 39.042 137.197 37.7773C136.24 36.8203 134.873 36.3418 133.095 36.3418Z" stroke="#B52B45" stroke-width="2" mask="url(#path-1-outside-1)"/>
<path d="M160.114 45.9292C166.301 37.897 171.12 33.8809 174.572 33.8809C175.461 33.8809 175.905 34.4106 175.905 35.4702C175.905 36.2222 175.649 36.9229 175.136 37.5723C174.794 38.0508 173.906 38.5464 172.47 39.0591C167.993 40.6655 163.532 44.9038 159.089 51.7739C156.252 56.354 153.757 61.9082 151.604 68.4365L146.938 70.0771L155.654 43.6221L155.91 42.853C156.32 41.5542 156.525 40.751 156.525 40.4434C156.525 39.8623 156.303 39.5718 155.859 39.5718C155.483 39.5718 155.021 39.7769 154.475 40.187C153.483 40.8706 152.749 41.2124 152.27 41.2124C151.723 41.2124 151.45 40.9048 151.45 40.2896C151.45 39.6401 152.629 38.5977 154.987 37.1621C158.747 34.8721 161.276 33.7271 162.575 33.7271C163.464 33.7271 163.908 34.1714 163.908 35.0601C163.908 35.3677 163.481 36.6836 162.626 39.0078L160.114 45.9292Z" stroke="#B52B45" stroke-width="2" mask="url(#path-1-outside-1)"/>
<path d="M192.927 32.7529C196.174 32.7529 198.908 33.8809 201.13 36.1367C203.317 38.3584 204.411 41.2466 204.411 44.8013C204.411 47.7065 203.71 50.6973 202.309 53.7734C200.942 56.8154 199.011 59.6011 196.516 62.1304C192.004 66.813 187.253 69.1543 182.263 69.1543C178.913 69.1543 176.196 67.9409 174.111 65.5142C172.231 63.3267 171.291 60.6094 171.291 57.3623C171.291 54.2861 171.975 51.1587 173.342 47.98C174.709 44.7671 176.572 41.9644 178.93 39.5718C183.408 35.0259 188.073 32.7529 192.927 32.7529ZM190.876 35.624C188.347 35.624 185.971 36.7007 183.75 38.854C181.562 40.9731 179.836 43.5708 178.571 46.647C177.307 49.7231 176.674 52.8677 176.674 56.0806C176.674 59.3618 177.597 61.9595 179.443 63.8735C180.947 65.3774 182.707 66.1294 184.724 66.1294C187.731 66.1294 190.517 64.54 193.081 61.3613C196.977 56.542 198.925 51.2441 198.925 45.4678C198.925 42.3232 198.037 39.7939 196.259 37.8799C194.858 36.376 193.063 35.624 190.876 35.624Z" stroke="#B52B45" stroke-width="2" mask="url(#path-1-outside-1)"/>
<path d="M225.739 64.8477C223.928 66.0781 222.646 66.9155 221.894 67.3599C219.912 68.522 217.912 69.103 215.896 69.103C214.152 69.103 212.683 68.4878 211.486 67.2573C210.427 66.1636 209.897 64.8647 209.897 63.3608C209.897 61.8911 210.375 59.6694 211.333 56.6958L215.793 42.8018L216.152 41.7251C216.459 40.7339 216.613 40.1187 216.613 39.8794C216.613 39.1958 216.306 38.854 215.69 38.854C215.246 38.854 214.58 39.1445 213.691 39.7256C212.563 40.4434 211.828 40.8022 211.486 40.8022C210.974 40.8022 210.717 40.5459 210.717 40.0332C210.717 39.4863 212.17 38.3071 215.075 36.4956C218.151 34.5474 220.356 33.5732 221.689 33.5732C222.475 33.5732 222.868 33.9321 222.868 34.6499C222.868 34.8892 222.561 36.3418 221.945 39.0078C224.304 37.4697 226.184 36.3247 227.585 35.5728C230.183 34.1372 232.626 33.4194 234.917 33.4194C236.591 33.4194 237.429 34.1885 237.429 35.7266C237.429 36.1709 237.412 36.7349 237.377 37.4185C237.343 37.7261 237.326 38.1704 237.326 38.7515C239.479 37.0767 241.12 35.9146 242.248 35.2651C244.641 33.8979 246.965 33.2144 249.221 33.2144C251.647 33.2144 253.527 34.3252 254.86 36.5469C255.92 38.2559 256.45 40.4263 256.45 43.0581C256.45 48.0483 254.587 52.9531 250.861 57.7725C247.58 62.0449 243.803 65.2065 239.531 67.2573C236.865 68.4878 234.353 69.103 231.994 69.103C229.772 69.103 228.132 68.4536 227.072 67.1548C226.662 66.6763 226.218 65.9072 225.739 64.8477ZM225.534 62.7969C225.568 62.4209 225.722 61.6519 225.996 60.4897L226.713 58.2852L227.329 56.1831L227.739 54.9526L231.02 44.8525C232.011 41.8105 232.507 39.6914 232.507 38.4951C232.507 37.4697 232.011 36.957 231.02 36.957C229.208 36.957 226.987 37.8286 224.355 39.5718C222.749 40.6313 221.518 41.8447 220.664 43.2119C220.253 43.9297 219.758 45.126 219.177 46.8008C218.356 49.1592 217.553 51.5176 216.767 53.876C215.4 57.7725 214.716 60.5581 214.716 62.2329C214.716 63.6001 215.109 64.6255 215.896 65.3091C216.511 65.8901 217.263 66.1807 218.151 66.1807C219.211 66.1807 220.51 65.8218 222.048 65.104C223.312 64.5229 224.475 63.7539 225.534 62.7969ZM245.632 36.957C243.376 36.957 241.154 37.9653 238.967 39.9819C237.531 41.2808 236.386 42.9727 235.532 45.0576C234.541 47.3818 233.464 50.5605 232.302 54.5938C231.037 58.8662 230.405 61.5664 230.405 62.6943C230.405 63.4805 230.644 64.1812 231.123 64.7964C231.909 65.7876 233.037 66.2832 234.506 66.2832C238.266 66.2832 242.06 63.9932 245.888 59.4131C249.614 54.9697 251.477 50.0991 251.477 44.8013C251.477 39.5718 249.528 36.957 245.632 36.957Z" stroke="#B52B45" stroke-width="2" mask="url(#path-1-outside-1)"/>
<path d="M274.753 20.2944L277.47 18.3462C277.983 17.9702 278.342 17.7822 278.547 17.7822C279.094 17.7822 279.572 18.2437 279.982 19.1665C280.256 19.8159 280.393 20.4824 280.393 21.166C280.393 23.4902 278.889 25.8486 275.881 28.2412C274.719 29.1982 273.95 29.6768 273.574 29.6768C273.027 29.6768 272.753 29.4204 272.753 28.9077C272.753 28.7026 272.976 28.395 273.42 27.9849C274.685 26.8228 275.317 25.5923 275.317 24.2935C275.317 23.644 275.026 23.0459 274.445 22.499C273.933 22.0547 273.676 21.7129 273.676 21.4736C273.676 21.2002 274.035 20.8071 274.753 20.2944ZM273.728 39.3154L265.678 61.0537C265.166 62.4209 264.909 63.3267 264.909 63.771C264.909 64.2153 265.114 64.4375 265.524 64.4375C265.866 64.4375 266.396 64.2495 267.114 63.8735C268.037 63.395 268.618 63.1558 268.857 63.1558C269.541 63.1558 269.882 63.4805 269.882 64.1299C269.882 64.6768 268.754 65.5825 266.499 66.8472C263.833 68.3853 261.97 69.1543 260.91 69.1543C260.466 69.1543 260.073 69.0176 259.731 68.7441C259.423 68.4707 259.27 68.146 259.27 67.77C259.27 67.4282 259.543 66.4883 260.09 64.9502L260.449 63.9761L267.473 43.3145L267.832 42.1865C268.208 41.127 268.396 40.4775 268.396 40.2383C268.396 39.7256 268.122 39.4692 267.575 39.4692C267.37 39.4692 267.08 39.606 266.704 39.8794C265.849 40.4946 265.251 40.8022 264.909 40.8022C264.294 40.8022 263.986 40.4775 263.986 39.8281C263.986 39.1787 265.507 37.897 268.549 35.9829C270.976 34.4448 272.617 33.6758 273.471 33.6758C274.565 33.6758 275.112 34.1201 275.112 35.0088C275.112 35.3848 274.65 36.8203 273.728 39.3154Z" stroke="#B52B45" stroke-width="2" mask="url(#path-1-outside-1)"/>
<path d="M293.671 34.7012C292.919 34.7012 292.236 34.9062 291.621 35.3164C290.595 35.9658 290.083 36.9058 290.083 38.1362C290.083 39.23 290.664 40.4946 291.826 41.9302C292.133 42.3403 293.295 43.6733 295.312 45.9292C297.294 48.1509 298.508 49.7402 298.952 50.6973C299.67 52.1328 300.029 53.6538 300.029 55.2603C300.029 58.3706 298.798 61.2588 296.337 63.9248C293.09 67.377 289.16 69.103 284.545 69.103C280.649 69.103 277.709 67.9238 275.727 65.5654C274.36 63.9932 273.676 62.2671 273.676 60.3872C273.676 58.0972 274.497 56.0806 276.137 54.3374C276.821 53.6196 277.385 53.2607 277.829 53.2607C278.376 53.2607 278.649 53.5171 278.649 54.0298C278.649 54.3374 278.547 54.7305 278.342 55.209C277.761 56.4736 277.47 57.7554 277.47 59.0542C277.47 61.0366 278.068 62.7114 279.265 64.0786C280.974 66.0269 283.195 67.001 285.93 67.001C288.391 67.001 290.612 66.1465 292.595 64.4375C294.714 62.5918 295.773 60.4727 295.773 58.0801C295.773 56.5078 295.312 54.9355 294.389 53.3633C293.979 52.6797 293.005 51.5005 291.467 49.8257C289.655 47.8433 288.305 46.1685 287.417 44.8013C286.323 43.1948 285.776 41.6226 285.776 40.0845C285.776 37.7603 286.699 35.8633 288.544 34.3936C289.912 33.334 291.484 32.8042 293.261 32.8042C294.594 32.8042 296.149 33.2314 297.927 34.0859C298.2 34.2227 298.422 34.291 298.593 34.291C298.867 34.291 299.14 34.1201 299.414 33.7783C299.755 33.2998 300.114 33.0605 300.49 33.0605C301.071 33.0605 301.516 33.6074 301.823 34.7012C302.233 36.3418 302.438 37.9653 302.438 39.5718C302.438 41.9644 301.977 43.1606 301.054 43.1606C300.439 43.1606 300.029 42.6479 299.824 41.6226C299.414 39.5718 298.85 38.0679 298.132 37.1108C296.936 35.5044 295.449 34.7012 293.671 34.7012Z" stroke="#B52B45" stroke-width="2" mask="url(#path-1-outside-1)"/>
<path d="M322.895 46.8008L328.073 59.6694C328.312 60.2847 328.535 60.7803 328.74 61.1562C328.911 61.5664 329.099 61.9937 329.304 62.438C329.748 63.5317 330.329 64.0786 331.047 64.0786C331.525 64.0786 332.141 63.8394 332.893 63.3608C333.884 62.7456 334.482 62.438 334.687 62.438C335.166 62.438 335.405 62.6772 335.405 63.1558C335.405 63.7026 333.918 65.1724 330.944 67.5649C329.577 68.6587 328.449 69.2056 327.561 69.2056C326.979 69.2056 326.518 68.9663 326.176 68.4878C325.937 68.146 325.373 66.7959 324.484 64.4375L319.152 50.2871C316.008 52.8848 313.735 55.1235 312.333 57.0034C311.069 58.7808 309.873 61.293 308.745 64.54C307.924 66.8984 307.463 68.2485 307.36 68.5903L302.336 70.3848L323.049 12.7578L323.408 11.6812C323.75 10.6558 323.92 10.0576 323.92 9.88672C323.886 9.51074 323.698 9.32275 323.356 9.32275C322.946 9.32275 322.297 9.56201 321.408 10.0405C320.246 10.6216 319.528 10.9121 319.255 10.9121C318.708 10.9121 318.435 10.6045 318.435 9.98926C318.435 9.4082 319.426 8.5708 321.408 7.47705C325.305 5.28955 327.885 4.1958 329.15 4.1958C329.936 4.1958 330.329 4.58887 330.329 5.375C330.329 5.8877 330.004 7.03271 329.355 8.81006L313.513 52.3892C314.812 51.2271 317.99 48.3047 323.049 43.6221C326.262 40.6826 329.782 38.085 333.61 35.8291C335.627 34.667 337.182 34.0859 338.276 34.0859C338.891 34.0859 339.404 34.3252 339.814 34.8037C340.156 35.1797 340.327 35.624 340.327 36.1367C340.327 36.8887 339.899 37.521 339.045 38.0337C338.566 38.3413 337.524 38.7002 335.917 39.1104C333.627 39.6914 331.56 40.5459 329.714 41.6738C327.595 43.0068 325.322 44.7158 322.895 46.8008Z" stroke="#B52B45" stroke-width="2" mask="url(#path-1-outside-1)"/>
<path d="M361.911 32.7529C365.158 32.7529 367.893 33.8809 370.114 36.1367C372.302 38.3584 373.396 41.2466 373.396 44.8013C373.396 47.7065 372.695 50.6973 371.293 53.7734C369.926 56.8154 367.995 59.6011 365.5 62.1304C360.988 66.813 356.237 69.1543 351.247 69.1543C347.897 69.1543 345.18 67.9409 343.095 65.5142C341.215 63.3267 340.275 60.6094 340.275 57.3623C340.275 54.2861 340.959 51.1587 342.326 47.98C343.693 44.7671 345.556 41.9644 347.915 39.5718C352.392 35.0259 357.058 32.7529 361.911 32.7529ZM359.86 35.624C357.331 35.624 354.956 36.7007 352.734 38.854C350.546 40.9731 348.82 43.5708 347.556 46.647C346.291 49.7231 345.659 52.8677 345.659 56.0806C345.659 59.3618 346.582 61.9595 348.427 63.8735C349.931 65.3774 351.691 66.1294 353.708 66.1294C356.716 66.1294 359.501 64.54 362.065 61.3613C365.961 56.542 367.91 51.2441 367.91 45.4678C367.91 42.3232 367.021 39.7939 365.244 37.8799C363.842 36.376 362.048 35.624 359.86 35.624Z" stroke="#B52B45" stroke-width="2" mask="url(#path-1-outside-1)"/>
</svg>
