<svg width="375" height="73" fill="none" xmlns="http://www.w3.org/2000/svg"><mask id="a" maskUnits="userSpaceOnUse" x=".691" y=".068" width="374" height="72" fill="#000"><path fill="#fff" d="M.691.068h374v72h-374z"/><path d="M40.605 44.494l7.229-21.226c1.64-4.785 2.46-7.861 2.46-9.228 0-1.333-.597-2.444-1.793-3.333-1.539-1.162-3.658-2.187-6.358-3.076-3.999-1.333-7.913-2-11.74-2-5.128 0-9.725 1.145-13.792 3.435-3.35 1.846-5.88 4.393-7.588 7.64a17.175 17.175 0 00-2.05 8.203c0 3.52 1.161 6.425 3.486 8.715 2.768 2.7 6.22 4.05 10.356 4.05.957 0 1.829-.068 2.615-.204.99-.205 1.692-.308 2.102-.308.718 0 1.076.29 1.076.872 0 .58-.598 1.042-1.794 1.384-1.812.479-3.64.718-5.486.718-4.272 0-8.015-1.009-11.228-3.025-4.272-2.666-6.409-6.528-6.409-11.587 0-2.803.718-5.52 2.154-8.152 1.435-2.666 3.452-5.024 6.05-7.075 6.22-4.888 13.586-7.332 22.097-7.332 7.588 0 14.355 1.812 20.302 5.435 2.837 1.709 4.256 3.247 4.256 4.614 0 .65-.308 1.846-.923 3.589a261.465 261.465 0 00-1.23 3.538c-.718 1.811-1.094 2.785-1.128 2.922l-4.666 13.74c-3.179 9.297-4.768 16.082-4.768 20.354 0 2.393.65 4.375 1.948 5.948 1.367 1.606 3.162 2.41 5.383 2.41 5.196 0 10.75-3.829 16.663-11.485 3.35-4.307 6.101-9.212 8.255-14.715 2.7-6.733 4.05-13.227 4.05-19.482 0-4.375-1.162-8.767-3.487-13.176-.752-1.436-1.128-2.512-1.128-3.23 0-.752.24-1.35.718-1.795a2.583 2.583 0 011.64-.564c1.47 0 2.667.992 3.59 2.974 1.401 2.94 2.102 6.904 2.102 11.895 0 6.938-1.35 14.082-4.05 21.43-3.59 9.81-8.682 17.876-15.279 24.2-5.23 5.058-10.34 7.587-15.33 7.587-2.87 0-5.366-1.213-7.485-3.64-2.085-2.392-3.127-5.451-3.127-9.177 0-3.418.769-7.366 2.307-11.843zm55.576 5.998l-10.92 11.433c6.528 2.495 10.886 3.743 13.074 3.743 2.495 0 5.246-1.743 8.254-5.23.376-.41.701-.615.974-.615.444 0 .666.188.666.564 0 .718-1.23 2.205-3.691 4.46-3.008 2.803-6.016 4.205-9.023 4.205-2.017 0-4.649-.598-7.896-1.795-3.35-1.23-5.537-1.828-6.562-1.794-.855 0-1.282-.188-1.282-.564 0-.342.393-.872 1.18-1.59l12.304-12.97c-1.504-.035-2.837.239-4 .82-.58.307-.94.461-1.076.461-.444 0-.666-.205-.666-.615 0-.445.512-1.111 1.538-2 1.606-1.47 3.725-2.204 6.357-2.204h1.18l7.638-8.1c-.546-.103-2.067-.325-4.563-.667-3.041-.547-5.075-.82-6.1-.82-3.043 0-5.657 1.35-7.845 4.05-.41.512-.752.769-1.025.769-.342 0-.513-.171-.513-.513 0-.615 1.043-1.914 3.127-3.897 1.812-1.743 3.35-2.853 4.615-3.332a9.566 9.566 0 013.537-.666c1.094 0 3.453.307 7.076.922 1.982.342 3.298.513 3.947.513.41 0 .872-.051 1.385-.154a9.783 9.783 0 011.23-.102c.581 0 .872.239.872.718 0 .273-.411.837-1.231 1.691l-9.177 9.69c1.025.103 1.743.154 2.153.154 1.402 0 2.803-.41 4.204-1.23.24-.137.462-.205.667-.205.376 0 .564.17.564.512 0 .615-.889 1.607-2.666 2.974-1.265.957-2.82 1.436-4.666 1.436-.478 0-1.692-.018-3.64-.052zm46.245-13.279l8.819-24.25c.683-1.88 1.025-2.957 1.025-3.23 0-.41-.239-.615-.718-.615-.376 0-.974.205-1.794.615-1.333.683-2.119 1.025-2.359 1.025-.478 0-.717-.256-.717-.769 0-.923 2.085-2.392 6.255-4.409 2.29-1.094 3.759-1.64 4.409-1.64.854 0 1.281.46 1.281 1.384 0 .376-.358 1.572-1.076 3.589l-19.072 51.32c-.513 1.504-.77 2.376-.77 2.615 0 .513.257.77.77.77.615 0 1.896-.702 3.845-2.103.239-.17.478-.256.718-.256.683 0 1.025.307 1.025.923 0 .615-1.333 1.845-3.999 3.691-3.145 2.222-5.52 3.333-7.127 3.333-.888 0-1.333-.428-1.333-1.282 0-.342.291-1.367.872-3.076.308-.855.684-2 1.128-3.435-4.956 5.024-9.741 7.536-14.356 7.536-2.631 0-4.597-.957-5.896-2.87-1.162-1.71-1.743-3.59-1.743-5.64 0-3.419 1.197-7.298 3.589-11.639 3.384-6.118 7.622-10.612 12.715-13.484 2.803-1.572 5.417-2.358 7.844-2.358 2.051 0 3.743.7 5.076 2.102.444.479.974 1.196 1.589 2.153zm-9.331-.871c-2.187 0-4.494.957-6.921 2.87-3.179 2.53-5.606 6-7.28 10.409-1.333 3.52-2 6.545-2 9.074 0 1.846.564 3.401 1.692 4.666 1.06 1.162 2.393 1.743 3.999 1.743 3.657 0 7.144-2.222 10.459-6.665 1.948-2.632 3.486-5.605 4.614-8.92.957-2.77 1.436-5.06 1.436-6.871 0-1.983-.633-3.606-1.897-4.87-.957-.958-2.324-1.436-4.102-1.436zm27.019 9.588c6.187-8.033 11.006-12.05 14.458-12.05.889 0 1.333.53 1.333 1.59 0 .752-.256 1.453-.769 2.102-.342.479-1.23.974-2.666 1.487-4.477 1.607-8.938 5.845-13.381 12.715-2.837 4.58-5.332 10.134-7.485 16.662l-4.666 1.641 8.716-26.455.256-.769c.41-1.299.615-2.102.615-2.41 0-.58-.222-.871-.666-.871-.376 0-.838.205-1.384.615-.992.684-1.726 1.025-2.205 1.025-.547 0-.82-.307-.82-.922 0-.65 1.179-1.692 3.537-3.128 3.76-2.29 6.289-3.435 7.588-3.435.889 0 1.333.444 1.333 1.333 0 .308-.427 1.624-1.282 3.948l-2.512 6.921zm32.813-13.177c3.247 0 5.981 1.128 8.203 3.384 2.187 2.221 3.281 5.11 3.281 8.664 0 2.905-.701 5.896-2.102 8.972-1.367 3.042-3.298 5.828-5.793 8.357-4.512 4.683-9.263 7.024-14.253 7.024-3.35 0-6.067-1.213-8.152-3.64-1.88-2.187-2.82-4.905-2.82-8.152 0-3.076.684-6.203 2.051-9.382 1.367-3.213 3.23-6.016 5.588-8.408 4.478-4.546 9.143-6.82 13.997-6.82zm-2.051 2.871c-2.529 0-4.905 1.077-7.126 3.23-2.188 2.12-3.914 4.717-5.179 7.793-1.264 3.076-1.897 6.22-1.897 9.434 0 3.28.923 5.878 2.769 7.792 1.504 1.504 3.264 2.256 5.281 2.256 3.007 0 5.793-1.589 8.357-4.768 3.896-4.819 5.844-10.117 5.844-15.893 0-3.145-.888-5.674-2.666-7.588-1.401-1.504-3.196-2.256-5.383-2.256zm34.863 29.224c-1.811 1.23-3.093 2.067-3.845 2.512-1.982 1.162-3.982 1.743-5.998 1.743-1.744 0-3.213-.615-4.41-1.846-1.059-1.093-1.589-2.392-1.589-3.896 0-1.47.478-3.692 1.436-6.665l4.46-13.894.359-1.077c.307-.991.461-1.606.461-1.846 0-.683-.307-1.025-.923-1.025-.444 0-1.11.29-1.999.872-1.128.717-1.863 1.076-2.205 1.076-.512 0-.769-.256-.769-.769 0-.547 1.453-1.726 4.358-3.537 3.076-1.949 5.281-2.923 6.614-2.923.786 0 1.179.36 1.179 1.077 0 .24-.307 1.692-.923 4.358 2.359-1.538 4.239-2.683 5.64-3.435 2.598-1.436 5.041-2.154 7.332-2.154 1.674 0 2.512.77 2.512 2.308 0 .444-.017 1.008-.052 1.692-.034.307-.051.751-.051 1.333 2.153-1.675 3.794-2.837 4.922-3.487 2.393-1.367 4.717-2.05 6.973-2.05 2.426 0 4.306 1.11 5.639 3.332 1.06 1.709 1.59 3.88 1.59 6.511 0 4.99-1.863 9.895-5.589 14.715-3.281 4.272-7.058 7.434-11.33 9.484-2.666 1.23-5.178 1.846-7.537 1.846-2.222 0-3.862-.65-4.922-1.948-.41-.479-.854-1.248-1.333-2.307zm-.205-2.051c.034-.376.188-1.145.462-2.307l.717-2.205.616-2.102.41-1.23 3.281-10.1c.991-3.043 1.487-5.162 1.487-6.358 0-1.025-.496-1.538-1.487-1.538-1.812 0-4.033.872-6.665 2.615-1.606 1.06-2.837 2.273-3.691 3.64-.411.718-.906 1.914-1.487 3.589a562.088 562.088 0 00-2.41 7.075c-1.367 3.897-2.051 6.682-2.051 8.357 0 1.367.393 2.393 1.18 3.076.615.581 1.367.872 2.255.872 1.06 0 2.359-.36 3.897-1.077a13.734 13.734 0 003.486-2.307zm20.098-25.84c-2.256 0-4.478 1.008-6.665 3.025-1.436 1.299-2.581 2.99-3.435 5.076-.991 2.324-2.068 5.502-3.23 9.536-1.265 4.272-1.897 6.972-1.897 8.1 0 .786.239 1.487.718 2.102.786.992 1.914 1.487 3.383 1.487 3.76 0 7.554-2.29 11.382-6.87 3.726-4.443 5.589-9.314 5.589-14.612 0-5.23-1.949-7.844-5.845-7.844zm29.121-16.663l2.717-1.948c.513-.376.872-.564 1.077-.564.547 0 1.025.462 1.435 1.384a5.1 5.1 0 01.411 2c0 2.324-1.504 4.683-4.512 7.075-1.162.957-1.931 1.436-2.307 1.436-.547 0-.821-.257-.821-.77 0-.204.223-.512.667-.922 1.265-1.162 1.897-2.393 1.897-3.691 0-.65-.291-1.248-.872-1.795-.512-.444-.769-.786-.769-1.025 0-.274.359-.667 1.077-1.18zm-1.025 19.021l-8.05 21.739c-.512 1.367-.769 2.273-.769 2.717 0 .444.205.666.615.666.342 0 .872-.188 1.59-.563.923-.479 1.504-.718 1.743-.718.684 0 1.025.325 1.025.974 0 .547-1.128 1.453-3.383 2.717-2.666 1.538-4.529 2.307-5.589 2.307-.444 0-.837-.136-1.179-.41-.308-.273-.461-.598-.461-.974 0-.342.273-1.282.82-2.82l.359-.974 7.024-20.661.359-1.128c.376-1.06.564-1.71.564-1.949 0-.512-.274-.769-.821-.769-.205 0-.495.137-.871.41-.855.616-1.453.923-1.795.923-.615 0-.923-.325-.923-.974 0-.65 1.521-1.931 4.563-3.845 2.427-1.538 4.068-2.307 4.922-2.307 1.094 0 1.641.444 1.641 1.333 0 .376-.462 1.811-1.384 4.306zm19.943-4.614c-.752 0-1.435.205-2.05.615-1.026.65-1.538 1.59-1.538 2.82 0 1.094.581 2.359 1.743 3.794.307.41 1.469 1.743 3.486 4 1.982 2.22 3.196 3.81 3.64 4.767a10.065 10.065 0 011.077 4.563c0 3.11-1.231 5.999-3.692 8.665-3.247 3.452-7.177 5.178-11.792 5.178-3.896 0-6.836-1.18-8.818-3.538-1.367-1.572-2.051-3.298-2.051-5.178 0-2.29.821-4.306 2.461-6.05.684-.717 1.248-1.076 1.692-1.076.547 0 .82.256.82.769 0 .307-.102.7-.307 1.179-.581 1.265-.872 2.546-.872 3.845 0 1.983.598 3.657 1.795 5.025 1.709 1.948 3.93 2.922 6.665 2.922 2.461 0 4.682-.855 6.665-2.564 2.119-1.845 3.178-3.964 3.178-6.357 0-1.572-.461-3.145-1.384-4.717-.41-.683-1.384-1.862-2.922-3.537-1.812-1.983-3.162-3.657-4.05-5.025-1.094-1.606-1.641-3.178-1.641-4.717 0-2.324.923-4.22 2.768-5.69 1.368-1.06 2.94-1.59 4.717-1.59 1.333 0 2.888.427 4.666 1.282.273.137.495.205.666.205.274 0 .547-.17.821-.513.341-.478.7-.718 1.076-.718.581 0 1.026.547 1.333 1.641.41 1.64.615 3.264.615 4.87 0 2.393-.461 3.59-1.384 3.59-.615 0-1.025-.513-1.23-1.538-.41-2.051-.974-3.555-1.692-4.512-1.196-1.607-2.683-2.41-4.461-2.41zM322.895 46.8l5.178 12.87c.239.615.462 1.11.667 1.486.171.41.359.838.564 1.282.444 1.094 1.025 1.64 1.743 1.64.478 0 1.094-.239 1.846-.717.991-.615 1.589-.923 1.794-.923.479 0 .718.24.718.718 0 .547-1.487 2.016-4.461 4.409-1.367 1.094-2.495 1.64-3.383 1.64-.582 0-1.043-.239-1.385-.717-.239-.342-.803-1.692-1.692-4.05l-5.332-14.15c-3.144 2.597-5.417 4.836-6.819 6.715-1.264 1.778-2.46 4.29-3.588 7.537-.821 2.358-1.282 3.709-1.385 4.05l-5.024 1.795 20.713-57.627.359-1.077c.342-1.025.512-1.623.512-1.794-.034-.376-.222-.564-.564-.564-.41 0-1.059.239-1.948.717-1.162.582-1.88.872-2.153.872-.547 0-.82-.308-.82-.923 0-.58.991-1.418 2.973-2.512 3.897-2.187 6.477-3.281 7.742-3.281.786 0 1.179.393 1.179 1.179 0 .513-.325 1.658-.974 3.435l-15.842 43.58c1.299-1.163 4.477-4.085 9.536-8.768a62.911 62.911 0 0110.561-7.793c2.017-1.162 3.572-1.743 4.666-1.743.615 0 1.128.24 1.538.718.342.376.513.82.513 1.333 0 .752-.428 1.384-1.282 1.897-.479.307-1.521.666-3.128 1.076-2.29.581-4.357 1.436-6.203 2.564-2.119 1.333-4.392 3.042-6.819 5.127zm39.016-14.047c3.247 0 5.982 1.128 8.203 3.384 2.188 2.221 3.282 5.11 3.282 8.664 0 2.905-.701 5.896-2.103 8.972-1.367 3.042-3.298 5.828-5.793 8.357-4.512 4.683-9.263 7.024-14.253 7.024-3.35 0-6.067-1.213-8.152-3.64-1.88-2.187-2.82-4.905-2.82-8.152 0-3.076.684-6.203 2.051-9.382 1.367-3.213 3.23-6.016 5.589-8.408 4.477-4.546 9.143-6.82 13.996-6.82zm-2.051 2.871c-2.529 0-4.904 1.077-7.126 3.23-2.188 2.12-3.914 4.717-5.178 7.793-1.265 3.076-1.897 6.22-1.897 9.434 0 3.28.923 5.878 2.768 7.792 1.504 1.504 3.264 2.256 5.281 2.256 3.008 0 5.793-1.589 8.357-4.768 3.896-4.819 5.845-10.117 5.845-15.893 0-3.145-.889-5.674-2.666-7.588-1.402-1.504-3.196-2.256-5.384-2.256z"/></mask><path d="M40.605 44.494l7.229-21.226c1.64-4.785 2.46-7.861 2.46-9.228 0-1.333-.597-2.444-1.793-3.333-1.539-1.162-3.658-2.187-6.358-3.076-3.999-1.333-7.913-2-11.74-2-5.128 0-9.725 1.145-13.792 3.435-3.35 1.846-5.88 4.393-7.588 7.64a17.175 17.175 0 00-2.05 8.203c0 3.52 1.161 6.425 3.486 8.715 2.768 2.7 6.22 4.05 10.356 4.05.957 0 1.829-.068 2.615-.204.99-.205 1.692-.308 2.102-.308.718 0 1.076.29 1.076.872 0 .58-.598 1.042-1.794 1.384-1.812.479-3.64.718-5.486.718-4.272 0-8.015-1.009-11.228-3.025-4.272-2.666-6.409-6.528-6.409-11.587 0-2.803.718-5.52 2.154-8.152 1.435-2.666 3.452-5.024 6.05-7.075 6.22-4.888 13.586-7.332 22.097-7.332 7.588 0 14.355 1.812 20.302 5.435 2.837 1.709 4.256 3.247 4.256 4.614 0 .65-.308 1.846-.923 3.589a261.465 261.465 0 00-1.23 3.538c-.718 1.811-1.094 2.785-1.128 2.922l-4.666 13.74c-3.179 9.297-4.768 16.082-4.768 20.354 0 2.393.65 4.375 1.948 5.948 1.367 1.606 3.162 2.41 5.383 2.41 5.196 0 10.75-3.829 16.663-11.485 3.35-4.307 6.101-9.212 8.255-14.715 2.7-6.733 4.05-13.227 4.05-19.482 0-4.375-1.162-8.767-3.487-13.176-.752-1.436-1.128-2.512-1.128-3.23 0-.752.24-1.35.718-1.795a2.583 2.583 0 011.64-.564c1.47 0 2.667.992 3.59 2.974 1.401 2.94 2.102 6.904 2.102 11.895 0 6.938-1.35 14.082-4.05 21.43-3.59 9.81-8.682 17.876-15.279 24.2-5.23 5.058-10.34 7.587-15.33 7.587-2.87 0-5.366-1.213-7.485-3.64-2.085-2.392-3.127-5.451-3.127-9.177 0-3.418.769-7.366 2.307-11.843zm55.576 5.998l-10.92 11.433c6.528 2.495 10.886 3.743 13.074 3.743 2.495 0 5.246-1.743 8.254-5.23.376-.41.701-.615.974-.615.444 0 .666.188.666.564 0 .718-1.23 2.205-3.691 4.46-3.008 2.803-6.016 4.205-9.023 4.205-2.017 0-4.649-.598-7.896-1.795-3.35-1.23-5.537-1.828-6.562-1.794-.855 0-1.282-.188-1.282-.564 0-.342.393-.872 1.18-1.59l12.304-12.97c-1.504-.035-2.837.239-4 .82-.58.307-.94.461-1.076.461-.444 0-.666-.205-.666-.615 0-.445.512-1.111 1.538-2 1.606-1.47 3.725-2.204 6.357-2.204h1.18l7.638-8.1c-.546-.103-2.067-.325-4.563-.667-3.041-.547-5.075-.82-6.1-.82-3.043 0-5.657 1.35-7.845 4.05-.41.512-.752.769-1.025.769-.342 0-.513-.171-.513-.513 0-.615 1.043-1.914 3.127-3.897 1.812-1.743 3.35-2.853 4.615-3.332a9.566 9.566 0 013.537-.666c1.094 0 3.453.307 7.076.922 1.982.342 3.298.513 3.947.513.41 0 .872-.051 1.385-.154a9.783 9.783 0 011.23-.102c.581 0 .872.239.872.718 0 .273-.411.837-1.231 1.691l-9.177 9.69c1.025.103 1.743.154 2.153.154 1.402 0 2.803-.41 4.204-1.23.24-.137.462-.205.667-.205.376 0 .564.17.564.512 0 .615-.889 1.607-2.666 2.974-1.265.957-2.82 1.436-4.666 1.436-.478 0-1.692-.018-3.64-.052zm46.245-13.279l8.819-24.25c.683-1.88 1.025-2.957 1.025-3.23 0-.41-.239-.615-.718-.615-.376 0-.974.205-1.794.615-1.333.683-2.119 1.025-2.359 1.025-.478 0-.717-.256-.717-.769 0-.923 2.085-2.392 6.255-4.409 2.29-1.094 3.759-1.64 4.409-1.64.854 0 1.281.46 1.281 1.384 0 .376-.358 1.572-1.076 3.589l-19.072 51.32c-.513 1.504-.77 2.376-.77 2.615 0 .513.257.77.77.77.615 0 1.896-.702 3.845-2.103.239-.17.478-.256.718-.256.683 0 1.025.307 1.025.923 0 .615-1.333 1.845-3.999 3.691-3.145 2.222-5.52 3.333-7.127 3.333-.888 0-1.333-.428-1.333-1.282 0-.342.291-1.367.872-3.076.308-.855.684-2 1.128-3.435-4.956 5.024-9.741 7.536-14.356 7.536-2.631 0-4.597-.957-5.896-2.87-1.162-1.71-1.743-3.59-1.743-5.64 0-3.419 1.197-7.298 3.589-11.639 3.384-6.118 7.622-10.612 12.715-13.484 2.803-1.572 5.417-2.358 7.844-2.358 2.051 0 3.743.7 5.076 2.102.444.479.974 1.196 1.589 2.153zm-9.331-.871c-2.187 0-4.494.957-6.921 2.87-3.179 2.53-5.606 6-7.28 10.409-1.333 3.52-2 6.545-2 9.074 0 1.846.564 3.401 1.692 4.666 1.06 1.162 2.393 1.743 3.999 1.743 3.657 0 7.144-2.222 10.459-6.665 1.948-2.632 3.486-5.605 4.614-8.92.957-2.77 1.436-5.06 1.436-6.871 0-1.983-.633-3.606-1.897-4.87-.957-.958-2.324-1.436-4.102-1.436zm27.019 9.588c6.187-8.033 11.006-12.05 14.458-12.05.889 0 1.333.53 1.333 1.59 0 .752-.256 1.453-.769 2.102-.342.479-1.23.974-2.666 1.487-4.477 1.607-8.938 5.845-13.381 12.715-2.837 4.58-5.332 10.134-7.485 16.662l-4.666 1.641 8.716-26.455.256-.769c.41-1.299.615-2.102.615-2.41 0-.58-.222-.871-.666-.871-.376 0-.838.205-1.384.615-.992.684-1.726 1.025-2.205 1.025-.547 0-.82-.307-.82-.922 0-.65 1.179-1.692 3.537-3.128 3.76-2.29 6.289-3.435 7.588-3.435.889 0 1.333.444 1.333 1.333 0 .308-.427 1.624-1.282 3.948l-2.512 6.921zm32.813-13.177c3.247 0 5.981 1.128 8.203 3.384 2.187 2.221 3.281 5.11 3.281 8.664 0 2.905-.701 5.896-2.102 8.972-1.367 3.042-3.298 5.828-5.793 8.357-4.512 4.683-9.263 7.024-14.253 7.024-3.35 0-6.067-1.213-8.152-3.64-1.88-2.187-2.82-4.905-2.82-8.152 0-3.076.684-6.203 2.051-9.382 1.367-3.213 3.23-6.016 5.588-8.408 4.478-4.546 9.143-6.82 13.997-6.82zm-2.051 2.871c-2.529 0-4.905 1.077-7.126 3.23-2.188 2.12-3.914 4.717-5.179 7.793-1.264 3.076-1.897 6.22-1.897 9.434 0 3.28.923 5.878 2.769 7.792 1.504 1.504 3.264 2.256 5.281 2.256 3.007 0 5.793-1.589 8.357-4.768 3.896-4.819 5.844-10.117 5.844-15.893 0-3.145-.888-5.674-2.666-7.588-1.401-1.504-3.196-2.256-5.383-2.256zm34.863 29.224c-1.811 1.23-3.093 2.067-3.845 2.512-1.982 1.162-3.982 1.743-5.998 1.743-1.744 0-3.213-.615-4.41-1.846-1.059-1.093-1.589-2.392-1.589-3.896 0-1.47.478-3.692 1.436-6.665l4.46-13.894.359-1.077c.307-.991.461-1.606.461-1.846 0-.683-.307-1.025-.923-1.025-.444 0-1.11.29-1.999.872-1.128.717-1.863 1.076-2.205 1.076-.512 0-.769-.256-.769-.769 0-.547 1.453-1.726 4.358-3.537 3.076-1.949 5.281-2.923 6.614-2.923.786 0 1.179.36 1.179 1.077 0 .24-.307 1.692-.923 4.358 2.359-1.538 4.239-2.683 5.64-3.435 2.598-1.436 5.041-2.154 7.332-2.154 1.674 0 2.512.77 2.512 2.308 0 .444-.017 1.008-.052 1.692-.034.307-.051.751-.051 1.333 2.153-1.675 3.794-2.837 4.922-3.487 2.393-1.367 4.717-2.05 6.973-2.05 2.426 0 4.306 1.11 5.639 3.332 1.06 1.709 1.59 3.88 1.59 6.511 0 4.99-1.863 9.895-5.589 14.715-3.281 4.272-7.058 7.434-11.33 9.484-2.666 1.23-5.178 1.846-7.537 1.846-2.222 0-3.862-.65-4.922-1.948-.41-.479-.854-1.248-1.333-2.307zm-.205-2.051c.034-.376.188-1.145.462-2.307l.717-2.205.616-2.102.41-1.23 3.281-10.1c.991-3.043 1.487-5.162 1.487-6.358 0-1.025-.496-1.538-1.487-1.538-1.812 0-4.033.872-6.665 2.615-1.606 1.06-2.837 2.273-3.691 3.64-.411.718-.906 1.914-1.487 3.589a562.088 562.088 0 00-2.41 7.075c-1.367 3.897-2.051 6.682-2.051 8.357 0 1.367.393 2.393 1.18 3.076.615.581 1.367.872 2.255.872 1.06 0 2.359-.36 3.897-1.077a13.734 13.734 0 003.486-2.307zm20.098-25.84c-2.256 0-4.478 1.008-6.665 3.025-1.436 1.299-2.581 2.99-3.435 5.076-.991 2.324-2.068 5.502-3.23 9.536-1.265 4.272-1.897 6.972-1.897 8.1 0 .786.239 1.487.718 2.102.786.992 1.914 1.487 3.383 1.487 3.76 0 7.554-2.29 11.382-6.87 3.726-4.443 5.589-9.314 5.589-14.612 0-5.23-1.949-7.844-5.845-7.844zm29.121-16.663l2.717-1.948c.513-.376.872-.564 1.077-.564.547 0 1.025.462 1.435 1.384a5.1 5.1 0 01.411 2c0 2.324-1.504 4.683-4.512 7.075-1.162.957-1.931 1.436-2.307 1.436-.547 0-.821-.257-.821-.77 0-.204.223-.512.667-.922 1.265-1.162 1.897-2.393 1.897-3.691 0-.65-.291-1.248-.872-1.795-.512-.444-.769-.786-.769-1.025 0-.274.359-.667 1.077-1.18zm-1.025 19.021l-8.05 21.739c-.512 1.367-.769 2.273-.769 2.717 0 .444.205.666.615.666.342 0 .872-.188 1.59-.563.923-.479 1.504-.718 1.743-.718.684 0 1.025.325 1.025.974 0 .547-1.128 1.453-3.383 2.717-2.666 1.538-4.529 2.307-5.589 2.307-.444 0-.837-.136-1.179-.41-.308-.273-.461-.598-.461-.974 0-.342.273-1.282.82-2.82l.359-.974 7.024-20.661.359-1.128c.376-1.06.564-1.71.564-1.949 0-.512-.274-.769-.821-.769-.205 0-.495.137-.871.41-.855.616-1.453.923-1.795.923-.615 0-.923-.325-.923-.974 0-.65 1.521-1.931 4.563-3.845 2.427-1.538 4.068-2.307 4.922-2.307 1.094 0 1.641.444 1.641 1.333 0 .376-.462 1.811-1.384 4.306zm19.943-4.614c-.752 0-1.435.205-2.05.615-1.026.65-1.538 1.59-1.538 2.82 0 1.094.581 2.359 1.743 3.794.307.41 1.469 1.743 3.486 4 1.982 2.22 3.196 3.81 3.64 4.767a10.065 10.065 0 011.077 4.563c0 3.11-1.231 5.999-3.692 8.665-3.247 3.452-7.177 5.178-11.792 5.178-3.896 0-6.836-1.18-8.818-3.538-1.367-1.572-2.051-3.298-2.051-5.178 0-2.29.821-4.306 2.461-6.05.684-.717 1.248-1.076 1.692-1.076.547 0 .82.256.82.769 0 .307-.102.7-.307 1.179-.581 1.265-.872 2.546-.872 3.845 0 1.983.598 3.657 1.795 5.025 1.709 1.948 3.93 2.922 6.665 2.922 2.461 0 4.682-.855 6.665-2.564 2.119-1.845 3.178-3.964 3.178-6.357 0-1.572-.461-3.145-1.384-4.717-.41-.683-1.384-1.862-2.922-3.537-1.812-1.983-3.162-3.657-4.05-5.025-1.094-1.606-1.641-3.178-1.641-4.717 0-2.324.923-4.22 2.768-5.69 1.368-1.06 2.94-1.59 4.717-1.59 1.333 0 2.888.427 4.666 1.282.273.137.495.205.666.205.274 0 .547-.17.821-.513.341-.478.7-.718 1.076-.718.581 0 1.026.547 1.333 1.641.41 1.64.615 3.264.615 4.87 0 2.393-.461 3.59-1.384 3.59-.615 0-1.025-.513-1.23-1.538-.41-2.051-.974-3.555-1.692-4.512-1.196-1.607-2.683-2.41-4.461-2.41zM322.895 46.8l5.178 12.87c.239.615.462 1.11.667 1.486.171.41.359.838.564 1.282.444 1.094 1.025 1.64 1.743 1.64.478 0 1.094-.239 1.846-.717.991-.615 1.589-.923 1.794-.923.479 0 .718.24.718.718 0 .547-1.487 2.016-4.461 4.409-1.367 1.094-2.495 1.64-3.383 1.64-.582 0-1.043-.239-1.385-.717-.239-.342-.803-1.692-1.692-4.05l-5.332-14.15c-3.144 2.597-5.417 4.836-6.819 6.715-1.264 1.778-2.46 4.29-3.588 7.537-.821 2.358-1.282 3.709-1.385 4.05l-5.024 1.795 20.713-57.627.359-1.077c.342-1.025.512-1.623.512-1.794-.034-.376-.222-.564-.564-.564-.41 0-1.059.239-1.948.717-1.162.582-1.88.872-2.153.872-.547 0-.82-.308-.82-.923 0-.58.991-1.418 2.973-2.512 3.897-2.187 6.477-3.281 7.742-3.281.786 0 1.179.393 1.179 1.179 0 .513-.325 1.658-.974 3.435l-15.842 43.58c1.299-1.163 4.477-4.085 9.536-8.768a62.911 62.911 0 0110.561-7.793c2.017-1.162 3.572-1.743 4.666-1.743.615 0 1.128.24 1.538.718.342.376.513.82.513 1.333 0 .752-.428 1.384-1.282 1.897-.479.307-1.521.666-3.128 1.076-2.29.581-4.357 1.436-6.203 2.564-2.119 1.333-4.392 3.042-6.819 5.127zm39.016-14.047c3.247 0 5.982 1.128 8.203 3.384 2.188 2.221 3.282 5.11 3.282 8.664 0 2.905-.701 5.896-2.103 8.972-1.367 3.042-3.298 5.828-5.793 8.357-4.512 4.683-9.263 7.024-14.253 7.024-3.35 0-6.067-1.213-8.152-3.64-1.88-2.187-2.82-4.905-2.82-8.152 0-3.076.684-6.203 2.051-9.382 1.367-3.213 3.23-6.016 5.589-8.408 4.477-4.546 9.143-6.82 13.996-6.82zm-2.051 2.871c-2.529 0-4.904 1.077-7.126 3.23-2.188 2.12-3.914 4.717-5.178 7.793-1.265 3.076-1.897 6.22-1.897 9.434 0 3.28.923 5.878 2.768 7.792 1.504 1.504 3.264 2.256 5.281 2.256 3.008 0 5.793-1.589 8.357-4.768 3.896-4.819 5.845-10.117 5.845-15.893 0-3.145-.889-5.674-2.666-7.588-1.402-1.504-3.196-2.256-5.384-2.256z" fill="#fff"/><path d="M40.605 44.494l7.229-21.226c1.64-4.785 2.46-7.861 2.46-9.228 0-1.333-.597-2.444-1.793-3.333-1.539-1.162-3.658-2.187-6.358-3.076-3.999-1.333-7.913-2-11.74-2-5.128 0-9.725 1.145-13.792 3.435-3.35 1.846-5.88 4.393-7.588 7.64a17.175 17.175 0 00-2.05 8.203c0 3.52 1.161 6.425 3.486 8.715 2.768 2.7 6.22 4.05 10.356 4.05.957 0 1.829-.068 2.615-.204.99-.205 1.692-.308 2.102-.308.718 0 1.076.29 1.076.872 0 .58-.598 1.042-1.794 1.384-1.812.479-3.64.718-5.486.718-4.272 0-8.015-1.009-11.228-3.025-4.272-2.666-6.409-6.528-6.409-11.587 0-2.803.718-5.52 2.154-8.152 1.435-2.666 3.452-5.024 6.05-7.075 6.22-4.888 13.586-7.332 22.097-7.332 7.588 0 14.355 1.812 20.302 5.435 2.837 1.709 4.256 3.247 4.256 4.614 0 .65-.308 1.846-.923 3.589a261.465 261.465 0 00-1.23 3.538c-.718 1.811-1.094 2.785-1.128 2.922l-4.666 13.74c-3.179 9.297-4.768 16.082-4.768 20.354 0 2.393.65 4.375 1.948 5.948 1.367 1.606 3.162 2.41 5.383 2.41 5.196 0 10.75-3.829 16.663-11.485 3.35-4.307 6.101-9.212 8.255-14.715 2.7-6.733 4.05-13.227 4.05-19.482 0-4.375-1.162-8.767-3.487-13.176-.752-1.436-1.128-2.512-1.128-3.23 0-.752.24-1.35.718-1.795a2.583 2.583 0 011.64-.564c1.47 0 2.667.992 3.59 2.974 1.401 2.94 2.102 6.904 2.102 11.895 0 6.938-1.35 14.082-4.05 21.43-3.59 9.81-8.682 17.876-15.279 24.2-5.23 5.058-10.34 7.587-15.33 7.587-2.87 0-5.366-1.213-7.485-3.64-2.085-2.392-3.127-5.451-3.127-9.177 0-3.418.769-7.366 2.307-11.843zm55.576 5.998l-10.92 11.433c6.528 2.495 10.886 3.743 13.074 3.743 2.495 0 5.246-1.743 8.254-5.23.376-.41.701-.615.974-.615.444 0 .666.188.666.564 0 .718-1.23 2.205-3.691 4.46-3.008 2.803-6.016 4.205-9.023 4.205-2.017 0-4.649-.598-7.896-1.795-3.35-1.23-5.537-1.828-6.562-1.794-.855 0-1.282-.188-1.282-.564 0-.342.393-.872 1.18-1.59l12.304-12.97c-1.504-.035-2.837.239-4 .82-.58.307-.94.461-1.076.461-.444 0-.666-.205-.666-.615 0-.445.512-1.111 1.538-2 1.606-1.47 3.725-2.204 6.357-2.204h1.18l7.638-8.1c-.546-.103-2.067-.325-4.563-.667-3.041-.547-5.075-.82-6.1-.82-3.043 0-5.657 1.35-7.845 4.05-.41.512-.752.769-1.025.769-.342 0-.513-.171-.513-.513 0-.615 1.043-1.914 3.127-3.897 1.812-1.743 3.35-2.853 4.615-3.332a9.566 9.566 0 013.537-.666c1.094 0 3.453.307 7.076.922 1.982.342 3.298.513 3.947.513.41 0 .872-.051 1.385-.154a9.783 9.783 0 011.23-.102c.581 0 .872.239.872.718 0 .273-.411.837-1.231 1.691l-9.177 9.69c1.025.103 1.743.154 2.153.154 1.402 0 2.803-.41 4.204-1.23.24-.137.462-.205.667-.205.376 0 .564.17.564.512 0 .615-.889 1.607-2.666 2.974-1.265.957-2.82 1.436-4.666 1.436-.478 0-1.692-.018-3.64-.052zm46.245-13.279l8.819-24.25c.683-1.88 1.025-2.957 1.025-3.23 0-.41-.239-.615-.718-.615-.376 0-.974.205-1.794.615-1.333.683-2.119 1.025-2.359 1.025-.478 0-.717-.256-.717-.769 0-.923 2.085-2.392 6.255-4.409 2.29-1.094 3.759-1.64 4.409-1.64.854 0 1.281.46 1.281 1.384 0 .376-.358 1.572-1.076 3.589l-19.072 51.32c-.513 1.504-.77 2.376-.77 2.615 0 .513.257.77.77.77.615 0 1.896-.702 3.845-2.103.239-.17.478-.256.718-.256.683 0 1.025.307 1.025.923 0 .615-1.333 1.845-3.999 3.691-3.145 2.222-5.52 3.333-7.127 3.333-.888 0-1.333-.428-1.333-1.282 0-.342.291-1.367.872-3.076.308-.855.684-2 1.128-3.435-4.956 5.024-9.741 7.536-14.356 7.536-2.631 0-4.597-.957-5.896-2.87-1.162-1.71-1.743-3.59-1.743-5.64 0-3.419 1.197-7.298 3.589-11.639 3.384-6.118 7.622-10.612 12.715-13.484 2.803-1.572 5.417-2.358 7.844-2.358 2.051 0 3.743.7 5.076 2.102.444.479.974 1.196 1.589 2.153zm-9.331-.871c-2.187 0-4.494.957-6.921 2.87-3.179 2.53-5.606 6-7.28 10.409-1.333 3.52-2 6.545-2 9.074 0 1.846.564 3.401 1.692 4.666 1.06 1.162 2.393 1.743 3.999 1.743 3.657 0 7.144-2.222 10.459-6.665 1.948-2.632 3.486-5.605 4.614-8.92.957-2.77 1.436-5.06 1.436-6.871 0-1.983-.633-3.606-1.897-4.87-.957-.958-2.324-1.436-4.102-1.436zm27.019 9.588c6.187-8.033 11.006-12.05 14.458-12.05.889 0 1.333.53 1.333 1.59 0 .752-.256 1.453-.769 2.102-.342.479-1.23.974-2.666 1.487-4.477 1.607-8.938 5.845-13.381 12.715-2.837 4.58-5.332 10.134-7.485 16.662l-4.666 1.641 8.716-26.455.256-.769c.41-1.299.615-2.102.615-2.41 0-.58-.222-.871-.666-.871-.376 0-.838.205-1.384.615-.992.684-1.726 1.025-2.205 1.025-.547 0-.82-.307-.82-.922 0-.65 1.179-1.692 3.537-3.128 3.76-2.29 6.289-3.435 7.588-3.435.889 0 1.333.444 1.333 1.333 0 .308-.427 1.624-1.282 3.948l-2.512 6.921zm32.813-13.177c3.247 0 5.981 1.128 8.203 3.384 2.187 2.221 3.281 5.11 3.281 8.664 0 2.905-.701 5.896-2.102 8.972-1.367 3.042-3.298 5.828-5.793 8.357-4.512 4.683-9.263 7.024-14.253 7.024-3.35 0-6.067-1.213-8.152-3.64-1.88-2.187-2.82-4.905-2.82-8.152 0-3.076.684-6.203 2.051-9.382 1.367-3.213 3.23-6.016 5.588-8.408 4.478-4.546 9.143-6.82 13.997-6.82zm-2.051 2.871c-2.529 0-4.905 1.077-7.126 3.23-2.188 2.12-3.914 4.717-5.179 7.793-1.264 3.076-1.897 6.22-1.897 9.434 0 3.28.923 5.878 2.769 7.792 1.504 1.504 3.264 2.256 5.281 2.256 3.007 0 5.793-1.589 8.357-4.768 3.896-4.819 5.844-10.117 5.844-15.893 0-3.145-.888-5.674-2.666-7.588-1.401-1.504-3.196-2.256-5.383-2.256zm34.863 29.224c-1.811 1.23-3.093 2.067-3.845 2.512-1.982 1.162-3.982 1.743-5.998 1.743-1.744 0-3.213-.615-4.41-1.846-1.059-1.093-1.589-2.392-1.589-3.896 0-1.47.478-3.692 1.436-6.665l4.46-13.894.359-1.077c.307-.991.461-1.606.461-1.846 0-.683-.307-1.025-.923-1.025-.444 0-1.11.29-1.999.872-1.128.717-1.863 1.076-2.205 1.076-.512 0-.769-.256-.769-.769 0-.547 1.453-1.726 4.358-3.537 3.076-1.949 5.281-2.923 6.614-2.923.786 0 1.179.36 1.179 1.077 0 .24-.307 1.692-.923 4.358 2.359-1.538 4.239-2.683 5.64-3.435 2.598-1.436 5.041-2.154 7.332-2.154 1.674 0 2.512.77 2.512 2.308 0 .444-.017 1.008-.052 1.692-.034.307-.051.751-.051 1.333 2.153-1.675 3.794-2.837 4.922-3.487 2.393-1.367 4.717-2.05 6.973-2.05 2.426 0 4.306 1.11 5.639 3.332 1.06 1.709 1.59 3.88 1.59 6.511 0 4.99-1.863 9.895-5.589 14.715-3.281 4.272-7.058 7.434-11.33 9.484-2.666 1.23-5.178 1.846-7.537 1.846-2.222 0-3.862-.65-4.922-1.948-.41-.479-.854-1.248-1.333-2.307zm-.205-2.051c.034-.376.188-1.145.462-2.307l.717-2.205.616-2.102.41-1.23 3.281-10.1c.991-3.043 1.487-5.162 1.487-6.358 0-1.025-.496-1.538-1.487-1.538-1.812 0-4.033.872-6.665 2.615-1.606 1.06-2.837 2.273-3.691 3.64-.411.718-.906 1.914-1.487 3.589a562.088 562.088 0 00-2.41 7.075c-1.367 3.897-2.051 6.682-2.051 8.357 0 1.367.393 2.393 1.18 3.076.615.581 1.367.872 2.255.872 1.06 0 2.359-.36 3.897-1.077a13.734 13.734 0 003.486-2.307zm20.098-25.84c-2.256 0-4.478 1.008-6.665 3.025-1.436 1.299-2.581 2.99-3.435 5.076-.991 2.324-2.068 5.502-3.23 9.536-1.265 4.272-1.897 6.972-1.897 8.1 0 .786.239 1.487.718 2.102.786.992 1.914 1.487 3.383 1.487 3.76 0 7.554-2.29 11.382-6.87 3.726-4.443 5.589-9.314 5.589-14.612 0-5.23-1.949-7.844-5.845-7.844zm29.121-16.663l2.717-1.948c.513-.376.872-.564 1.077-.564.547 0 1.025.462 1.435 1.384a5.1 5.1 0 01.411 2c0 2.324-1.504 4.683-4.512 7.075-1.162.957-1.931 1.436-2.307 1.436-.547 0-.821-.257-.821-.77 0-.204.223-.512.667-.922 1.265-1.162 1.897-2.393 1.897-3.691 0-.65-.291-1.248-.872-1.795-.512-.444-.769-.786-.769-1.025 0-.274.359-.667 1.077-1.18zm-1.025 19.021l-8.05 21.739c-.512 1.367-.769 2.273-.769 2.717 0 .444.205.666.615.666.342 0 .872-.188 1.59-.563.923-.479 1.504-.718 1.743-.718.684 0 1.025.325 1.025.974 0 .547-1.128 1.453-3.383 2.717-2.666 1.538-4.529 2.307-5.589 2.307-.444 0-.837-.136-1.179-.41-.308-.273-.461-.598-.461-.974 0-.342.273-1.282.82-2.82l.359-.974 7.024-20.661.359-1.128c.376-1.06.564-1.71.564-1.949 0-.512-.274-.769-.821-.769-.205 0-.495.137-.871.41-.855.616-1.453.923-1.795.923-.615 0-.923-.325-.923-.974 0-.65 1.521-1.931 4.563-3.845 2.427-1.538 4.068-2.307 4.922-2.307 1.094 0 1.641.444 1.641 1.333 0 .376-.462 1.811-1.384 4.306zm19.943-4.614c-.752 0-1.435.205-2.05.615-1.026.65-1.538 1.59-1.538 2.82 0 1.094.581 2.359 1.743 3.794.307.41 1.469 1.743 3.486 4 1.982 2.22 3.196 3.81 3.64 4.767a10.065 10.065 0 011.077 4.563c0 3.11-1.231 5.999-3.692 8.665-3.247 3.452-7.177 5.178-11.792 5.178-3.896 0-6.836-1.18-8.818-3.538-1.367-1.572-2.051-3.298-2.051-5.178 0-2.29.821-4.306 2.461-6.05.684-.717 1.248-1.076 1.692-1.076.547 0 .82.256.82.769 0 .307-.102.7-.307 1.179-.581 1.265-.872 2.546-.872 3.845 0 1.983.598 3.657 1.795 5.025 1.709 1.948 3.93 2.922 6.665 2.922 2.461 0 4.682-.855 6.665-2.564 2.119-1.845 3.178-3.964 3.178-6.357 0-1.572-.461-3.145-1.384-4.717-.41-.683-1.384-1.862-2.922-3.537-1.812-1.983-3.162-3.657-4.05-5.025-1.094-1.606-1.641-3.178-1.641-4.717 0-2.324.923-4.22 2.768-5.69 1.368-1.06 2.94-1.59 4.717-1.59 1.333 0 2.888.427 4.666 1.282.273.137.495.205.666.205.274 0 .547-.17.821-.513.341-.478.7-.718 1.076-.718.581 0 1.026.547 1.333 1.641.41 1.64.615 3.264.615 4.87 0 2.393-.461 3.59-1.384 3.59-.615 0-1.025-.513-1.23-1.538-.41-2.051-.974-3.555-1.692-4.512-1.196-1.607-2.683-2.41-4.461-2.41zM322.895 46.8l5.178 12.87c.239.615.462 1.11.667 1.486.171.41.359.838.564 1.282.444 1.094 1.025 1.64 1.743 1.64.478 0 1.094-.239 1.846-.717.991-.615 1.589-.923 1.794-.923.479 0 .718.24.718.718 0 .547-1.487 2.016-4.461 4.409-1.367 1.094-2.495 1.64-3.383 1.64-.582 0-1.043-.239-1.385-.717-.239-.342-.803-1.692-1.692-4.05l-5.332-14.15c-3.144 2.597-5.417 4.836-6.819 6.715-1.264 1.778-2.46 4.29-3.588 7.537-.821 2.358-1.282 3.709-1.385 4.05l-5.024 1.795 20.713-57.627.359-1.077c.342-1.025.512-1.623.512-1.794-.034-.376-.222-.564-.564-.564-.41 0-1.059.239-1.948.717-1.162.582-1.88.872-2.153.872-.547 0-.82-.308-.82-.923 0-.58.991-1.418 2.973-2.512 3.897-2.187 6.477-3.281 7.742-3.281.786 0 1.179.393 1.179 1.179 0 .513-.325 1.658-.974 3.435l-15.842 43.58c1.299-1.163 4.477-4.085 9.536-8.768a62.911 62.911 0 0110.561-7.793c2.017-1.162 3.572-1.743 4.666-1.743.615 0 1.128.24 1.538.718.342.376.513.82.513 1.333 0 .752-.428 1.384-1.282 1.897-.479.307-1.521.666-3.128 1.076-2.29.581-4.357 1.436-6.203 2.564-2.119 1.333-4.392 3.042-6.819 5.127zm39.016-14.047c3.247 0 5.982 1.128 8.203 3.384 2.188 2.221 3.282 5.11 3.282 8.664 0 2.905-.701 5.896-2.103 8.972-1.367 3.042-3.298 5.828-5.793 8.357-4.512 4.683-9.263 7.024-14.253 7.024-3.35 0-6.067-1.213-8.152-3.64-1.88-2.187-2.82-4.905-2.82-8.152 0-3.076.684-6.203 2.051-9.382 1.367-3.213 3.23-6.016 5.589-8.408 4.477-4.546 9.143-6.82 13.996-6.82zm-2.051 2.871c-2.529 0-4.904 1.077-7.126 3.23-2.188 2.12-3.914 4.717-5.178 7.793-1.265 3.076-1.897 6.22-1.897 9.434 0 3.28.923 5.878 2.768 7.792 1.504 1.504 3.264 2.256 5.281 2.256 3.008 0 5.793-1.589 8.357-4.768 3.896-4.819 5.845-10.117 5.845-15.893 0-3.145-.889-5.674-2.666-7.588-1.402-1.504-3.196-2.256-5.384-2.256z" stroke="#B52B45" stroke-width="2" mask="url(#a)"/></svg>