<svg width="115" height="110" viewBox="0 0 115 110" fill="none" xmlns="http://www.w3.org/2000/svg">
<path d="M14.3445 96.2497H33.4702L95.6288 36.6662C98.1651 34.2351 99.5899 30.9377 99.5899 27.4995C99.5899 24.0614 98.1651 20.764 95.6288 18.3329C93.0926 15.9017 89.6527 14.5359 86.066 14.5359C82.4792 14.5359 79.0393 15.9017 76.5031 18.3329L14.3445 77.9163V96.2497Z" stroke="#016646" stroke-width="3" stroke-linecap="round" stroke-linejoin="round"/>
<path d="M69.3298 25.2087L88.4557 43.5419" stroke="#016646" stroke-width="3" stroke-linecap="round" stroke-linejoin="round"/>
<path d="M57.3774 36.6662L33.4702 13.7495L14.3445 32.0829L38.2517 54.9996" stroke="#016646" stroke-width="3" stroke-linecap="round" stroke-linejoin="round"/>
<path d="M33.4693 36.6665L26.2971 43.541" stroke="#016646" stroke-width="3" stroke-linecap="round" stroke-linejoin="round"/>
<path d="M76.5029 54.9995L100.41 77.9164L81.2844 96.2499L57.3772 73.333" stroke="#016646" stroke-width="3" stroke-linecap="round" stroke-linejoin="round"/>
<path d="M76.502 77.916L69.3298 84.7915" stroke="#016646" stroke-width="3" stroke-linecap="round" stroke-linejoin="round"/>
</svg>
