<svg width="115" height="110" viewBox="0 0 115 110" fill="none" xmlns="http://www.w3.org/2000/svg">
<path d="M100.409 64.1667L86.0649 50.4168H52.5949C51.3268 50.4168 50.1106 49.9339 49.2139 49.0744C48.3172 48.2148 47.8135 47.049 47.8135 45.8335V18.3336C47.8135 17.118 48.3172 15.9522 49.2139 15.0927C50.1106 14.2331 51.3268 13.7502 52.5949 13.7502H95.6278C96.8959 13.7502 98.112 14.2331 99.0087 15.0927C99.9054 15.9522 100.409 17.118 100.409 18.3336V64.1667Z" stroke="#016646" stroke-width="3" stroke-linecap="round" stroke-linejoin="round"/>
<path d="M66.9402 68.7503V77.917C66.9402 79.1325 66.4364 80.2983 65.5397 81.1579C64.643 82.0174 63.4269 82.5003 62.1588 82.5003H28.6888L14.3445 96.2502V50.4171C14.3445 49.2015 14.8482 48.0357 15.7449 47.1762C16.6416 46.3166 17.8578 45.8337 19.1259 45.8337H28.6888" stroke="#016646" stroke-width="3" stroke-linecap="round" stroke-linejoin="round"/>
</svg>
