<svg width="115" height="110" viewBox="0 0 115 110" fill="none" xmlns="http://www.w3.org/2000/svg">
<path d="M33.4714 87.0837C38.7529 87.0837 43.0344 82.9794 43.0344 77.9166C43.0344 72.8538 38.7529 68.7495 33.4714 68.7495C28.1899 68.7495 23.9084 72.8538 23.9084 77.9166C23.9084 82.9794 28.1899 87.0837 33.4714 87.0837Z" stroke="#016646" stroke-width="3" stroke-linecap="round" stroke-linejoin="round"/>
<path d="M81.285 87.0837C86.5665 87.0837 90.848 82.9794 90.848 77.9166C90.848 72.8538 86.5665 68.7495 81.285 68.7495C76.0035 68.7495 71.722 72.8538 71.722 77.9166C71.722 82.9794 76.0035 87.0837 81.285 87.0837Z" stroke="#016646" stroke-width="3" stroke-linecap="round" stroke-linejoin="round"/>
<path d="M23.9084 77.9166H14.3454V59.5831M9.56396 22.9163H62.1601V77.9166M43.0343 77.9166H71.7231M90.849 77.9166H100.412V50.4164M100.412 50.4164H62.1601M100.412 50.4164L86.0675 27.4996H62.1601" stroke="#016646" stroke-width="3" stroke-linecap="round" stroke-linejoin="round"/>
<path d="M14.3447 41.2495H33.4706" stroke="#016646" stroke-width="3" stroke-linecap="round" stroke-linejoin="round"/>
</svg>
